SplineFontDB: 3.0
FontName: TAM-ThiruValluvarNormal
FullName: TAM-ThiruValluvarNormal
FamilyName: TAM-ThiruValluvarNormal
Weight: Regular
Copyright: Copyright (c) 2009-2015, NLCI (http://www.nlci.in/fonts/)
Version: 
ItalicAngle: 0
UnderlinePosition: -492
UnderlineWidth: 40
Ascent: 1638
Descent: 410
InvalidEm: 0
LayerCount: 2
Layer: 0 0 "Back" 1
Layer: 1 0 "Fore" 0
XUID: [1021 406 472118173 7902419]
OS2Version: 0
OS2_WeightWidthSlopeOnly: 0
OS2_UseTypoMetrics: 1
CreationTime: 1410967553
ModificationTime: 1545672932
PfmFamily: 81
TTFWeight: 400
TTFWidth: 5
LineGap: 0
VLineGap: 0
Panose: 2 0 5 3 0 0 0 0 0 0
OS2TypoAscent: 2650
OS2TypoAOffset: 0
OS2TypoDescent: -1029
OS2TypoDOffset: 0
OS2TypoLinegap: 0
OS2WinAscent: 2650
OS2WinAOffset: 0
OS2WinDescent: 1029
OS2WinDOffset: 0
HheadAscent: 2650
HheadAOffset: 0
HheadDescent: -1029
HheadDOffset: 0
OS2SubXSize: 1434
OS2SubYSize: 1331
OS2SubXOff: 0
OS2SubYOff: 293
OS2SupXSize: 1434
OS2SupYSize: 1331
OS2SupXOff: 0
OS2SupYOff: 928
OS2StrikeYSize: 102
OS2StrikeYPos: 530
OS2Vendor: 'Alts'
OS2CodePages: 00000000.00000000
OS2UnicodeRanges: 00100001.00000000.00000000.00000000
MarkAttachClasses: 1
DEI: 91125
TtTable: prep
NPUSHB
 1
 1
SCANTYPE
PUSHW_1
 511
SCANCTRL
EndTTInstrs
ShortTable: maxp 16
  1
  0
  296
  192
  12
  307
  16
  2
  8
  64
  10
  0
  3
  557
  3
  2
EndShort
LangName: 1033 "" "" "Normal" "NLCI:TAM ThiruValluvar Normal" "" "1.0 Thu Apr 27 12:35:12 1995"
Encoding: Custom
UnicodeInterp: none
NameList: Adobe Glyph List
DisplaySize: -48
AntiAlias: 1
FitToEm: 1
WinInfo: 0 38 14
BeginPrivate: 0
EndPrivate
Grid
-2048 1600 m 1
 4096 1600 l 1025
-2048 1500 m 1
 4096 1500 l 1025
-2048 1400 m 1
 4096 1400 l 1025
-2048 1300 m 1
 4096 1300 l 1025
-2048 1200 m 1
 4096 1200 l 1025
-2048 1100 m 1
 4096 1100 l 1025
-2048 1000 m 1
 4096 1000 l 1025
-2048 900 m 1
 4096 900 l 1025
-2048 800 m 1
 4096 800 l 1025
-2048 700 m 1
 4096 700 l 1025
-2048 600 m 1
 4096 600 l 1025
-2048 500 m 1
 4096 500 l 1025
-2048 400 m 1

StartChar: .notdef
Encoding: 0 -1 0
Width: 1024
Flags: W
HStem: 0 64<128 896> 1472 64<128 896>
VStem: 64 64<64 1472> 896 64<64 1472>
LayerCount: 2
Fore
SplineSet
64 0 m 1
 64 1536 l 1
 960 1536 l 1
 960 0 l 1
 64 0 l 1
896 64 m 1
 896 1472 l 1
 128 1472 l 1
 128 64 l 1
 896 64 l 1
EndSplineSet
Validated: 1
EndChar

StartChar: exclam
Encoding: 4 33 4
Width: 692
GlyphClass: 1
Flags: W
HStem: -25 252<251.493 440.309> 1387 20G<304.5 387.5>
VStem: 221 252<7.94199 196.966 747.875 1383.43>
LayerCount: 2
Fore
SplineSet
346 227 m 256
 412 227 473 178 473 102 c 0
 473 36 417 -25 346 -25 c 0
 283 -25 221 26 221 102 c 0
 221 180 282 227 346 227 c 256
346 1407 m 256
 429 1407 471 1363 471 1274 c 0
 471 1270 470 1254 468 1226 c 2
 397 371 l 1
 297 371 l 1
 245 974 l 2
 240 1028 236 1075 233 1118 c 2
 224 1226 l 2
 222 1254 221 1270 221 1274 c 0
 221 1363 263 1407 346 1407 c 256
EndSplineSet
Validated: 1
EndChar

StartChar: quotedbl
Encoding: 5 34 5
Width: 682
GlyphClass: 1
Flags: W
HStem: 862 600<160 193 489 522>
VStem: 88 174<1262.44 1452.3> 420 174<1262.44 1452.39>
LayerCount: 2
Fore
SplineSet
88 1362 m 1
 88 1442 135 1462 176 1462 c 0
 233 1462 262 1429 262 1362 c 1
 193 862 l 1
 160 862 l 1
 88 1362 l 1
420 1362 m 1
 420 1422 447 1462 506 1462 c 0
 547 1462 594 1442 594 1362 c 1
 522 862 l 1
 489 862 l 1
 420 1362 l 1
EndSplineSet
Validated: 1
EndChar

StartChar: numbersign
Encoding: 6 35 6
Width: 1522
GlyphClass: 1
Flags: W
HStem: 467 102<127 418 563 825 977 1307> 862 105<219 551 696 961 1110 1397>
LayerCount: 2
Fore
SplineSet
664 862 m 1
 563 569 l 1
 860 569 l 1
 961 862 l 1
 664 862 l 1
1073 862 m 1
 977 569 l 1
 1307 569 l 1
 1307 467 l 1
 940 467 l 1
 768 -47 l 1
 666 -14 l 1
 825 467 l 1
 528 467 l 1
 354 -47 l 1
 254 -12 l 1
 418 467 l 1
 127 467 l 1
 127 569 l 1
 451 569 l 1
 551 862 l 1
 219 862 l 1
 219 967 l 1
 586 967 l 1
 750 1450 l 1
 854 1417 l 1
 696 967 l 1
 995 967 l 1
 1157 1450 l 1
 1266 1417 l 1
 1110 967 l 1
 1397 967 l 1
 1397 862 l 1
 1073 862 l 1
EndSplineSet
Validated: 1
EndChar

StartChar: dollar
Encoding: 7 36 7
Width: 1153
GlyphClass: 1
Flags: W
HStem: 0 100<296.468 532 627 731.696> 1004 21G<867.235 977> 1266 102<432.85 535 629 834.547>
VStem: 119 102<312.272 401> 152 190<909.682 1164.49> 532 95<-211 2.38774 109 594 813 1266 1374 1522> 848 186<227.551 486.048> 870 107<1004 1107.7>
LayerCount: 2
Fore
SplineSet
627 109 m 1xe6
 675 116 848 157 848 350 c 0
 848 496 753 552 627 594 c 1
 627 109 l 1xe6
535 1266 m 1
 498 1258 342 1219 342 1032 c 0xec
 342 901 444 848 535 813 c 1
 535 1266 l 1
152 991 m 0
 152 1293 468 1357 535 1368 c 1
 535 1522 l 1
 629 1522 l 1
 629 1374 l 1
 728 1374 844 1358 977 1327 c 1
 977 1004 l 1
 870 1004 l 1xed
 840 1221 l 1
 808 1256 738 1274 629 1274 c 1
 629 786 l 1
 720 758 l 1
 890 704 1034 610 1034 389 c 0
 1034 150 785 11 627 0 c 1
 627 -211 l 1
 532 -211 l 1
 532 0 l 1
 345 10 208 28 119 53 c 1
 119 401 l 1
 221 401 l 1xf6
 258 172 l 1
 299 123 429 100 532 100 c 1
 532 618 l 1
 339 661 152 767 152 991 c 0
EndSplineSet
Validated: 1
EndChar

StartChar: percent
Encoding: 8 37 8
Width: 1761
GlyphClass: 1
Flags: W
HStem: -33 76<1302.22 1461.02> 0 21G<383 524.635> 547 78<294.107 466.403> 750 77<1297.32 1464.98> 1329 78<294.107 466.403> 1354 20G<1240.34 1380>
VStem: 66 153<736.17 1217.22> 537 157<735.826 1218.17> 1067 154<157.054 637.282> 1538 158<156.058 640.534>
LayerCount: 2
Fore
SplineSet
219 977 m 0x3bc0
 219 805 251 625 381 625 c 256
 485 625 537 742 537 977 c 0
 537 1212 485 1329 381 1329 c 0
 251 1329 219 1148 219 977 c 0x3bc0
1221 397 m 0
 1221 229 1253 43 1382 43 c 0xb3c0
 1486 43 1538 161 1538 397 c 0
 1538 632 1486 750 1382 750 c 0
 1253 750 1221 567 1221 397 c 0
66 977 m 0
 66 1155 129 1407 381 1407 c 256x3bc0
 631 1407 694 1158 694 977 c 0
 694 796 631 547 381 547 c 0
 129 547 66 797 66 977 c 0
512 0 m 1x77c0
 383 0 l 1
 1253 1374 l 1
 1380 1374 l 1
 512 0 l 1x77c0
1067 397 m 0
 1067 575 1130 827 1382 827 c 256
 1615 827 1696 608 1696 397 c 0
 1696 220 1633 -33 1382 -33 c 0xb3c0
 1130 -33 1067 220 1067 397 c 0
EndSplineSet
Validated: 1
EndChar

StartChar: ampersand
Encoding: 9 38 9
Width: 1432
GlyphClass: 1
Flags: W
HStem: -25 134<432.096 719.814> 0 88<1208 1391> 657 86<944 1043.46 1268.21 1364> 1300 101<432.029 672.141>
VStem: 80 207<253.948 554.772> 182 185<966.335 1222.27> 743 189<930.316 1227.43>
LayerCount: 2
Fore
SplineSet
287 428 m 0xba
 287 233 425 109 584 109 c 0
 645 109 726 114 856 223 c 1
 434 682 l 1
 336 615 287 531 287 428 c 0xba
551 1300 m 0
 441 1300 367 1218 367 1108 c 0x36
 367 1026 410 944 496 862 c 2
 557 803 l 1
 714 880 743 984 743 1079 c 0
 743 1196 684 1300 551 1300 c 0
571 1401 m 0
 772 1401 932 1277 932 1092 c 0
 932 888 769 795 631 733 c 1
 975 362 l 1
 993 385 1077 502 1090 602 c 0
 1091 616 1072 638 1055 641 c 2
 944 657 l 1
 944 743 l 1
 1364 743 l 1
 1364 657 l 1
 1217 635 l 1
 1189 537 1146 445 1089 358 c 1
 1042 289 l 1
 1208 98 l 1
 1391 88 l 1
 1391 0 l 1
 1014 0 l 1
 1014 49 l 1
 922 152 l 1
 839 88 l 1x76
 736 12 625 -25 506 -25 c 0
 276 -25 80 139 80 381 c 0xba
 80 545 171 665 354 741 c 1
 308 788 l 2
 191 907 182 1022 182 1055 c 0
 182 1263 347 1401 571 1401 c 0
EndSplineSet
Validated: 1
EndChar

StartChar: quotesingle
Encoding: 10 39 10
Width: 350
GlyphClass: 1
Flags: W
HStem: 862 600<160 193>
VStem: 88 174<1262.44 1452.39>
LayerCount: 2
Fore
SplineSet
88 1362 m 1
 88 1422 115 1462 174 1462 c 0
 215 1462 262 1442 262 1362 c 1
 193 862 l 1
 160 862 l 1
 88 1362 l 1
EndSplineSet
Validated: 1
EndChar

StartChar: parenleft
Encoding: 11 40 11
Width: 770
GlyphClass: 1
Flags: W
HStem: -291 90<577.85 702> 1378 90<577.85 702>
VStem: 121 190<213.52 967.962>
LayerCount: 2
Fore
SplineSet
702 1378 m 1
 371 1324 311 951 311 590 c 0
 311 230 371 -147 702 -201 c 1
 702 -291 l 1
 299 -246 121 104 121 590 c 0
 121 1045 278 1419 702 1468 c 1
 702 1378 l 1
EndSplineSet
Validated: 1
EndChar

StartChar: parenright
Encoding: 12 41 12
Width: 770
GlyphClass: 1
Flags: W
HStem: -291 90<70 199.009> 1378 90<70 194.221>
VStem: 459 192<215.024 962.678>
LayerCount: 2
Fore
SplineSet
459 590 m 0
 459 1190 272 1344 70 1378 c 1
 70 1468 l 1
 473 1423 651 1077 651 590 c 0
 651 138 495 -242 70 -291 c 1
 70 -201 l 1
 273 -167 459 -13 459 590 c 0
EndSplineSet
Validated: 1
EndChar

StartChar: asterisk
Encoding: 13 42 13
Width: 1024
GlyphClass: 1
Flags: W
HStem: 988 20G<450.06 500 524 573.94> 1036 174<212.775 275.85 748.15 811.314>
VStem: 428 170<1290.03 1361.84>
LayerCount: 2
Fore
SplineSet
406 743 m 1
 264 690 l 1
 268 842 l 1
 475 1008 l 1
 500 989 l 1
 406 743 l 1
467 1036 m 1
 201 1051 l 1
 109 1167 l 1
 254 1210 l 1
 475 1065 l 1
 467 1036 l 1
618 743 m 1
 524 989 l 1
 549 1008 l 1
 756 842 l 1
 760 690 l 1
 618 743 l 1
526 1085 m 1
 498 1085 l 1
 428 1341 l 1
 512 1466 l 1
 598 1341 l 1
 526 1085 l 1
823 1051 m 1
 559 1036 l 1
 549 1065 l 1
 770 1210 l 1
 915 1167 l 1
 823 1051 l 1
EndSplineSet
Validated: 1
EndChar

StartChar: plus
Encoding: 14 43 14
Width: 2048
GlyphClass: 1
Flags: W
HStem: 0 21G<961 1087> 551 127<410 961 1087 1638>
VStem: 961 126<0 551 678 1229>
LayerCount: 2
Fore
SplineSet
1087 551 m 1
 1087 0 l 1
 961 0 l 1
 961 551 l 1
 410 551 l 1
 410 678 l 1
 961 678 l 1
 961 1229 l 1
 1087 1229 l 1
 1087 678 l 1
 1638 678 l 1
 1638 551 l 1
 1087 551 l 1
EndSplineSet
Validated: 1
EndChar

StartChar: comma
Encoding: 15 44 15
Width: 573
GlyphClass: 1
Flags: W
HStem: -348 74<66 168.068> 14 236<160.375 287.617>
VStem: 291.082 130.918<-150.402 14>
LayerCount: 2
Fore
SplineSet
125 109 m 0
 125 180 177 250 252 250 c 0
 388 250 422 122 422 20 c 0
 422 -201 237 -334 66 -348 c 1
 66 -274 l 1
 212.271 -241.604 291.082 -166.806 291.082 4.31991 c 0
 291.082 7.51295 291.055 10.7395 291 14 c 1
 162 14 l 1
 137 39 125 70 125 109 c 0
EndSplineSet
Validated: 1
EndChar

StartChar: hyphen
Encoding: 16 45 16
Width: 655
GlyphClass: 1
Flags: W
HStem: 416 153<90 565>
VStem: 90 475<416 569>
LayerCount: 2
Fore
SplineSet
90 416 m 1
 90 569 l 1
 565 569 l 1
 565 416 l 1
 90 416 l 1
EndSplineSet
Validated: 1
EndChar

StartChar: period
Encoding: 17 46 17
Width: 573
GlyphClass: 1
Flags: W
HStem: -25 275<162.223 363.814>
VStem: 125 276<12.875 211.875>
LayerCount: 2
Fore
SplineSet
125 113 m 0
 125 194 191 250 262 250 c 0
 331 250 401 196 401 113 c 0
 401 27 329 -25 262 -25 c 0
 191 -25 125 30 125 113 c 0
EndSplineSet
Validated: 1
EndChar

StartChar: slash
Encoding: 18 47 18
Width: 1004
GlyphClass: 1
Flags: W
HStem: 1354 20G<860.849 1004>
LayerCount: 2
Fore
SplineSet
131 -190 m 1
 0 -190 l 1
 872 1374 l 1
 1004 1374 l 1
 131 -190 l 1
EndSplineSet
Validated: 1
EndChar

StartChar: zero
Encoding: 19 48 19
Width: 1153
GlyphClass: 1
Flags: W
HStem: -33 103<453.663 696.523> 1305 102<451.097 696.151>
VStem: 82 215<351.554 1018.82> 854 217<358.525 1018.54>
LayerCount: 2
Fore
SplineSet
297 686 m 0
 297 157 464 70 575 70 c 256
 798 70 854 395 854 686 c 0
 854 857 836 1305 575 1305 c 0
 353 1305 297 977 297 686 c 0
575 -33 m 256
 336 -33 82 160 82 686 c 0
 82 907 127 1082 217 1212 c 0
 307 1342 426 1407 575 1407 c 256
 725 1407 846 1342 936 1212 c 0
 1026 1082 1071 907 1071 686 c 0
 1071 242 873 -33 575 -33 c 256
EndSplineSet
Validated: 1
EndChar

StartChar: one
Encoding: 20 49 20
Width: 1153
GlyphClass: 1
Flags: W
HStem: 0 92<221 472.174 676.826 913> 1178 92<156 202.252> 1387 20G<533.474 676>
VStem: 473 203<100.015 1233>
LayerCount: 2
Fore
SplineSet
428 100 m 1
 455 100 473 121 473 145 c 2
 473 1233 l 1
 156 1178 l 1
 156 1270 l 1
 598 1407 l 1
 676 1407 l 1
 676 145 l 2
 676 121 694 100 721 100 c 1
 913 92 l 1
 913 0 l 1
 221 0 l 1
 221 92 l 1
 428 100 l 1
EndSplineSet
Validated: 1
EndChar

StartChar: two
Encoding: 21 50 21
Width: 1153
GlyphClass: 1
Flags: W
HStem: 0 172<313 920> 1296 111<364.499 673.331>
VStem: 125 223<1005.83 1230.55> 811 221<831.586 1156.63> 956 101<277.913 348>
LayerCount: 2
Fore
SplineSet
125 1102 m 0xf0
 125 1262 317 1407 575 1407 c 0
 839 1407 1032 1251 1032 1008 c 0xf0
 1032 812 863 634 734 517 c 1
 664 454 l 2
 611 408 554 362 494 315 c 2
 313 172 l 1
 920 172 l 1
 956 348 l 1
 1057 348 l 1
 1057 0 l 1xe8
 96 0 l 1
 96 137 l 1
 383 374 l 2
 610 562 811 761 811 987 c 0
 811 1170 694 1296 518 1296 c 0
 460 1296 406 1274 374 1257 c 2
 348 1243 l 1
 348 1016 l 1
 322 993 289 981 248 981 c 0
 171 981 125 1032 125 1102 c 0xf0
EndSplineSet
Validated: 1
EndChar

StartChar: three
Encoding: 22 51 22
Width: 1153
GlyphClass: 1
Flags: W
HStem: -33 103<364.541 690.597> 649 117<414 660.719> 1006 21G<211.5 262.5> 1294 113<362.478 679.799>
VStem: 131 211<1032 1240.28> 795 209<900.042 1178.15> 846 211<227.57 535.959>
LayerCount: 2
Fore
SplineSet
1004 1053 m 0xfc
 1004 854 824 761 688 723 c 1
 870 715 1057 608 1057 391 c 0
 1057 137 812 -33 520 -33 c 0
 234 -33 96 114 96 209 c 0
 96 259 130 319 217 319 c 0
 250 319 274 314 287 305 c 1
 348 123 l 1
 409 88 469 70 526 70 c 0
 715 70 846 221 846 391 c 0xfa
 846 602 653 649 539 649 c 0
 498 649 457 646 414 641 c 1
 414 768 l 1
 419 768 446 766 467 766 c 0
 596 766 795 818 795 1026 c 0
 795 1198 668 1294 526 1294 c 0
 451 1294 380 1264 342 1237 c 1
 342 1032 l 1
 312 1018 l 2
 296 1010 275 1006 250 1006 c 0
 173 1006 131 1055 131 1120 c 0
 131 1269 322 1407 584 1407 c 0
 822 1407 1004 1271 1004 1053 c 0xfc
EndSplineSet
Validated: 1
EndChar

StartChar: four
Encoding: 23 52 23
Width: 1153
GlyphClass: 1
Flags: W
HStem: 408 139<244 705 897 1071> 1387 20G<738.336 897>
VStem: 705 192<-33 408 547 1145>
LayerCount: 2
Fore
SplineSet
705 1145 m 1
 244 547 l 1
 705 547 l 1
 705 1145 l 1
897 408 m 1
 897 -33 l 1
 705 -33 l 1
 705 408 l 1
 82 408 l 1
 82 549 l 1
 754 1407 l 1
 897 1407 l 1
 897 547 l 1
 1071 547 l 1
 1071 408 l 1
 897 408 l 1
EndSplineSet
Validated: 1
EndChar

StartChar: five
Encoding: 24 53 24
Width: 1153
GlyphClass: 1
Flags: W
HStem: -33 101<374.059 672.707> 733 131<345.95 691.844> 1200 174<319 965>
VStem: 174 145<811 1200> 850 209<241.39 573.104>
LayerCount: 2
Fore
SplineSet
319 811 m 1
 385 834 485 864 596 864 c 0
 793 864 1059 780 1059 444 c 0
 1059 236 929 -33 481 -33 c 0
 269 -33 92 102 92 209 c 0
 92 301 167 324 221 324 c 0
 240 324 258 321 276 315 c 1
 354 127 l 1
 378 103 455 68 512 68 c 0
 741 68 850 266 850 395 c 0
 850 608 716 733 500 733 c 0
 418 733 309 710 174 664 c 1
 174 1374 l 1
 965 1374 l 1
 965 1200 l 1
 319 1200 l 1
 319 811 l 1
EndSplineSet
Validated: 1
EndChar

StartChar: six
Encoding: 25 54 25
Width: 1153
GlyphClass: 1
Flags: W
HStem: -33 107<435.749 725.615> 762 133<435.577 736.403> 1282 125<621.458 901>
VStem: 82 211<282.043 771.267> 862 209<251.949 629.96>
LayerCount: 2
Fore
SplineSet
862 442 m 0
 862 582 804 762 573 762 c 0
 463 762 356 704 297 659 c 1
 294 630 293 593 293 547 c 0
 293 347 338 74 573 74 c 256
 804 74 862 290 862 442 c 0
573 -33 m 0
 377 -33 82 58 82 588 c 0
 82 1184 493 1407 901 1407 c 1
 901 1280 l 1
 831 1282 l 2
 567 1289 346 1089 303 766 c 1
 403 852 517 895 645 895 c 0
 901 895 1071 715 1071 469 c 0
 1071 169 850 -33 573 -33 c 0
EndSplineSet
Validated: 33
EndChar

StartChar: seven
Encoding: 26 55 26
Width: 1153
GlyphClass: 1
Flags: W
HStem: 1200 174<223 854>
VStem: 86 104<1014 1094.8>
LayerCount: 2
Fore
SplineSet
395 35 m 1
 395 -33 l 1
 178 -33 l 1
 854 1200 l 1
 223 1200 l 1
 190 1014 l 1
 86 1014 l 1
 86 1374 l 1
 1067 1374 l 1
 1067 1260 l 1
 395 35 l 1
EndSplineSet
Validated: 1
EndChar

StartChar: eight
Encoding: 27 56 27
Width: 1153
GlyphClass: 1
Flags: W
HStem: -33 111<406.622 735.567> 1303 104<435.875 717.242>
VStem: 82 190<211.268 529.106> 137 203<940.68 1205.63> 825 189<900.352 1192.38> 862 207<196.495 471.501>
LayerCount: 2
Fore
SplineSet
272 385 m 0xe4
 272 205 379 78 575 78 c 0
 778 78 862 226 862 340 c 0
 862 491 728 554 629 596 c 2
 457 666 l 1
 386 627 272 554 272 385 c 0xe4
575 1303 m 0
 432 1303 340 1191 340 1069 c 0
 340 927 465 840 676 762 c 1
 775 836 825 927 825 1036 c 0xd8
 825 1191 725 1303 575 1303 c 0
1014 1055 m 0
 1014 876 860 770 764 723 c 1
 967 648 1069 532 1069 373 c 0
 1069 127 848 -33 575 -33 c 0
 280 -33 82 128 82 369 c 0xe4
 82 522 180 636 375 711 c 1
 298 743 137 835 137 1022 c 0
 137 1253 304 1407 575 1407 c 0
 814 1407 1014 1266 1014 1055 c 0
EndSplineSet
Validated: 1
EndChar

StartChar: nine
Encoding: 28 57 28
Width: 1153
GlyphClass: 1
Flags: W
HStem: -33 127<250 537.479> 479 133<414.879 719.827> 1300 107<423.684 715.574>
VStem: 82 207<743.591 1118.87> 858 213<706.456 1091.96>
LayerCount: 2
Fore
SplineSet
578 1300 m 0
 369 1300 289 1121 289 932 c 0
 289 792 347 612 578 612 c 0
 688 612 795 670 854 715 c 1
 857 744 858 781 858 827 c 0
 858 1027 813 1300 578 1300 c 0
82 903 m 0
 82 1189 283 1407 578 1407 c 0
 775 1407 1071 1316 1071 786 c 0
 1071 299 773 -33 250 -33 c 1
 250 94 l 1
 319 92 l 2
 601 84 810 303 850 608 c 1
 753 522 639 479 508 479 c 0
 247 479 82 659 82 903 c 0
EndSplineSet
Validated: 33
EndChar

StartChar: colon
Encoding: 29 58 29
Width: 573
GlyphClass: 1
Flags: W
HStem: -25 275<162.223 363.814> 737 275<162.223 364.151>
VStem: 125 276<12.875 211.875 775.125 974.125>
LayerCount: 2
Fore
SplineSet
125 113 m 0
 125 194 191 250 262 250 c 0
 331 250 401 196 401 113 c 0
 401 27 329 -25 262 -25 c 0
 191 -25 125 30 125 113 c 0
125 874 m 0
 125 957 191 1012 262 1012 c 0
 331 1012 401 957 401 874 c 0
 401 790 330 737 262 737 c 0
 191 737 125 793 125 874 c 0
EndSplineSet
Validated: 1
EndChar

StartChar: semicolon
Encoding: 30 59 30
Width: 573
GlyphClass: 1
Flags: W
HStem: -348 74<66 169.693> 14 236<160.375 287.617> 737 275<162.572 362.683>
VStem: 125 274<774 973.75> 291 131<-151.757 14>
LayerCount: 2
Fore
SplineSet
125 109 m 0xf0
 125 180 177 250 252 250 c 0
 388 250 422 122 422 20 c 0
 422 -201 237 -334 66 -348 c 1
 66 -274 l 1
 215 -241 294 -164 291 14 c 1xe8
 162 14 l 1
 137 39 125 70 125 109 c 0xf0
125 874 m 0xf0
 125 948 185 1012 264 1012 c 0
 335 1012 399 956 399 874 c 0
 399 790 330 737 262 737 c 0
 191 737 125 793 125 874 c 0xf0
EndSplineSet
Validated: 33
EndChar

StartChar: less
Encoding: 31 60 31
Width: 2048
GlyphClass: 1
Flags: W
LayerCount: 2
Fore
SplineSet
410 551 m 1
 410 678 l 1
 1638 1149 l 1
 1638 1022 l 1
 541 614 l 1
 1638 207 l 1
 1638 80 l 1
 410 551 l 1
EndSplineSet
Validated: 1
EndChar

StartChar: equal
Encoding: 32 61 32
Width: 2048
GlyphClass: 1
Flags: W
HStem: 365 127<410 1638> 737 127<410 1638>
LayerCount: 2
Fore
SplineSet
410 365 m 1
 410 492 l 1
 1638 492 l 1
 1638 365 l 1
 410 365 l 1
410 737 m 1
 410 864 l 1
 1638 864 l 1
 1638 737 l 1
 410 737 l 1
EndSplineSet
Validated: 1
EndChar

StartChar: greater
Encoding: 33 62 33
Width: 2048
GlyphClass: 1
Flags: W
LayerCount: 2
Fore
SplineSet
410 80 m 1
 410 207 l 1
 1507 614 l 1
 410 1022 l 1
 410 1149 l 1
 1638 678 l 1
 1638 551 l 1
 410 80 l 1
EndSplineSet
Validated: 1
EndChar

StartChar: question
Encoding: 34 63 34
Width: 995
GlyphClass: 1
Flags: W
HStem: -25 252<315.17 505.31> 1307 100<354 533.806>
VStem: 285 252<5.66089 195.693> 350 115<369 596> 647 207<863.643 1194.05>
LayerCount: 2
Fore
SplineSet
102 1206 m 0xd8
 102 1327 239 1407 428 1407 c 0
 673 1407 854 1265 854 1040 c 0
 854 869 748 726 533 626 c 1
 465 596 l 1
 465 369 l 1
 350 369 l 1
 350 666 l 1
 456 700 647 809 647 1024 c 0
 647 1250 500 1307 354 1307 c 1
 270 1098 l 1
 264 1097 259 1097 254 1097 c 0
 250 1096 246 1096 243 1096 c 2
 236 1096 l 2
 175 1096 102 1118 102 1206 c 0xd8
285 102 m 0xe8
 285 180 346 227 410 227 c 0
 488 227 537 163 537 100 c 0
 537 28 478 -25 410 -25 c 0
 334 -25 285 37 285 102 c 0xe8
EndSplineSet
Validated: 1
EndChar

StartChar: at
Encoding: 35 64 35
Width: 1917
GlyphClass: 1
Flags: W
HStem: -313 102<745.661 1262.82> 115 116<1206 1434.14> 117 131<797.101 956.965> 922 86<925.713 1164.02> 1325 90<823.538 1332.74>
VStem: 150 147<250.987 785.212> 557 188<297.615 671.366> 1669 100<509.578 997.464>
LayerCount: 2
Fore
SplineSet
1075 922 m 0xbf
 877 922 745 731 745 469 c 0
 745 322 798 248 905 248 c 0
 974 248 1043 292 1114 381 c 1
 1196 805 l 1
 1205 840 1152 922 1075 922 c 0xbf
150 489 m 0
 150 1070 583 1415 1069 1415 c 0
 1465 1415 1769 1193 1769 764 c 0
 1769 339 1470 115 1270 115 c 0xdf
 1142 115 1110 189 1110 285 c 1
 999 173 900 117 813 117 c 0xbf
 659 117 557 249 557 451 c 0
 557 769 815 1008 1067 1008 c 0
 1130 1008 1197 989 1268 952 c 1
 1305 999 l 1
 1419 999 l 1
 1418 995 1415 984 1410 964 c 2
 1280 391 l 2
 1274 368 1271 346 1271 326 c 0
 1271 262 1299 231 1356 231 c 0xdf
 1476 231 1669 434 1669 762 c 0
 1669 1138 1393 1325 1096 1325 c 0
 609 1325 297 962 297 526 c 0
 297 115 557 -211 1014 -211 c 0
 1106 -211 1283 -209 1554 -59 c 1
 1583 -133 l 1
 1250 -312 1056 -313 965 -313 c 0
 533 -313 150 -15 150 489 c 0
EndSplineSet
Validated: 33
EndChar

StartChar: A
Encoding: 36 65 36
Width: 1380
GlyphClass: 1
Flags: W
HStem: 0 88<10 78.2394 270.925 422 883 1022.18 1287.57 1370> 508 98<444 844> 1387 20G<598.628 767.516>
LayerCount: 2
Fore
SplineSet
643 1143 m 1
 444 606 l 1
 844 606 l 1
 643 1143 l 1
883 0 m 1
 883 88 l 1
 1001 98 l 1
 1016 98 1026 122 1022 133 c 2
 881 508 l 1
 408 508 l 1
 272 139 l 2
 266 122 286 98 301 98 c 1
 422 88 l 1
 422 0 l 1
 10 0 l 1
 10 88 l 1
 129 113 l 1
 606 1407 l 1
 760 1407 l 1
 1235 143 l 1
 1243 117 1249 110 1278 104 c 2
 1370 88 l 1
 1370 0 l 1
 883 0 l 1
EndSplineSet
Validated: 1
EndChar

StartChar: B
Encoding: 37 66 37
Width: 1239
GlyphClass: 1
Flags: W
HStem: 0 100<66 174 424.338 804.864> 659 95<422 731.881> 1280 94<66 174 422 746.696>
VStem: 217 205<103.031 647 754.026 1274> 854 221<885.204 1181.53> 936 223<218.047 551.031>
LayerCount: 2
Fore
SplineSet
1159 406 m 0xf4
 1159 81 866 0 639 0 c 2
 66 0 l 1
 66 88 l 1
 174 96 l 2
 212 99 217 132 217 141 c 2
 217 1233 l 2
 217 1251 206 1274 174 1278 c 1
 66 1286 l 1
 66 1374 l 1
 614 1374 l 2
 921 1374 1075 1264 1075 1044 c 0xf8
 1075 887 977 782 780 729 c 1
 939 729 1159 664 1159 406 c 0xf4
606 659 m 0
 551 659 459 647 422 647 c 1
 422 106 l 1
 472 102 514 100 549 100 c 0
 789 100 936 160 936 389 c 0xf4
 936 605 784 659 606 659 c 0
539 1280 m 0
 492 1280 445 1274 422 1274 c 1
 422 756 l 1
 431 755 441 755 450 755 c 0
 458 754 466 754 474 754 c 2
 496 754 l 2
 775 754 854 864 854 1030 c 0xf8
 854 1197 749 1280 539 1280 c 0
EndSplineSet
Validated: 1
EndChar

StartChar: C
Encoding: 38 67 38
Width: 1284
GlyphClass: 1
Flags: W
HStem: -33 113<615.554 1016.7> 1006 21G<1077.77 1204> 1292 115<603.473 996.02>
VStem: 80 235<434.317 956.584> 1085 119<310.98 379 1006 1084.43>
LayerCount: 2
Fore
SplineSet
807 1292 m 0
 606 1292 315 1165 315 690 c 0
 315 430 419 80 834 80 c 0
 897 80 952 92 999 115 c 1
 1020 123 1033 137 1038 156 c 2
 1085 379 l 1
 1204 379 l 1
 1204 47 l 1
 1162 25 960 -33 795 -33 c 0
 335 -33 80 316 80 690 c 0
 80 1101 357 1407 797 1407 c 0
 883 1407 980 1392 1089 1361 c 1
 1204 1327 l 1
 1204 1006 l 1
 1081 1006 l 1
 1051 1192 l 2
 1042 1253 895 1292 807 1292 c 0
EndSplineSet
Validated: 1
EndChar

StartChar: D
Encoding: 39 68 39
Width: 1425
GlyphClass: 1
Flags: W
HStem: 0 88<66 174 426 784.007> 1276 98<66 174 426 826.787>
VStem: 219 207<98.3438 1275.66> 1114 232<415.932 960.208>
LayerCount: 2
Fore
SplineSet
1114 686 m 0
 1114 998 1008 1276 582 1276 c 2
 426 1276 l 1
 426 98 l 1
 592 100 l 1
 940 103 1114 298 1114 686 c 0
1346 690 m 0
 1346 396 1204 0 635 0 c 2
 66 0 l 1
 66 88 l 1
 174 96 l 2
 213 99 219 130 219 141 c 2
 219 1233 l 2
 219 1244 213 1275 174 1278 c 2
 66 1286 l 1
 66 1374 l 1
 594 1374 l 2
 1034 1374 1346 1153 1346 690 c 0
EndSplineSet
Validated: 1
EndChar

StartChar: E
Encoding: 40 69 40
Width: 1194
GlyphClass: 1
Flags: W
HStem: 0 100<66 172 426 981.578> 664 102<426 769.986> 1276 98<66 172 426 907.969>
VStem: 217 209<100.324 664 766 1275.66> 770 125<530.061 664 766 897.256> 791 104<485 581.939 845.744 942> 938 123<1069 1146.69> 1018 110<263.346 342>
LayerCount: 2
Fore
SplineSet
733 766 m 2xf2
 753 766 770 787 770 801 c 1xfa
 791 942 l 1
 895 942 l 1
 895 485 l 1
 791 485 l 1xf4
 770 627 l 1
 770 642 751 664 733 664 c 2
 426 664 l 1
 426 100 l 1
 944 100 l 2
 966 100 979 130 981 139 c 2
 1018 342 l 1
 1128 342 l 1
 1128 0 l 1xf9
 66 0 l 1
 66 88 l 1
 172 96 l 2
 211 99 217 130 217 141 c 2
 217 1233 l 2
 217 1244 211 1275 172 1278 c 2
 66 1286 l 1
 66 1374 l 1
 1061 1374 l 1
 1061 1069 l 1
 938 1069 l 1
 907 1237 l 2
 905 1253 892 1276 870 1276 c 2
 426 1276 l 1
 426 766 l 1
 733 766 l 2xf2
EndSplineSet
Validated: 1
EndChar

StartChar: F
Encoding: 41 70 41
Width: 1108
GlyphClass: 1
Flags: W
HStem: 0 88<68 176 469 606> 641 100<426 776.891> 1274 100<51 176 426 897.906>
VStem: 219 207<96.1624 641 741 1273.9> 795 102<461 568.897 813.348 922> 926 121<1049 1141.94>
LayerCount: 2
Fore
SplineSet
926 1049 m 1
 897 1237 l 2
 892 1262 881 1274 862 1274 c 2
 426 1274 l 1
 426 741 l 1
 739 741 l 2
 761 741 774 769 776 778 c 2
 795 922 l 1
 897 922 l 1
 897 461 l 1
 795 461 l 1
 776 604 l 2
 774 613 761 641 739 641 c 2
 426 641 l 1
 426 141 l 2
 426 116 443 99 469 96 c 1
 606 88 l 1
 606 0 l 1
 68 0 l 1
 68 88 l 1
 176 96 l 2
 214 99 219 132 219 141 c 2
 219 1233 l 2
 219 1251 208 1274 176 1278 c 1
 51 1286 l 1
 51 1374 l 1
 1047 1374 l 1
 1047 1049 l 1
 926 1049 l 1
EndSplineSet
Validated: 1
EndChar

StartChar: G
Encoding: 42 71 42
Width: 1423
GlyphClass: 1
Flags: W
HStem: -33 115<615.197 1015.65> 575 89<838 975 1268 1372> 1006 21G<1096.41 1223> 1292 115<609.925 1006.16>
VStem: 80 233<431.74 966.391> 1018 207<113 564.999> 1100 123<1006 1085.93>
LayerCount: 2
Fore
SplineSet
313 700 m 0xfa
 313 362 474 82 838 82 c 0
 899 82 975 102 990 106 c 2
 1018 113 l 1
 1018 522 l 2
 1018 548 1004 562 975 565 c 2
 838 575 l 1
 838 664 l 1
 1372 664 l 1
 1372 575 l 1
 1268 565 l 2
 1239 562 1225 548 1225 522 c 2
 1225 49 l 1xfc
 1078 -6 934 -33 795 -33 c 0
 342 -33 80 303 80 690 c 0
 80 1155 398 1407 821 1407 c 0
 912 1407 1015 1392 1129 1362 c 2
 1223 1337 l 1
 1223 1006 l 1
 1100 1006 l 1
 1067 1190 l 2
 1063 1213 1049 1229 1026 1239 c 2
 990 1254 l 2
 929 1279 870 1292 813 1292 c 0
 585 1292 313 1152 313 700 c 0xfa
EndSplineSet
Validated: 1
EndChar

StartChar: H
Encoding: 43 72 43
Width: 1522
GlyphClass: 1
Flags: W
HStem: 0 88<66 172 467 584 938 1055 1350 1456> 670 102<424 1098> 1284 90<66 172 467 584 938 1055 1350 1456>
VStem: 217 207<96.1609 670 772 1275.84> 1098 207<96.1609 670 772 1275.84>
LayerCount: 2
Fore
SplineSet
938 0 m 1
 938 88 l 1
 1055 96 l 2
 1081 98 1098 117 1098 141 c 2
 1098 670 l 1
 424 670 l 1
 424 141 l 2
 424 116 441 99 467 96 c 1
 584 88 l 1
 584 0 l 1
 66 0 l 1
 66 88 l 1
 172 96 l 2
 211 99 217 130 217 141 c 2
 217 1233 l 2
 217 1242 213 1273 172 1276 c 2
 66 1284 l 1
 66 1374 l 1
 584 1374 l 1
 584 1284 l 1
 467 1276 l 2
 428 1273 424 1242 424 1233 c 2
 424 772 l 1
 1098 772 l 1
 1098 1233 l 2
 1098 1257 1078 1274 1055 1276 c 2
 938 1284 l 1
 938 1374 l 1
 1456 1374 l 1
 1456 1284 l 1
 1350 1276 l 2
 1310 1273 1305 1242 1305 1233 c 2
 1305 141 l 2
 1305 130 1311 99 1350 96 c 2
 1456 88 l 1
 1456 0 l 1
 938 0 l 1
EndSplineSet
Validated: 1
EndChar

StartChar: I
Encoding: 44 73 44
Width: 676
GlyphClass: 1
Flags: W
HStem: 0 88<68 190 483 608> 1284 90<68 190 483 608>
VStem: 233 207<96.2071 1275.84>
LayerCount: 2
Fore
SplineSet
68 0 m 1
 68 88 l 1
 190 96 l 2
 228 99 233 132 233 141 c 2
 233 1233 l 2
 233 1267 203 1275 190 1276 c 2
 68 1284 l 1
 68 1374 l 1
 608 1374 l 1
 608 1284 l 1
 483 1276 l 2
 443 1273 440 1239 440 1233 c 2
 440 141 l 2
 440 131 446 100 483 96 c 1
 608 88 l 1
 608 0 l 1
 68 0 l 1
EndSplineSet
Validated: 1
EndChar

StartChar: J
Encoding: 45 74 45
Width: 993
GlyphClass: 1
Flags: W
HStem: -33 105<222.448 451.616> 1286 88<399 528 821 940>
VStem: 51 123<295.356 375> 571 207<224.468 1277.8>
LayerCount: 2
Fore
SplineSet
328 -33 m 0
 223 -33 81 10 51 25 c 1
 51 375 l 1
 174 375 l 1
 219 125 l 2
 226 90 258 72 313 72 c 0
 519 72 571 254 571 504 c 2
 571 1233 l 2
 571 1251 560 1274 528 1278 c 1
 399 1286 l 1
 399 1374 l 1
 940 1374 l 1
 940 1286 l 1
 821 1278 l 2
 795 1276 778 1257 778 1233 c 2
 778 518 l 2
 778 218 688 -33 328 -33 c 0
EndSplineSet
Validated: 1
EndChar

StartChar: K
Encoding: 46 75 46
Width: 1307
GlyphClass: 1
Flags: W
HStem: 0 88<66 174 469 586 1159 1307> 610 86<424 498> 1286 88<66 174 469 586 823 928 1118.15 1257>
VStem: 217 207<96.1624 610 696 1277.8>
LayerCount: 2
Fore
SplineSet
948 0 m 1
 948 63 l 1
 567 610 l 1
 424 610 l 1
 424 141 l 2
 424 130 430 99 469 96 c 2
 586 88 l 1
 586 0 l 1
 66 0 l 1
 66 88 l 1
 174 96 l 2
 212 99 217 132 217 141 c 2
 217 1233 l 2
 217 1251 206 1274 174 1278 c 1
 66 1286 l 1
 66 1374 l 1
 586 1374 l 1
 586 1286 l 1
 469 1278 l 2
 430 1275 424 1244 424 1233 c 2
 424 696 l 1
 498 696 l 1
 944 1241 l 1
 954 1255 941 1273 928 1276 c 1
 823 1286 l 1
 823 1374 l 1
 1257 1374 l 1
 1257 1286 l 1
 1233 1284 1211 1282 1192 1279 c 2
 1145 1274 l 2
 1130 1272 1121 1271 1118 1270 c 1
 700 770 l 1
 1159 98 l 1
 1307 88 l 1
 1307 0 l 1
 948 0 l 1
EndSplineSet
Validated: 1
EndChar

StartChar: L
Encoding: 47 76 47
Width: 1087
GlyphClass: 1
Flags: W
HStem: 0 100<55 174 424 898.846> 1286 88<55 174 469 578>
VStem: 217 207<100.496 1277.8> 932 119<274.132 381>
LayerCount: 2
Fore
SplineSet
55 0 m 1
 55 88 l 1
 174 96 l 2
 212 99 217 132 217 141 c 2
 217 1233 l 2
 217 1251 206 1274 174 1278 c 1
 55 1286 l 1
 55 1374 l 1
 578 1374 l 1
 578 1286 l 1
 469 1278 l 2
 430 1275 424 1244 424 1233 c 2
 424 100 l 1
 854 100 l 2
 875 100 896 119 899 135 c 2
 932 381 l 1
 1051 381 l 1
 1051 0 l 1
 55 0 l 1
EndSplineSet
Validated: 1
EndChar

StartChar: M
Encoding: 48 77 48
Width: 1794
GlyphClass: 1
Flags: W
HStem: 0 88<59 176 385 502 1214 1323 1620 1731> 1286 88<59 176 1620 1731>
VStem: 219 121<96.1624 1250.61> 1368 207<96.1609 1269.89>
LayerCount: 2
Fore
SplineSet
1214 0 m 1
 1214 88 l 1
 1323 96 l 2
 1362 99 1368 130 1368 141 c 2
 1368 1270 l 1
 897 0 l 1
 795 0 l 1
 340 1251 l 1
 340 141 l 2
 340 130 346 99 385 96 c 2
 502 88 l 1
 502 0 l 1
 59 0 l 1
 59 88 l 1
 176 96 l 2
 214 99 219 132 219 141 c 2
 219 1233 l 2
 219 1251 208 1274 176 1278 c 1
 59 1286 l 1
 59 1374 l 1
 518 1374 l 1
 518 1319 l 1
 889 313 l 1
 1260 1313 l 1
 1260 1374 l 1
 1731 1374 l 1
 1731 1286 l 1
 1620 1278 l 2
 1581 1275 1575 1244 1575 1233 c 2
 1575 141 l 2
 1575 130 1581 99 1620 96 c 2
 1731 88 l 1
 1731 0 l 1
 1214 0 l 1
EndSplineSet
Validated: 1
EndChar

StartChar: N
Encoding: 49 78 49
Width: 1477
GlyphClass: 1
Flags: W
HStem: 0 88<55 172 381 498> 1286 88<51 172 979 1096 1303 1417>
VStem: 217 121<96.1609 1147> 1139 121<293 1277.79>
LayerCount: 2
Fore
SplineSet
1303 1278 m 2
 1265 1275 1260 1242 1260 1233 c 2
 1260 0 l 1
 1100 0 l 1
 338 1147 l 1
 338 141 l 2
 338 116 355 99 381 96 c 1
 498 88 l 1
 498 0 l 1
 55 0 l 1
 55 88 l 1
 172 96 l 2
 211 99 217 130 217 141 c 2
 217 1233 l 2
 217 1244 211 1275 172 1278 c 2
 51 1286 l 1
 51 1374 l 1
 457 1374 l 1
 457 1323 l 1
 1139 293 l 1
 1139 1233 l 2
 1139 1243 1133 1274 1096 1278 c 2
 979 1286 l 1
 979 1374 l 1
 1417 1374 l 1
 1417 1286 l 1
 1303 1278 l 2
EndSplineSet
Validated: 1
EndChar

StartChar: O
Encoding: 50 79 50
Width: 1497
GlyphClass: 1
Flags: W
HStem: -33 113<568.168 927.481> 1290 117<568.819 928.507>
VStem: 80 235<415.683 956.291> 1180 237<420.455 949.427>
LayerCount: 2
Fore
SplineSet
315 688 m 0
 315 361 452 80 745 80 c 0
 1068 80 1180 401 1180 684 c 0
 1180 962 1071 1290 750 1290 c 0
 427 1290 315 975 315 688 c 0
80 688 m 0
 80 1100 347 1407 748 1407 c 0
 1149 1407 1417 1086 1417 686 c 0
 1417 289 1150 -33 750 -33 c 0
 348 -33 80 272 80 688 c 0
EndSplineSet
Validated: 1
EndChar

StartChar: P
Encoding: 51 80 51
Width: 1186
GlyphClass: 1
Flags: W
HStem: 0 88<66 174 469 604> 522 105<426 762.855> 1274 100<51 174 426 747.266>
VStem: 219 207<96.1609 522 627 1272> 893 213<767.31 1143.61>
LayerCount: 2
Fore
SplineSet
426 627 m 1
 438 627 495 616 541 616 c 0
 769 613 893 733 893 958 c 0
 893 1211 726 1274 530 1274 c 0
 504 1274 490 1273 464 1273 c 0
 452 1272 439 1272 426 1272 c 1
 426 627 l 1
1106 961 m 0
 1106 651 856 511 571 514 c 0
 545 514 515 516 482 518 c 2
 446 520 l 2
 436 521 429 521 426 522 c 1
 426 141 l 2
 426 116 443 99 469 96 c 1
 604 88 l 1
 604 0 l 1
 66 0 l 1
 66 88 l 1
 174 96 l 2
 213 99 219 130 219 141 c 2
 219 1233 l 2
 219 1244 213 1275 174 1278 c 2
 51 1286 l 1
 51 1374 l 1
 541 1374 l 2
 883 1374 1106 1291 1106 961 c 0
EndSplineSet
Validated: 33
EndChar

StartChar: Q
Encoding: 52 81 52
Width: 1513
GlyphClass: 1
Flags: W
HStem: -371 101<974.113 1346.57> -23 103<584.767 649 868 929.563> 1292 115<573.799 937.004>
VStem: 80 239<408.689 956.08> 649 219<-167.656 -21.634> 1192 242<412.685 955.069>
LayerCount: 2
Fore
SplineSet
319 690 m 0
 319 320 494 80 756 80 c 0
 1079 80 1192 405 1192 686 c 0
 1192 971 1080 1292 756 1292 c 0
 432 1292 319 981 319 690 c 0
80 686 m 0
 80 1092 350 1407 754 1407 c 0
 1162 1407 1434 1101 1434 686 c 0
 1434 293 1203 32 868 -23 c 1
 874 -227 1024 -270 1151 -270 c 0
 1231 -270 1297 -263 1348 -248 c 1
 1348 -336 l 1
 1340 -336 1211 -371 1044 -371 c 0
 752 -371 649 -233 649 -27 c 1
 298 23 80 306 80 686 c 0
EndSplineSet
Validated: 1
EndChar

StartChar: R
Encoding: 53 82 53
Width: 1329
GlyphClass: 1
Flags: W
HStem: -33 119<1151.33 1327.99> 0 88<66 172 467 575 1196.81 1329> 612 100<424 698.438> 1274 100<66 172 424 749.559>
VStem: 217 207<96.1609 608 713 1273.68> 879 223<842.865 1160.5>
LayerCount: 2
Fore
SplineSet
466 712 m 2x3c
 490 712 508 711 526 711 c 0
 804 711 879 827 879 1001 c 0
 879 1165 790 1274 518 1274 c 2
 424 1274 l 1
 424 713 l 1
 428 713 431 712 446 712 c 2
 466 712 l 2x3c
1102 1010 m 0
 1102 790 936 708 766 668 c 1
 886 639 994 580 1036 382 c 1
 1056 294 l 1
 1091 140 1173 86 1329 86 c 1
 1329 -6 l 1
 1308 -9 1254 -33 1194 -33 c 0xbc
 1036 -33 934 27 875 236 c 2
 845 343 l 2
 788 546 683 612 516 612 c 0
 461 612 442 608 424 608 c 1
 424 141 l 2
 424 116 441 99 467 96 c 1
 575 88 l 1
 575 0 l 1
 66 0 l 1
 66 88 l 1x7c
 172 96 l 2
 211 99 217 130 217 141 c 2
 217 1233 l 2
 217 1244 211 1275 172 1278 c 2
 66 1286 l 1
 66 1374 l 1
 600 1374 l 2
 878 1374 1102 1301 1102 1010 c 0
EndSplineSet
Validated: 1
EndChar

StartChar: S
Encoding: 54 83 54
Width: 1067
GlyphClass: 1
Flags: W
HStem: -33 115<274.483 658.356> 1296 111<416.233 757.922>
VStem: 80 129<282.817 406> 102 211<930.385 1185.2> 778 209<202.689 441.955> 819 117<1018 1108.64>
LayerCount: 2
Fore
SplineSet
578 1296 m 0xd4
 404 1296 313 1186 313 1055 c 0xd4
 313 910 443 847 594 786 c 1
 706 739 l 1
 938 639 987 508 987 385 c 0
 987 210 868 -33 444 -33 c 0
 307 -33 186 -8 80 43 c 1
 80 406 l 1
 209 406 l 1
 236 174 l 1
 248 98 429 82 477 82 c 0
 662 82 778 179 778 324 c 0xe8
 778 421 698 507 537 581 c 1
 418 637 l 2
 275 705 102 785 102 1006 c 0
 102 1252 305 1407 575 1407 c 0
 667 1407 763 1391 864 1360 c 2
 936 1337 l 1
 936 1018 l 1
 819 1018 l 1
 788 1214 l 1
 778 1263 670 1296 578 1296 c 0xd4
EndSplineSet
Validated: 1
EndChar

StartChar: T
Encoding: 55 84 55
Width: 1227
GlyphClass: 1
Flags: W
HStem: 0 88<336 467 760 891> 1047 327<33 152 1073 1194> 1274 100<178.688 510 717 1045.36>
VStem: 33 119<1047 1145.3> 510 207<96.1624 1274> 1073 121<1047 1141.91>
LayerCount: 2
Fore
SplineSet
1073 1047 m 1xdc
 1044 1239 l 1
 1039 1262 1028 1274 1010 1274 c 2
 717 1274 l 1
 717 141 l 2
 717 116 734 99 760 96 c 1
 891 88 l 1
 891 0 l 1
 336 0 l 1
 336 88 l 1
 467 96 l 2
 505 99 510 132 510 141 c 2
 510 1274 l 1
 215 1274 l 2xbc
 187 1274 181 1247 180 1239 c 2
 152 1047 l 1
 33 1047 l 1
 33 1374 l 1
 1194 1374 l 1
 1194 1047 l 1
 1073 1047 l 1xdc
EndSplineSet
Validated: 1
EndChar

StartChar: U
Encoding: 56 85 56
Width: 1458
GlyphClass: 1
Flags: W
HStem: -33 137<569.112 963.846> 1286 88<63 172 467 584 958 1075 1284 1403>
VStem: 215 209<253.194 1277.8> 1120 121<270.75 1277.84>
LayerCount: 2
Fore
SplineSet
424 508 m 2
 424 235 510 104 770 104 c 0
 980 104 1120 196 1120 508 c 2
 1120 1233 l 2
 1120 1244 1114 1275 1075 1278 c 2
 958 1286 l 1
 958 1374 l 1
 1403 1374 l 1
 1403 1286 l 1
 1284 1278 l 2
 1246 1275 1241 1242 1241 1233 c 2
 1241 455 l 2
 1241 199 1136 -33 715 -33 c 0
 382 -33 215 130 215 455 c 2
 215 1233 l 2
 215 1251 204 1274 172 1278 c 1
 63 1286 l 1
 63 1374 l 1
 584 1374 l 1
 584 1286 l 1
 467 1278 l 2
 429 1275 424 1242 424 1233 c 2
 424 508 l 2
EndSplineSet
Validated: 1
EndChar

StartChar: V
Encoding: 57 86 57
Width: 1364
GlyphClass: 1
Flags: W
HStem: 1286 88<20 106.733 389 510 936 1049 1266.11 1343>
LayerCount: 2
Fore
SplineSet
1225 1264 m 1
 766 -33 l 1
 610 -33 l 1
 141 1266 l 1
 20 1286 l 1
 20 1374 l 1
 510 1374 l 1
 510 1286 l 1
 389 1276 l 1
 374 1273 367 1250 371 1239 c 2
 731 227 l 1
 1077 1235 l 2
 1083 1252 1065 1273 1049 1276 c 1
 936 1286 l 1
 936 1374 l 1
 1343 1374 l 1
 1343 1286 l 1
 1225 1264 l 1
EndSplineSet
Validated: 1
EndChar

StartChar: W
Encoding: 58 87 58
Width: 1907
GlyphClass: 1
Flags: W
HStem: 1286 88<20 91.0827 367 489 1468 1597 1811.33 1886>
LayerCount: 2
Fore
SplineSet
1761 1262 m 1
 1448 -33 l 1
 1298 -33 l 1
 956 1102 l 1
 621 -33 l 1
 473 -33 l 1
 139 1262 l 1
 20 1286 l 1
 20 1374 l 1
 489 1374 l 1
 489 1286 l 1
 367 1274 l 2
 346 1271 343 1249 346 1233 c 2
 590 309 l 1
 911 1374 l 1
 1069 1374 l 1
 1399 276 l 1
 1626 1233 l 2
 1630 1253 1617 1271 1597 1274 c 2
 1468 1286 l 1
 1468 1374 l 1
 1886 1374 l 1
 1886 1286 l 1
 1761 1262 l 1
EndSplineSet
Validated: 1
EndChar

StartChar: X
Encoding: 59 88 59
Width: 1298
GlyphClass: 1
Flags: W
HStem: 0 88<20 90.5331 332 455 752 870 1205.17 1278> 1286 88<47 127.64 457 561 831 936 1165.38 1260>
LayerCount: 2
Fore
SplineSet
752 0 m 1
 752 88 l 1
 870 100 l 2
 889 102 908 120 895 143 c 1
 623 571 l 1
 307 137 l 1
 292 120 305 100 332 98 c 2
 455 88 l 1
 455 0 l 1
 20 0 l 1
 20 88 l 1
 143 113 l 1
 555 678 l 1
 182 1262 l 1
 47 1286 l 1
 47 1374 l 1
 561 1374 l 1
 561 1286 l 1
 457 1276 l 2
 429 1273 418 1253 432 1235 c 1
 682 850 l 1
 958 1229 l 1
 972 1254 954 1270 936 1272 c 2
 831 1286 l 1
 831 1374 l 1
 1260 1374 l 1
 1260 1286 l 1
 1128 1266 l 1
 748 743 l 1
 1151 113 l 1
 1278 88 l 1
 1278 0 l 1
 752 0 l 1
EndSplineSet
Validated: 1
EndChar

StartChar: Y
Encoding: 60 89 60
Width: 1282
GlyphClass: 1
Flags: W
HStem: 0 88<360 487 782 913> 1286 88<20 91.0827 403 506 846 961 1182.44 1262>
VStem: 532 207<96.2071 553>
LayerCount: 2
Fore
SplineSet
1151 1266 m 1
 739 584 l 1
 739 141 l 2
 739 131 745 100 782 96 c 1
 913 88 l 1
 913 0 l 1
 360 0 l 1
 360 88 l 1
 487 96 l 2
 526 99 532 130 532 141 c 2
 532 553 l 1
 139 1262 l 1
 20 1286 l 1
 20 1374 l 1
 506 1374 l 1
 506 1286 l 1
 403 1276 l 1
 376 1272 368 1253 379 1235 c 1
 668 700 l 1
 985 1229 l 2
 998 1251 980 1270 961 1272 c 2
 846 1286 l 1
 846 1374 l 1
 1262 1374 l 1
 1262 1286 l 1
 1151 1266 l 1
EndSplineSet
Validated: 1
EndChar

StartChar: Z
Encoding: 61 90 61
Width: 1178
GlyphClass: 1
Flags: W
HStem: 0 104<324 943.094> 1272 102<272.594 842>
VStem: 123 121<1047 1137.79> 977 121<281.515 379>
LayerCount: 2
Fore
SplineSet
80 0 m 1
 80 90 l 1
 842 1272 l 1
 309 1272 l 2
 292 1272 280 1260 274 1237 c 1
 244 1047 l 1
 123 1047 l 1
 123 1374 l 1
 1087 1374 l 1
 1087 1280 l 1
 324 104 l 1
 907 104 l 2
 926 104 937 116 942 141 c 1
 977 379 l 1
 1098 379 l 1
 1098 0 l 1
 80 0 l 1
EndSplineSet
Validated: 1
EndChar

StartChar: bracketleft
Encoding: 62 91 62
Width: 866
GlyphClass: 1
Flags: W
HStem: -270 94<457 776> 1358 92<457 776>
VStem: 279 178<-176 1358>
LayerCount: 2
Fore
SplineSet
279 -270 m 1
 279 1450 l 1
 776 1450 l 1
 776 1358 l 1
 457 1358 l 1
 457 -176 l 1
 776 -176 l 1
 776 -270 l 1
 279 -270 l 1
EndSplineSet
Validated: 1
EndChar

StartChar: backslash
Encoding: 63 92 63
Width: 1001
GlyphClass: 1
Flags: W
HStem: 1354 20G<0 142.125>
LayerCount: 2
Fore
SplineSet
870 -190 m 1
 0 1374 l 1
 131 1374 l 1
 1001 -190 l 1
 870 -190 l 1
EndSplineSet
Validated: 1
EndChar

StartChar: bracketright
Encoding: 64 93 64
Width: 866
GlyphClass: 1
Flags: W
HStem: -270 94<90 412> 1358 92<90 412>
VStem: 412 178<-176 1358>
LayerCount: 2
Fore
SplineSet
90 -270 m 1
 90 -176 l 1
 412 -176 l 1
 412 1358 l 1
 90 1358 l 1
 90 1450 l 1
 590 1450 l 1
 590 -270 l 1
 90 -270 l 1
EndSplineSet
Validated: 1
EndChar

StartChar: asciicircum
Encoding: 65 94 65
Width: 670
GlyphClass: 1
Flags: W
HStem: 1128 347
VStem: 0 670
LayerCount: 2
Fore
SplineSet
547 1128 m 1
 336 1331 l 1
 123 1128 l 1
 0 1128 l 1
 258 1475 l 1
 412 1475 l 1
 670 1128 l 1
 547 1128 l 1
EndSplineSet
Validated: 1
EndChar

StartChar: underscore
Encoding: 66 95 66
Width: 686
GlyphClass: 1
Flags: W
HStem: -305 130<0 686>
LayerCount: 2
Fore
SplineSet
0 -305 m 1
 0 -175 l 1
 686 -175 l 1
 686 -305 l 1
 0 -305 l 1
EndSplineSet
Validated: 1
EndChar

StartChar: grave
Encoding: 67 96 67
Width: 717
GlyphClass: 1
Flags: W
HStem: 1128 373
VStem: 0 475
LayerCount: 2
Fore
SplineSet
0 1409 m 0
 0 1446 19 1501 94 1501 c 0
 167 1501 190 1459 201 1446 c 2
 475 1128 l 1
 358 1128 l 1
 47 1327 l 2
 16 1347 0 1374 0 1409 c 0
EndSplineSet
Validated: 1
EndChar

StartChar: a
Encoding: 68 97 68
Width: 1042
GlyphClass: 1
Flags: W
HStem: -25 121<322.15 508.566> 0 80<909 1008> 547 78<560.286 678> 915 97<343.74 621.807>
VStem: 70 202<146.175 387.434> 117 225<714.283 885.167> 678 188<167.087 547 619.613 857.907>
LayerCount: 2
Fore
SplineSet
272 266 m 0xba
 272 185 323 96 426 96 c 0
 516 96 625 158 678 193 c 1
 678 547 l 1
 335 459 272 384 272 266 c 0xba
117 770 m 0xb6
 117 915 295 1012 543 1012 c 0
 759 1012 866 920 866 705 c 2
 866 131 l 2
 866 122 870 92 909 86 c 1
 1008 80 l 1
 1008 0 l 1
 705 0 l 1x76
 678 121 l 1
 622 78 473 -25 336 -25 c 0
 205 -25 70 59 70 252 c 0xba
 70 400 140 510 678 625 c 1
 678 713 l 2
 678 875 591 915 487 915 c 0
 434 915 385 906 342 889 c 1
 342 711 l 1
 193 711 l 2
 142 711 117 731 117 770 c 0xb6
EndSplineSet
Validated: 1
EndChar

StartChar: b
Encoding: 69 98 69
Width: 1137
GlyphClass: 1
Flags: W
HStem: 0 96<375.516 690.629> 891 121<447.082 708.686> 1362 68<29 76.9076> 1489 20G<226.165 375>
VStem: 184 191<96.325 871.656 936 1362> 858 209<305.672 728.66>
LayerCount: 2
Fore
SplineSet
1067 541 m 0
 1067 293 947 0 479 0 c 2
 184 0 l 1
 184 1362 l 1
 29 1362 l 1
 29 1430 l 1
 293 1509 l 1
 375 1509 l 1
 375 936 l 1
 422 957 l 2
 504 994 582 1012 657 1012 c 0
 932 1012 1067 785 1067 541 c 0
858 500 m 0
 858 723 770 891 545 891 c 0
 498 891 441 880 375 858 c 1
 375 98 l 1
 386 97 398 97 410 97 c 0
 420 96 431 96 442 96 c 2
 475 96 l 2
 781 96 858 273 858 500 c 0
EndSplineSet
Validated: 1
EndChar

StartChar: c
Encoding: 70 99 70
Width: 954
GlyphClass: 1
Flags: W
HStem: -25 129<450.481 764.937> 926 86<435.952 652.577>
VStem: 70 209<300.045 721.383> 657 224<711.028 917.644>
LayerCount: 2
Fore
SplineSet
279 514 m 0
 279 354 347 104 618 104 c 0
 707 104 796 134 885 193 c 1
 885 76 l 1
 812 40 l 1
 723 -3 631 -25 539 -25 c 0
 258 -25 70 184 70 487 c 0
 70 821 291 1012 563 1012 c 0
 760 1012 881 930 881 807 c 0
 881 730 825 686 760 686 c 0
 728 686 694 698 657 721 c 1
 657 899 l 1
 626 917 597 926 571 926 c 0
 396 926 279 765 279 514 c 0
EndSplineSet
Validated: 1
EndChar

StartChar: d
Encoding: 71 100 71
Width: 1155
GlyphClass: 1
Flags: W
HStem: -25 140<423.3 637.208> 0 80<1014 1102> 913 99<441.266 776.911> 1362 68<625 672.908> 1489 20G<822.165 971>
VStem: 70 202<281.705 698.875> 780 191<85.9062 109 161.995 895.415 987 1362>
LayerCount: 2
Fore
SplineSet
272 502 m 0xbe
 272 264 391 115 569 115 c 0
 631 115 701 139 780 186 c 1
 780 883 l 1
 715 903 657 913 606 913 c 0
 406 913 272 757 272 502 c 0xbe
70 467 m 0
 70 752 247 1012 592 1012 c 0
 651 1012 713 1004 780 987 c 1
 780 1362 l 1
 625 1362 l 1
 625 1430 l 1
 889 1509 l 1
 971 1509 l 1
 971 131 l 2
 971 104 985 89 1014 86 c 1
 1102 80 l 1
 1102 0 l 1
 780 0 l 1x7e
 780 109 l 1
 664 20 558 -25 463 -25 c 0
 188 -25 70 233 70 467 c 0
EndSplineSet
Validated: 1
EndChar

StartChar: e
Encoding: 72 101 72
Width: 1004
GlyphClass: 1
Flags: W
HStem: -25 125<439.245 771.941> 535 92<279 729> 911 101<395.321 657.147>
VStem: 70 198<302.099 535 627 719.306> 729 205<627 811.985>
LayerCount: 2
Fore
SplineSet
268 535 m 1
 268 342 336 100 610 100 c 0
 697 100 805 142 934 227 c 1
 934 102 l 1
 799 17 670 -25 545 -25 c 0
 282 -25 70 156 70 483 c 0
 70 795 261 1012 551 1012 c 0
 857 1012 934 771 934 592 c 2
 934 565 l 2
 934 554 933 544 932 535 c 1
 268 535 l 1
729 672 m 2
 729 775 689 911 530 911 c 0
 379 911 289 787 279 627 c 1
 729 627 l 1
 729 672 l 2
EndSplineSet
Validated: 1
EndChar

StartChar: f
Encoding: 73 102 73
Width: 668
GlyphClass: 1
Flags: W
HStem: 0 80<59 160 394.639 557> 866 105<393 647> 866 72<72 122.757> 1489 20G<537.5 674>
VStem: 203 190<86.2987 866 975 1225.92>
LayerCount: 2
Fore
SplineSet
203 975 m 1xb8
 203 1372 454 1509 621 1509 c 0
 727 1509 797 1460 797 1386 c 0
 797 1317 737 1282 702 1276 c 1
 701 1277 696 1281 686 1288 c 2
 529 1398 l 2
 520 1404 515 1408 514 1409 c 0
 433 1365 393 1263 393 1102 c 2
 393 971 l 1
 647 971 l 1
 647 866 l 1
 393 866 l 1xd8
 393 131 l 2
 393 122 397 92 436 86 c 1
 557 80 l 1
 557 0 l 1
 59 0 l 1
 59 80 l 1
 160 86 l 1
 192 91 203 114 203 131 c 2
 203 866 l 1
 72 866 l 1
 72 938 l 1
 203 975 l 1xb8
EndSplineSet
Validated: 1
EndChar

StartChar: g
Encoding: 74 103 74
Width: 1075
GlyphClass: 1
Flags: W
HStem: -469 94<365.519 689.507> 850 100<836 1040> 928 84<394.887 615.232>
VStem: 70 184<-266.003 -29.5379> 115 196<507.292 836.05> 696 195<511.155 830.385> 811 176<-223.897 -40.4638>
LayerCount: 2
Fore
SplineSet
254 -137 m 0x92
 254 -224 330 -375 522 -375 c 0
 723 -375 811 -234 811 -137 c 0
 811 -69 765 4 568 32 c 1
 481 44 l 2
 448 48 425 52 410 55 c 1
 300 16 254 -60 254 -137 c 0x92
311 676 m 0xac
 311 537 379 426 506 426 c 0
 630 426 696 540 696 678 c 0
 696 811 628 928 506 928 c 0
 386 928 311 829 311 676 c 0xac
369 356 m 1
 259 382 115 473 115 664 c 0
 115 884 284 1012 526 1012 c 0xa8
 588 1012 652 998 718 970 c 2
 764 950 l 1
 1040 950 l 1
 1040 850 l 1
 836 850 l 1
 873 791 891 730 891 666 c 0xcc
 891 466 702 324 449 342 c 1
 419 291 427 206 432 205 c 2
 537 194 l 2
 837 163 987 71 987 -82 c 0
 987 -272 756 -469 455 -469 c 0
 208 -469 70 -345 70 -178 c 0xd2
 70 20 241 62 287 70 c 1
 277 96 l 2
 270 115 266 138 266 164 c 0
 266 222 300 286 369 356 c 1
EndSplineSet
Validated: 33
EndChar

StartChar: h
Encoding: 75 104 75
Width: 1176
GlyphClass: 1
Flags: W
HStem: 0 80<43 141 416 504 672 756 1036 1128> 862 150<537.248 742.917> 1362 68<31 78.5447> 1489 20G<226.671 375>
VStem: 184 191<85.9062 824.405 885 1362> 801 190<86.0006 805.1>
LayerCount: 2
Fore
SplineSet
375 885 m 1
 427 916 595 1012 713 1012 c 0
 829 1012 991 950 991 702 c 2
 991 131 l 2
 991 104 1014 88 1036 86 c 1
 1128 80 l 1
 1128 0 l 1
 672 0 l 1
 672 80 l 1
 756 86 l 2
 778 88 801 104 801 131 c 2
 801 659 l 2
 801 821 710 862 598 862 c 0
 521 862 447 842 375 803 c 1
 375 131 l 2
 375 95 405 87 416 86 c 2
 504 80 l 1
 504 0 l 1
 43 0 l 1
 43 80 l 1
 141 86 l 1
 170 89 184 104 184 131 c 2
 184 1362 l 1
 31 1362 l 1
 31 1430 l 1
 293 1509 l 1
 375 1509 l 1
 375 885 l 1
EndSplineSet
Validated: 1
EndChar

StartChar: i
Encoding: 76 105 76
Width: 621
GlyphClass: 1
Flags: W
HStem: 0 80<70 170 446 551> 862 72<72 117.949> 992 20G<257.897 403> 1198 252<226.29 416.236>
VStem: 195 251<1228.34 1419.51> 213 190<86.2987 862>
LayerCount: 2
Fore
SplineSet
70 0 m 1xf8
 70 80 l 1
 170 86 l 1
 199 89 213 104 213 131 c 2
 213 862 l 1
 72 862 l 1
 72 934 l 1
 322 1012 l 1
 403 1012 l 1
 403 131 l 2xf4
 403 122 407 92 446 86 c 1
 551 80 l 1
 551 0 l 1
 70 0 l 1xf8
195 1325 m 0xf8
 195 1388 244 1450 322 1450 c 256
 398 1450 446 1391 446 1325 c 0
 446 1247 386 1198 322 1198 c 0
 247 1198 195 1259 195 1325 c 0xf8
EndSplineSet
Validated: 1
EndChar

StartChar: j
Encoding: 77 106 77
Width: 598
GlyphClass: 1
Flags: W
HStem: 866 68<78 124.316> 992 20G<265.385 414> 1198 252<215.307 406.667>
VStem: 184 252<1228.24 1419.83> 223 191<-200.511 866>
LayerCount: 2
Fore
SplineSet
-6 -469 m 0xe8
 -71 -469 -162 -446 -162 -356 c 0
 -162 -285 -113 -252 -74 -238 c 1
 125 -375 l 1
 190 -338 223 -227 223 -43 c 2
 223 866 l 1
 78 866 l 1
 78 934 l 1
 330 1012 l 1
 414 1012 l 1
 414 131 l 2
 414 -123 372 -277 244 -381 c 0
 147 -460 38 -469 -6 -469 c 0xe8
184 1325 m 0xf0
 184 1401 246 1450 311 1450 c 256
 389 1450 436 1389 436 1325 c 0
 436 1246 373 1198 311 1198 c 0
 248 1198 184 1247 184 1325 c 0xf0
EndSplineSet
Validated: 1
EndChar

StartChar: k
Encoding: 78 107 78
Width: 1094
GlyphClass: 1
Flags: W
HStem: 0 80<41 141 418 506 965 1073> 465 59<375 416> 907 80<616 700 883 1014> 1362 68<29 76.5447> 1489 20G<224.671 375>
VStem: 184 191<85.9062 465 524 1362>
LayerCount: 2
Fore
SplineSet
745 0 m 1
 745 80 l 1
 489 465 l 1
 375 465 l 1
 375 131 l 2
 375 104 389 89 418 86 c 1
 506 80 l 1
 506 0 l 1
 41 0 l 1
 41 80 l 1
 141 86 l 1
 170 89 184 104 184 131 c 2
 184 1362 l 1
 29 1362 l 1
 29 1430 l 1
 291 1509 l 1
 375 1509 l 1
 375 524 l 1
 416 524 l 1
 717 864 l 2
 720 868 722 873 722 877 c 0
 722 887 713 897 700 899 c 2
 616 907 l 1
 616 987 l 1
 1014 987 l 1
 1014 907 l 1
 883 893 l 1
 612 604 l 1
 965 92 l 1
 1073 80 l 1
 1073 0 l 1
 745 0 l 1
EndSplineSet
Validated: 1
EndChar

StartChar: l
Encoding: 79 108 79
Width: 608
GlyphClass: 1
Flags: W
HStem: 0 86<55 209 399 553> 1362 68<53 100.545> 1489 20G<248.671 399>
VStem: 209 190<86.0182 1362>
LayerCount: 2
Fore
SplineSet
164 86 m 1
 185 86 209 111 209 129 c 2
 209 1362 l 1
 53 1362 l 1
 53 1430 l 1
 315 1509 l 1
 399 1509 l 1
 399 129 l 2
 399 107 425 86 442 86 c 2
 553 80 l 1
 553 0 l 1
 55 0 l 1
 55 80 l 1
 164 86 l 1
EndSplineSet
Validated: 1
EndChar

StartChar: m
Encoding: 80 109 80
Width: 1741
GlyphClass: 1
Flags: W
HStem: 0 80<41 141 418 504 645 731 1008 1094 1237 1323 1597 1696> 842 67<43 88.5811> 862 150<530.954 722.328 1118.2 1311.08> 967 20G<227.41 375>
VStem: 184 191<85.9062 823.161> 774 191<85.9062 811.902> 1366 188<86.2987 808.234>
LayerCount: 2
Fore
SplineSet
709 1012 m 0xae
 844 1012 911 916 934 870 c 1
 1009 914 l 2
 1011 915 1178 1012 1290 1012 c 0
 1501 1012 1554 843 1554 698 c 2
 1554 131 l 2
 1554 122 1558 92 1597 86 c 1
 1696 80 l 1
 1696 0 l 1
 1237 0 l 1
 1237 80 l 1
 1323 86 l 1
 1352 89 1366 104 1366 131 c 2
 1366 653 l 2
 1366 811 1293 862 1184 862 c 0
 1114 862 1041 843 965 805 c 1
 965 131 l 2
 965 104 979 89 1008 86 c 1
 1094 80 l 1
 1094 0 l 1
 645 0 l 1
 645 80 l 1
 731 86 l 1
 760 89 774 104 774 131 c 2
 774 666 l 2
 774 797 714 862 594 862 c 0xae
 506 862 416 826 375 803 c 1
 375 131 l 2
 375 104 389 89 418 86 c 1
 504 80 l 1
 504 0 l 1
 41 0 l 1
 41 80 l 1
 141 86 l 1
 170 89 184 104 184 131 c 2
 184 842 l 1
 43 842 l 1
 43 909 l 1
 291 987 l 1
 375 987 l 1xde
 375 885 l 1
 512 970 624 1012 709 1012 c 0xae
EndSplineSet
Validated: 1
EndChar

StartChar: n
Encoding: 81 110 81
Width: 1161
GlyphClass: 1
Flags: W
HStem: 0 80<41 141 418 504 668 754 1030 1120> 842 67<41 86.9487> 862 150<539.591 744.235> 967 20G<226.897 375>
VStem: 184 191<85.9062 822.927> 797 190<86.2987 808.656>
LayerCount: 2
Fore
SplineSet
797 664 m 2xac
 797 776 758 862 600 862 c 0xac
 529 862 454 842 375 803 c 1
 375 131 l 2
 375 104 389 89 418 86 c 1
 504 80 l 1
 504 0 l 1
 41 0 l 1
 41 80 l 1
 141 86 l 1
 170 89 184 104 184 131 c 2
 184 842 l 1
 41 842 l 1
 41 909 l 1
 291 987 l 1
 375 987 l 1xdc
 375 885 l 1
 462 932 l 1
 565 985 649 1012 713 1012 c 0
 932 1012 987 846 987 696 c 2
 987 131 l 2
 987 122 991 92 1030 86 c 1
 1120 80 l 1
 1120 0 l 1
 668 0 l 1
 668 80 l 1
 754 86 l 1
 786 91 797 114 797 131 c 2
 797 664 l 2xac
EndSplineSet
Validated: 1
EndChar

StartChar: o
Encoding: 82 111 82
Width: 1114
GlyphClass: 1
Flags: W
HStem: -25 93<426.807 688.532> 920 92<428.123 688.961>
VStem: 70 215<256.424 724.734> 831 213<261.123 726.422>
LayerCount: 2
Fore
SplineSet
285 494 m 0
 285 238 394 68 557 68 c 0
 776 68 831 331 831 494 c 0
 831 756 722 920 559 920 c 0
 345 920 285 674 285 494 c 0
70 492 m 0
 70 795 266 1012 561 1012 c 256
 851 1012 1044 799 1044 492 c 0
 1044 190 848 -25 555 -25 c 0
 264 -25 70 183 70 492 c 0
EndSplineSet
Validated: 1
EndChar

StartChar: p
Encoding: 83 112 83
Width: 1145
GlyphClass: 1
Flags: W
HStem: -446 79<43 141 420 541> -25 95<377.857 701.783> 842 67<43 89.3163> 868 144<507.528 726.207> 967 20G<230.385 375>
VStem: 184 191<-353.999 -6 87.4011 827.854> 870 205<265.471 694.837>
LayerCount: 2
Fore
SplineSet
870 479 m 0xd6
 870 621 813 868 584 868 c 0
 521 868 452 848 375 807 c 1
 375 102 l 1
 432 81 487 70 541 70 c 0
 772 70 870 276 870 479 c 0xd6
375 885 m 1
 441 938 560 1012 684 1012 c 0xd6
 919 1012 1075 788 1075 508 c 0
 1075 180 879 -25 557 -25 c 0
 501 -25 440 -19 375 -6 c 1
 375 -311 l 2
 375 -336 390 -351 420 -354 c 2
 541 -367 l 1
 541 -446 l 1
 43 -446 l 1
 43 -367 l 1
 141 -354 l 2
 170 -351 184 -336 184 -311 c 2
 184 842 l 1
 43 842 l 1
 43 909 l 1
 295 987 l 1
 375 987 l 1xee
 375 885 l 1
EndSplineSet
Validated: 1
EndChar

StartChar: q
Encoding: 84 113 84
Width: 1124
GlyphClass: 1
Flags: W
HStem: -446 77<598 719 995 1094> -25 121<431.672 677.54> 918 94<446.35 760.197>
VStem: 70 206<273.565 703.535> 762 190<-358.172 55 113.834 895>
LayerCount: 2
Fore
SplineSet
276 502 m 0
 276 337 338 96 586 96 c 0
 637 96 696 106 762 125 c 1
 762 895 l 1
 720 904 l 2
 681 913 660 918 621 918 c 0
 384 918 276 737 276 502 c 0
70 469 m 0
 70 826 312 1012 662 1012 c 0
 755 1012 851 1001 952 979 c 1
 952 -315 l 2
 952 -339 966 -353 995 -358 c 1
 1094 -369 l 1
 1094 -446 l 1
 598 -446 l 1
 598 -369 l 1
 719 -358 l 2
 728 -357 762 -349 762 -315 c 2
 762 55 l 1
 699 25 573 -25 475 -25 c 0
 232 -25 70 182 70 469 c 0
EndSplineSet
Validated: 1
EndChar

StartChar: r
Encoding: 85 114 85
Width: 801
GlyphClass: 1
Flags: W
HStem: 0 78<51 152 386.741 563> 778 203<656.969 780> 834 178<547.948 688.756> 842 67<47 93.6839> 967 20G<235.872 385>
VStem: 195 190<86.2475 753.483 805 842>
LayerCount: 2
Fore
SplineSet
655 1012 m 0xa4
 697 1012 739 1002 780 981 c 1
 780 778 l 1
 700 778 l 1xc4
 667 815 631 834 590 834 c 0xa4
 528 834 460 792 385 707 c 1
 385 131 l 2
 385 104 399 89 428 86 c 1
 563 80 l 1
 563 0 l 1
 51 0 l 1
 51 78 l 1
 152 86 l 1
 184 91 195 114 195 131 c 2
 195 842 l 1
 47 842 l 1
 47 909 l 1
 301 987 l 1
 385 987 l 1x9c
 385 805 l 1
 438 864 l 2
 525 962 598 1012 655 1012 c 0xa4
EndSplineSet
Validated: 1
EndChar

StartChar: s
Encoding: 86 115 86
Width: 815
GlyphClass: 1
Flags: W
HStem: -25 93<220.259 512.678> 723 242<608 715> 913 99<306.624 588.763>
VStem: 70 104<199.221 299> 84 186<673.075 876.197> 565 180<127.565 335.998> 608 107<723 851.128>
LayerCount: 2
Fore
SplineSet
453 1012 m 0xac
 558 1012 669 987 715 965 c 1
 715 723 l 1
 608 723 l 1xca
 592 866 l 1
 574 880 517 913 436 913 c 0
 295 913 270 829 270 776 c 0xaa
 270 551 745 587 745 297 c 0
 745 70 566 -25 354 -25 c 0
 251 -25 157 -8 70 27 c 1
 70 299 l 1
 174 299 l 1xb4
 199 125 l 1
 258 87 318 68 381 68 c 0
 509 68 565 155 565 227 c 0
 565 301 526 351 420 403 c 2
 315 455 l 1
 136 542 84 611 84 715 c 0
 84 922 247 1012 453 1012 c 0xac
EndSplineSet
Validated: 1
EndChar

StartChar: t
Encoding: 87 116 87
Width: 696
GlyphClass: 1
Flags: W
HStem: -25 115<326.5 629.886> 885 102<377 666>
VStem: 186 191<139.359 885>
LayerCount: 2
Fore
SplineSet
377 313 m 2
 377 185 410 90 541 90 c 0
 591 90 638 102 682 125 c 1
 682 43 l 1
 591 -2 499 -25 406 -25 c 0
 247 -25 186 49 186 205 c 2
 186 885 l 1
 55 885 l 1
 55 952 l 1
 195 1018 l 1
 287 1235 l 1
 377 1235 l 1
 377 987 l 1
 666 987 l 1
 666 885 l 1
 377 885 l 1
 377 313 l 2
EndSplineSet
Validated: 1
EndChar

StartChar: u
Encoding: 88 117 88
Width: 1165
GlyphClass: 1
Flags: W
HStem: -25 140<438.509 643.204> 0 80<1032 1122> 862 70<43 88.1584 653 697.8> 992 20G<232 377 840.5 987>
VStem: 186 191<178.996 862> 797 190<86.0006 117 155.146 862>
LayerCount: 2
Fore
SplineSet
377 346 m 2xbc
 377 219 417 115 575 115 c 0xbc
 642 115 716 135 797 176 c 1
 797 862 l 1
 653 862 l 1
 653 932 l 1
 903 1012 l 1
 987 1012 l 1
 987 131 l 2
 987 104 1010 88 1032 86 c 2
 1122 80 l 1
 1122 0 l 1
 797 0 l 1x7c
 797 117 l 1
 674 22 564 -25 469 -25 c 0
 299 -25 186 68 186 307 c 2
 186 862 l 1
 43 862 l 1
 43 932 l 1
 295 1012 l 1
 377 1012 l 1
 377 346 l 2xbc
EndSplineSet
Validated: 1
EndChar

StartChar: v
Encoding: 89 118 89
Width: 1083
GlyphClass: 1
Flags: W
HStem: 0 21G<455.626 604> 907 80<20 133 375 473 705 797 954 1063>
LayerCount: 2
Fore
SplineSet
954 895 m 1
 596 0 l 1
 463 0 l 1
 133 895 l 1
 20 907 l 1
 20 987 l 1
 473 987 l 1
 473 907 l 1
 375 901 l 1
 354 899 335 880 344 856 c 2
 573 215 l 1
 825 856 l 2
 835 880 818 898 797 901 c 1
 705 907 l 1
 705 987 l 1
 1063 987 l 1
 1063 907 l 1
 954 895 l 1
EndSplineSet
Validated: 1
EndChar

StartChar: w
Encoding: 90 119 90
Width: 1604
GlyphClass: 1
Flags: W
HStem: 0 21G<389.145 548.05 1046.68 1204.28> 907 80<20 133 373 469 1225 1319 1479 1583>
LayerCount: 2
Fore
SplineSet
1479 895 m 1
 1198 0 l 1
 1053 0 l 1
 811 766 l 1
 541 0 l 1
 395 0 l 1
 133 895 l 1
 20 907 l 1
 20 987 l 1
 469 987 l 1
 469 907 l 1
 373 901 l 1
 351 898 335 881 342 856 c 2
 512 219 l 1
 776 987 l 1
 922 987 l 1
 1159 219 l 1
 1348 856 l 2
 1355 880 1341 898 1319 901 c 1
 1225 907 l 1
 1225 987 l 1
 1583 987 l 1
 1583 907 l 1
 1479 895 l 1
EndSplineSet
Validated: 1
EndChar

StartChar: x
Encoding: 91 120 91
Width: 1044
GlyphClass: 1
Flags: W
HStem: 0 80<20 124.832 307 410 584 653 924.544 1024> 907 80<31 127.37 410 481 627 715 907.391 995>
LayerCount: 2
Fore
SplineSet
584 0 m 1
 584 80 l 1
 653 88 l 2
 671 91 680 109 672 125 c 1
 496 387 l 1
 295 125 l 1
 286 117 285 91 307 88 c 1
 410 80 l 1
 410 0 l 1
 20 0 l 1
 20 80 l 1
 137 96 l 1
 430 477 l 1
 152 889 l 1
 31 907 l 1
 31 987 l 1
 481 987 l 1
 481 907 l 1
 410 897 l 2
 394 895 380 878 389 860 c 1
 551 631 l 1
 729 860 l 1
 738 869 738 894 715 897 c 2
 627 907 l 1
 627 987 l 1
 995 987 l 1
 995 907 l 1
 885 889 l 1
 610 539 l 1
 913 96 l 1
 1024 80 l 1
 1024 0 l 1
 584 0 l 1
EndSplineSet
Validated: 1
EndChar

StartChar: y
Encoding: 92 121 92
Width: 1085
GlyphClass: 1
Flags: W
HStem: 907 80<20 133 375 473 700 797 958 1065>
LayerCount: 2
Fore
SplineSet
201 -469 m 0
 78 -469 51 -389 51 -352 c 0
 51 -307 73 -266 117 -229 c 1
 309 -317 l 1
 384 -242 459 -67 481 2 c 1
 133 895 l 1
 20 907 l 1
 20 987 l 1
 473 987 l 1
 473 907 l 1
 375 901 l 1
 354 899 335 880 344 856 c 2
 582 252 l 1
 825 856 l 2
 835 880 818 898 797 901 c 1
 700 907 l 1
 700 987 l 1
 1065 987 l 1
 1065 907 l 1
 958 895 l 1
 537 -130 l 1
 394 -459 268 -469 201 -469 c 0
EndSplineSet
Validated: 1
EndChar

StartChar: z
Encoding: 93 122 93
Width: 946
GlyphClass: 1
Flags: W
HStem: 0 98<287 744.198> 891 96<215.001 612>
VStem: 90 105<696 804.954> 766 111<198.408 309>
LayerCount: 2
Fore
SplineSet
70 0 m 1
 70 109 l 1
 612 891 l 1
 256 891 l 2
 236 891 219 867 215 848 c 1
 195 696 l 1
 90 696 l 1
 90 987 l 1
 848 987 l 1
 848 903 l 1
 287 98 l 1
 700 98 l 2
 718 98 742 125 745 147 c 2
 766 309 l 1
 877 309 l 1
 877 0 l 1
 70 0 l 1
EndSplineSet
Validated: 1
EndChar

StartChar: braceleft
Encoding: 94 123 94
Width: 999
GlyphClass: 1
Flags: W
HStem: -252 84<674.693 858> 549 92<123 321.061> 1358 84<672.76 858>
VStem: 418 182<-96.3615 452.519 737.924 1287.33>
CounterMasks: 1 e0
LayerCount: 2
Fore
SplineSet
600 993 m 0
 600 776 572 650 324 596 c 1
 577 541 600 402 600 197 c 0
 600 -67 604 -168 858 -168 c 1
 858 -252 l 1
 556 -252 418 -178 418 102 c 2
 418 278 l 2
 418 530 313 549 123 549 c 1
 123 641 l 1
 311 641 418 661 418 912 c 2
 418 1087 l 2
 418 1371 557 1442 858 1442 c 1
 858 1358 l 1
 587 1358 600 1225 600 993 c 0
EndSplineSet
Validated: 33
EndChar

StartChar: bar
Encoding: 95 124 95
Width: 724
GlyphClass: 1
Flags: W
VStem: 300 124<-528 1630>
LayerCount: 2
Fore
SplineSet
300 -528 m 1
 300 1630 l 1
 424 1630 l 1
 424 -528 l 1
 300 -528 l 1
EndSplineSet
Validated: 1
EndChar

StartChar: braceright
Encoding: 96 125 96
Width: 999
GlyphClass: 1
Flags: W
HStem: -252 84<141 315.238> 549 92<680.956 877> 1358 84<141 317.241>
VStem: 399 183<-95.5266 449.921 740.079 1286.45>
CounterMasks: 1 e0
LayerCount: 2
Fore
SplineSet
141 1442 m 1
 446 1442 582 1369 582 1087 c 2
 582 912 l 2
 582 679 656 641 877 641 c 1
 877 549 l 1
 656 549 582 511 582 278 c 2
 582 102 l 2
 582 -181 441 -252 141 -252 c 1
 141 -168 l 1
 417 -168 399 -22 399 197 c 0
 399 405 426 541 676 596 c 1
 430 649 399 777 399 993 c 0
 399 1206 421 1358 141 1358 c 1
 141 1442 l 1
EndSplineSet
Validated: 33
EndChar

StartChar: asciitilde
Encoding: 97 126 97
Width: 1706
GlyphClass: 1
Flags: W
HStem: 483 119<936.63 1336.06> 621 118<368.855 781.553>
LayerCount: 2
Fore
SplineSet
565 739 m 0
 765 739 969 602 1147 602 c 0
 1257 602 1385 655 1530 760 c 1
 1530 627 l 1
 1416 548 1299 483 1145 483 c 0
 946 483 768 621 553 621 c 0
 448 621 323 568 176 461 c 1
 176 594 l 1
 312 691 442 739 565 739 c 0
EndSplineSet
Validated: 1
EndChar

StartChar: quoteleft
Encoding: 98 8216 98
Width: 506
GlyphClass: 1
Flags: W
HStem: 881 206<215.453 346.721>
VStem: 80 131<1087 1245.57>
LayerCount: 2
Fore
SplineSet
373 1006 m 0
 373 941 330 881 250 881 c 0
 139 881 80 955 80 1071 c 0
 80 1213 166 1327 248 1400 c 2
 305 1452 l 1
 381 1438 l 1
 326 1377 l 2
 249 1291 211 1207 211 1126 c 0
 211 1110 213 1103 213 1087 c 1
 342 1087 l 1
 363 1058 373 1031 373 1006 c 0
EndSplineSet
Validated: 1
EndChar

StartChar: quoteright
Encoding: 99 8217 99
Width: 506
GlyphClass: 1
Flags: W
HStem: 1245 207<157.75 293>
VStem: 295 131<1090 1245>
LayerCount: 2
Fore
SplineSet
133 1327 m 0
 133 1376 158 1452 256 1452 c 0
 364 1452 426 1377 426 1262 c 0
 426 1121 342 1007 258 932 c 2
 201 881 l 1
 125 897 l 1
 286 1058 296 1147 295 1208 c 0
 295 1223 293 1230 293 1245 c 1
 164 1245 l 1
 143 1268 133 1295 133 1327 c 0
EndSplineSet
Validated: 33
EndChar

StartChar: quotedblleft
Encoding: 100 8220 100
Width: 928
GlyphClass: 1
Flags: W
HStem: 881 206<213 346.721 637.453 767.051>
VStem: 80 131<1087 1244.49> 502 131<1087 1246.73>
LayerCount: 2
Fore
SplineSet
373 1006 m 0
 373 941 330 881 250 881 c 0
 141 881 80 957 80 1071 c 0
 80 1212 164 1325 248 1400 c 2
 305 1452 l 1
 381 1438 l 1
 223 1280 211 1189 211 1126 c 0
 211 1110 213 1099 213 1087 c 1
 342 1087 l 1
 363 1064 373 1037 373 1006 c 0
795 1008 m 0
 795 936 746 881 672 881 c 0
 561 881 502 958 502 1075 c 0
 502 1214 586 1327 670 1401 c 2
 727 1452 l 1
 803 1438 l 1
 752 1380 l 1
 673 1293 633 1209 633 1128 c 0
 633 1108 635 1103 635 1087 c 1
 764 1087 l 1
 785 1058 795 1032 795 1008 c 0
EndSplineSet
Validated: 1
EndChar

StartChar: quotedblright
Encoding: 101 8221 101
Width: 928
GlyphClass: 1
Flags: W
HStem: 1245 207<160.191 292.22 579.503 715>
VStem: 295 131<1088.43 1245> 719 129<1089.25 1245>
LayerCount: 2
Fore
SplineSet
133 1327 m 0
 133 1398 183 1452 258 1452 c 0
 368 1452 426 1375 426 1260 c 0
 426 1129 351 1015 258 932 c 2
 201 881 l 1
 125 897 l 1
 163 940 l 2
 286 1077 295 1151 295 1204 c 0
 295 1224 293 1229 293 1245 c 1
 164 1245 l 1
 143 1270 133 1298 133 1327 c 0
555 1329 m 0
 555 1397 598 1452 678 1452 c 0
 786 1452 848 1377 848 1262 c 0
 848 1121 764 1007 680 932 c 2
 623 881 l 1
 547 897 l 1
 707 1057 719 1146 719 1208 c 0
 719 1226 715 1230 715 1245 c 1
 586 1245 l 1
 565 1268 555 1296 555 1329 c 0
EndSplineSet
Validated: 1
EndChar

StartChar: u0B83
Encoding: 102 2947 102
Width: 1463
GlyphClass: 1
Flags: W
HStem: 19 325<54.991 271.739 906.581 1120.7> 947 324<480.468 699.589>
VStem: 0 325<72.875 288.104> 428 325<999.592 1216.79> 850 325<71.875 287.104>
LayerCount: 2
Fore
SplineSet
162 19 m 0
 56 19 0 109 0 180 c 0
 0 266 74 343 163 344 c 1
 252 344 325 270 325 181 c 0
 325 100 258 19 162 19 c 0
1012 18 m 0
 906 18 850 108 850 179 c 0
 850 265 924 342 1012 343 c 1
 1102 343 1175 268 1175 180 c 0
 1175 99 1107 18 1012 18 c 0
590 947 m 0
 484 947 428 1037 428 1108 c 0
 428 1193 499 1271 590 1271 c 0
 680 1271 753 1196 753 1108 c 0
 753 1026 685 947 590 947 c 0
EndSplineSet
Validated: 1
EndChar

StartChar: u0B85
Encoding: 103 2949 103
Width: 2352
GlyphClass: 1
Flags: HW
HStem: 1 99<440.398 1001.25> 385 101<127.015 1357 1643 1864> 595 151<891.005 1096.88> 1145 141<916.523 1086.81>
VStem: 8 119<314.17 434.5> 737 100<798.015 1073.89> 1145 167<795.466 1083.83> 1506 184<565.629 976.738> 1868 211<-215 388 485 1288>
AnchorPoint: "V" 1045.5 1306 basechar 0
AnchorPoint: "N" 1045.5 4.57237 basechar 0
LayerCount: 2
Fore
SplineSet
1115 1286 m 0
 1372 1286 1690 1175 1690 732 c 0
 1690 654 1674 572 1643 485 c 1
 1868 485 l 1
 1868 1288 l 1
 2083 1288 l 1
 2079 -215 l 1
 1864 -215 l 1
 1864 388 l 1
 1590 388 l 1
 1436 130 1103 1 772 1 c 0
 137 1 8 388 8 409 c 0
 8 460 39 486 100 486 c 2
 1421 486 l 1
 1478 579 1506 679 1506 786 c 0
 1506 990 1399 1117 1186 1167 c 1
 1270 1120 1312 1029 1312 892 c 0
 1312 712 1212 595 1020 595 c 0
 839 595 737 748 737 941 c 0
 737 1145 883 1286 1115 1286 c 0
995 746 m 0
 1103 746 1145 848 1145 916 c 0
 1145 1064 1069 1130 1034 1145 c 1
 898 1145 837 1038 837 934 c 0
 837 776 948 746 995 746 c 0
127 353 m 0
 127 302 302 100 718 100 c 0
 969 100 1200 191 1357 385 c 1
 187 385 l 2
 147 385 127 374 127 353 c 0
EndSplineSet
EndChar

StartChar: u0B86
Encoding: 104 2950 104
Width: 2896
GlyphClass: 1
Flags: HW
HStem: -716 100<1261.88 1875.57> -175 74<1077.55 1474.59> -1 99<443.018 999.468> 383 101<124.015 1354 1642 1863> 471 129<2108.72 2279.89> 593 151<885.815 1094.88> 1143 141<915.523 1083.81>
VStem: 7 117<311.456 432.5> 736 98<796.015 1071.89> 902 94<-457.156 -238.559> 1142 169<793.466 1081.83> 1505 184<563.629 974.738> 1867 215<-217 386 532 1286> 2392 217<-123.748 337.211>
AnchorPoint: "V" 1308 1306 basechar 0
AnchorPoint: "N" 1308 -707.904 basechar 0
LayerCount: 2
Fore
SplineSet
2250 600 m 0xebfc
 2392 600 2609 483 2609 139 c 0
 2609 -545 2066 -716 1678 -716 c 0
 1334 -716 902 -642 902 -347 c 0
 902 -199 1045 -101 1268 -101 c 0
 1430 -101 1571 -159 1654 -235 c 1
 1625 -286 l 1
 1548 -226 1400 -175 1253 -175 c 0
 1143 -175 996 -208 996 -341 c 0
 996 -561 1344 -616 1591 -616 c 0
 2123 -616 2392 -232 2392 120 c 0
 2392 386 2257 471 2167 471 c 0xebfc
 2132 471 2106 460 2082 438 c 1
 2078 -217 l 1
 1863 -217 l 1
 1863 386 l 1
 1589 386 l 1
 1435 128 1102 -1 771 -1 c 0
 136 -1 7 386 7 407 c 0
 7 458 38 484 99 484 c 2
 1420 484 l 1
 1477 577 1505 677 1505 784 c 0
 1505 988 1398 1115 1185 1165 c 1
 1269 1118 1311 1027 1311 890 c 0
 1311 710 1211 593 1019 593 c 0xf7fc
 838 593 736 746 736 939 c 0
 736 1143 882 1284 1114 1284 c 0
 1371 1284 1689 1173 1689 730 c 0
 1689 652 1673 570 1642 483 c 1
 1867 483 l 1
 1867 1286 l 1
 2082 1286 l 1
 2082 532 l 1
 2127 577 2183 600 2250 600 c 0xebfc
992 744 m 0xe7fc
 1100 744 1142 846 1142 914 c 0
 1142 1062 1066 1128 1031 1143 c 1
 895 1143 834 1036 834 932 c 0
 834 774 945 744 992 744 c 0xe7fc
124 351 m 0
 124 308 288 98 715 98 c 0
 967 98 1197 189 1354 383 c 1
 184 383 l 2xf3fc
 144 383 124 372 124 351 c 0
EndSplineSet
EndChar

StartChar: u0B87
Encoding: 105 2951 105
Width: 2207
GlyphClass: 1
Flags: HW
HStem: -255 96<183.498 576.177 854.785 1266.44> 426 93<559.033 1057.26> 596 152<510.711 717.784> 1147 142<539.205 709.81> 1642 206<659.76 1223.32>
VStem: 4 95<-81.7865 138.93 660.12 1153.56> 358 102<800.606 1073.49> 768 165<798.349 1085.97> 1127 185<503.742 969.095> 1396 204<-28.6101 233.33> 1851 100<276.268 976.858>
AnchorPoint: "V" 977.5 1847.81 basechar 0
AnchorPoint: "N" 977.5 -255 basechar 0
LayerCount: 2
Fore
SplineSet
617 748 m 0
 724 748 767 849 768 918 c 0
 768 1066 692 1132 657 1147 c 1
 521 1147 460 1040 460 936 c 0
 460 788 554 748 617 748 c 0
1086 -159 m 0
 1334 -159 1396 18 1396 114 c 0
 1396 195 1342 267 1233 331 c 1
 1152 135 1026 -17 853 -124 c 1
 928 -147 1006 -159 1086 -159 c 0
99 19 m 0
 99 -88 211 -159 364 -159 c 0
 437 -159 509 -144 579 -113 c 1
 449 -34 334 79 233 224 c 1
 144 160 99 92 99 19 c 0
323 282 m 1
 424 141 526 34 688 -55 c 1
 855 52 978 204 1059 401 c 1
 993 418 924 426 851 426 c 0
 718 426 504 390 323 282 c 1
1661 -224 m 1
 1701 -156 1851 187 1851 646 c 0
 1851 1319 1407 1642 954 1642 c 0
 498 1642 104 1357 104 929 c 0
 104 746 159 561 270 373 c 1
 477 485 709 519 860 519 c 0
 941 519 1019 513 1094 500 c 1
 1116 575 1127 652 1127 730 c 0
 1127 842 1125 1097 807 1168 c 1
 928 1101 933 951 933 891 c 0
 933 812 933 624 641 596 c 1
 471 596 358 740 358 943 c 0
 358 1135 489 1289 737 1289 c 0
 994 1289 1312 1178 1312 735 c 0
 1312 638 1300 544 1277 452 c 1
 1501 369 1600 248 1600 112 c 0
 1600 -168 1346 -255 1087 -255 c 0
 967 -255 849 -231 732 -183 c 1
 619 -231 503 -255 385 -255 c 0
 184 -255 4 -180 4 35 c 0
 4 136 63 231 181 321 c 1
 69 522 4 758 4 947 c 0
 4 1531 436 1848 955 1848 c 0
 1638 1848 1951 1339 1951 708 c 0
 1951 216 1773 -186 1735 -256 c 1
 1661 -224 l 1
EndSplineSet
EndChar

StartChar: u0B88
Encoding: 106 2952 106
Width: 1491
GlyphClass: 1
Flags: HW
HStem: -1 21G<1 101 602 817> 519 253<255.472 448.445 970.472 1163.44> 1189 100<101 602 817 1104>
VStem: 1 100<-1 1189> 227 250<546.462 742.547> 602 215<-1 1189> 942 250<547.462 743.547>
AnchorPoint: "V" 596.5 1306 basechar 0
AnchorPoint: "N" 596.5 -1 basechar 0
LayerCount: 2
Fore
SplineSet
942 645 m 0
 942 717 992 773 1067 773 c 256
 1142 773 1192 715 1192 645 c 0
 1192 567 1136 520 1067 520 c 0
 990 520 942 576 942 645 c 0
1104 1189 m 1
 817 1189 l 1
 817 -1 l 1
 602 -1 l 1
 602 1189 l 1
 101 1189 l 1
 101 -1 l 1
 1 -1 l 1
 1 1289 l 1
 1105 1289 l 1
 1104 1189 l 1
227 644 m 0
 227 716 277 772 352 772 c 256
 427 772 477 714 477 644 c 0
 477 566 421 519 352 519 c 0
 275 519 227 575 227 644 c 0
EndSplineSet
EndChar

StartChar: u0B89
Encoding: 107 2953 107
Width: 2322
GlyphClass: 1
Flags: HW
HStem: 0 91<196.612 2173.7> 254 109<196.941 719.226> 449 132<164.578 364.427> 918 128<171.25 361.021> 1188 102<278.219 682.745>
VStem: 1 182<107.689 238.218> 1 100<651.875 873.79 926 1034.77> 409 181<623.678 869.315> 883 198<544.875 984.021>
AnchorPoint: "V" 1087.5 1306 basechar 0
AnchorPoint: "N" 1087.5 0 basechar 0
LayerCount: 2
Fore
SplineSet
183 172 m 0xfd80
 183 141 209 91 302 91 c 2
 2106 91 l 2
 2151 91 2174 77 2174 48 c 0
 2174 19 2127 4 2108 0 c 1
 227 0 l 2
 58 0 1 110 1 183 c 0xfd80
 1 255 60 363 227 363 c 2
 591 363 l 2
 788 363 883 582 883 739 c 0
 883 1038 745 1188 468 1188 c 0
 274 1188 105 1061 105 926 c 1
 152 1006 224 1046 320 1046 c 0
 501 1046 590 885 590 744 c 0
 590 552 468 449 293 449 c 0
 98 449 1 590 1 873 c 0xfb80
 1 1102 212 1290 508 1290 c 0
 863 1290 1081 1099 1081 753 c 0
 1081 420 918 254 591 254 c 2
 305 254 l 2
 199 254 183 197 183 172 c 0xfd80
270 581 m 0
 381 581 409 696 409 756 c 0
 409 840 347 918 255 918 c 0
 191 918 140 884 101 815 c 1xfb80
 101 692 158 581 270 581 c 0
EndSplineSet
EndChar

StartChar: u0B8A
Encoding: 108 2954 108
Width: 3728
GlyphClass: 1
Flags: HW
HStem: 3 91<200.612 3439.69> 177 182<1626.75 1827> 257 109<200.941 723.226> 452 131<173.037 369.427> 839 136<1563.98 1804.16> 920 129<176.25 366.021> 1190 102<282.219 686.745 1771.88 2254.13 2639 2969 3184 3469>
VStem: 5 182<110.689 241.218> 5 102<653.875 875.79 929 1037.77> 415 179<626.178 871.815> 887 198<547.875 987.021> 1382 100<509.142 774.121> 1898 227<435.945 738.631> 2425 214<173 1047.71> 2555 84<1078 1190> 2969 215<173 1190>
AnchorPoint: "V" 1738.5 1306 basechar 0
AnchorPoint: "N" 1738.5 3 basechar 0
LayerCount: 2
Fore
SplineSet
1382 738 m 0xda7d
 1382 1104 1663 1292 1995 1292 c 0
 2412 1292 2529 1152 2555 1078 c 1
 2555 1293 l 1
 3472 1293 l 1
 3469 1190 l 1
 3184 1190 l 1
 3184 173 l 1
 2969 173 l 1
 2969 1190 l 1
 2639 1190 l 1xda7b
 2639 173 l 1
 2425 173 l 1
 2425 901 l 2
 2425 1095 2242 1190 2019 1190 c 0
 1685 1190 1487 978 1487 869 c 1
 1535 932 1644 975 1765 975 c 0
 1984 975 2125 801 2125 589 c 0
 2125 247 1939 177 1815 177 c 0
 1505 177 1382 457 1382 738 c 0xda7d
187 175 m 0xb779
 187 144 213 94 306 94 c 2
 3372 94 l 2
 3417 94 3440 80 3440 51 c 0
 3440 22 3392 7 3373 3 c 1
 231 3 l 2
 62 3 5 113 5 186 c 0xb779
 5 258 64 366 231 366 c 2
 595 366 l 2
 792 366 887 585 887 742 c 0
 887 1041 749 1191 472 1191 c 0
 278 1191 109 1064 109 929 c 1
 156 1009 228 1049 324 1049 c 0
 505 1049 594 888 594 747 c 0
 594 555 472 452 297 452 c 0
 102 452 5 593 5 876 c 0xb6f9
 5 1105 216 1293 512 1293 c 0
 867 1293 1085 1102 1085 756 c 0
 1085 423 922 257 595 257 c 2
 309 257 l 2
 203 257 187 200 187 175 c 0xb779
1482 697 m 1
 1482 580 1552 359 1714 359 c 0
 1831 359 1898 465 1898 593 c 0
 1897 736 1791 839 1686 839 c 0xda79
 1553 839 1499 756 1482 697 c 1
276 583 m 0
 387 583 415 698 415 758 c 0
 415 842 353 920 261 920 c 0
 197 920 146 886 107 817 c 1x96f9
 107 694 164 583 276 583 c 0
EndSplineSet
EndChar

StartChar: u0B8E
Encoding: 109 2958 109
Width: 1835
GlyphClass: 1
Flags: HW
HStem: 3 171<242.957 459.164> 709 141<195.152 435.347> 1190 103<410.822 1047 1261 1548>
VStem: 3 100<316.774 883.359> 543 215<266.468 592.605> 1047 214<0 1190>
AnchorPoint: "V" 775.5 1306 basechar 0
AnchorPoint: "N" 775.5 45.093 basechar 0
LayerCount: 2
Fore
SplineSet
434 3 m 0
 89 3 3 331 3 596 c 0
 3 1019 235 1293 616 1293 c 2
 1548 1293 l 1
 1548 1190 l 1
 1261 1190 l 1
 1261 0 l 1
 1047 0 l 1
 1047 1190 l 1
 640 1190 l 2
 231 1190 107 878 107 733 c 1
 151 799 262 850 384 850 c 0
 610 850 758 682 758 445 c 0
 758 216 680 3 434 3 c 0
103 549 m 1
 103 275 229 174 346 174 c 0
 477 174 542 299 543 439 c 1
 543 601 421 709 321 709 c 0
 190 709 124 617 103 549 c 1
EndSplineSet
EndChar

StartChar: u0B8F
Encoding: 110 2959 110
Width: 1835
GlyphClass: 1
Flags: HW
HStem: 3 171<242.957 459.164> 709 141<195.152 435.347> 1190 103<410.822 1047 1261 1548>
VStem: 3 100<316.774 883.359> 543 215<266.468 592.605> 1047 214<0 1190>
AnchorPoint: "V" 775.5 1306 basechar 0
AnchorPoint: "N" 775.5 -401 basechar 0
LayerCount: 2
Fore
SplineSet
434 3 m 0
 89 3 3 331 3 596 c 0
 3 1019 235 1293 616 1293 c 2
 1548 1293 l 1
 1548 1190 l 1
 1261 1190 l 1
 1261 0 l 1
 788 -401 l 1
 618 -401 l 1
 1047 0 l 1
 1047 1190 l 1
 640 1190 l 2
 231 1190 107 878 107 733 c 1
 151 799 262 850 384 850 c 0
 610 850 758 682 758 445 c 0
 758 216 680 3 434 3 c 0
103 549 m 1
 103 275 229 174 346 174 c 0
 477 174 542 299 543 439 c 1
 543 601 421 709 321 709 c 0
 190 709 124 617 103 549 c 1
EndSplineSet
EndChar

StartChar: u0B90
Encoding: 111 2960 111
Width: 1863
GlyphClass: 1
Flags: HW
HStem: -501 107<371.675 624.437 1051.05 1340.28> 447 126<168.578 368.427> 910 134<176.464 361.082> 1186 102<283.687 641.764 1014.78 1267.26>
VStem: 6 98<647.259 865.79 924 1032.02> 64 201<-270.259 106.867> 412 183<615.208 861.094> 750 200<-268.504 31 613 1083.66> 1378 199<602.886 1061.53> 1413 135<-319.057 54.2131>
AnchorPoint: "V" 791.5 1306 basechar 0
AnchorPoint: "N" 791.5 -494.981 basechar 0
LayerCount: 2
Fore
SplineSet
595 742 m 0xf780
 595 550 473 447 298 447 c 0
 103 447 6 588 6 871 c 0
 6 1121 220 1288 512 1288 c 0
 712 1288 834 1234 877 1125 c 1
 918 1234 1008 1288 1147 1288 c 0
 1426 1288 1577 1125 1577 841 c 0xfb80
 1577 725 1540 477 1374 385 c 0
 975 163 265 454 265 -72 c 0
 265 -193 312 -394 499 -394 c 0
 632 -394 750 -248 750 -151 c 2
 750 31 l 1
 950 31 l 1
 950 -145 l 2
 950 -241 1024 -402 1204 -402 c 0
 1353 -402 1413 -288 1413 -148 c 0
 1413 -43 1381 52 1337 106 c 1
 1463 163 l 1
 1520 84 1548 -13 1548 -126 c 0xf740
 1548 -278 1475 -502 1187 -502 c 0
 1034 -502 931 -450 879 -347 c 1
 843 -410 716 -501 533 -501 c 0
 244 -501 64 -354 64 -73 c 0
 64 112 142 234 299 294 c 0
 632 425 1005 347 1222 456 c 0
 1337 514 1378 728 1378 860 c 0
 1378 995 1327 1188 1121 1188 c 0
 984 1188 950 1029 950 974 c 2
 950 613 l 1
 750 613 l 1
 750 958 l 2
 750 1026 700 1186 473 1186 c 0
 279 1186 110 1059 110 924 c 1
 157 1004 229 1044 325 1044 c 0
 506 1044 595 883 595 742 c 0xf780
273 573 m 0
 384 573 412 688 412 748 c 0
 412 832 350 910 258 910 c 0
 194 910 143 876 104 807 c 1
 104 684 161 573 273 573 c 0
EndSplineSet
EndChar

StartChar: u0B92
Encoding: 112 2962 112
Width: 2007
GlyphClass: 1
Flags: HW
HStem: -713 100<505.751 901.051> -139 114<396.356 487> -45 112<1298.98 1567> 159 151<1168.39 1350.89> 174 154<212.282 426.126> 750 114<168.202 402.663> 1189 102<479.043 1000.31>
VStem: 2 103<451.411 693.99> 233 101<-469.835 -199.364> 471 215<373.014 680.427> 952 72<168.131 480.744> 1056 72<364.841 484> 1419 216<383.669 807.08>
AnchorPoint: "V" 818.5 1306 basechar 0
AnchorPoint: "N" 818.5 -713 basechar 0
LayerCount: 2
Fore
SplineSet
1298 159 m 0x97f8
 1110 159 1056 286 1056 484 c 1
 1035 404 1024 343 1024 301 c 0
 1024 114 1164 67 1350 67 c 2
 1567 67 l 1
 1567 -45 l 1
 1408 -45 l 2xb7f8
 1087 -45 1370 -713 719 -713 c 0
 396 -713 233 -541 233 -345 c 0
 233 -168 323 -25 487 -25 c 1
 522 -139 l 1
 441 -139 334 -180 334 -344 c 0
 334 -452 439 -613 743 -613 c 0
 1026 -613 983 -366 1054 -139 c 0
 1073 -77 1117 -28 1178 -8 c 1
 1007 31 952 176 952 312 c 0
 952 504 1051 707 1155 742 c 1
 1205 710 l 1
 1154 667 1128 598 1128 503 c 0
 1128 392 1174 310 1242 310 c 0xd7f8
 1360 310 1419 407 1419 602 c 0
 1419 942 1086 1189 777 1189 c 0
 236 1189 137 873 111 766 c 1
 159 831 237 864 345 864 c 0
 552 864 686 727 686 534 c 0
 686 340 600 174 389 174 c 0x8ff8
 153 174 2 369 2 624 c 0
 2 891 120 1291 805 1291 c 0
 1421 1291 1635 923 1635 610 c 0
 1635 268 1449 159 1298 159 c 0x97f8
105 622 m 1
 105 472 198 328 325 328 c 0x8ff8
 383 328 471 363 471 521 c 0
 471 687 376 750 298 750 c 0
 182 750 125 682 105 622 c 1
EndSplineSet
EndChar

StartChar: u0B93
Encoding: 113 2963 113
Width: 2007
GlyphClass: 1
Flags: HW
HStem: -713 99<508.066 900.077> -140 109<398.442 650.346> -45 112<1300.44 1568> 159 152<1169.39 1353.26> 175 154<214.282 428.126> 751 114<170.202 404.663> 1190 102<481.043 1003.19>
VStem: 4 103<452.411 694.99> 234 102<-470.97 -200.94> 473 215<374.014 681.427> 684 134<-384.525 -173.366> 954 71<167.889 481.313> 1056 74<359.594 484> 1421 214<386.82 808.437>
AnchorPoint: "V" 819.5 1306 basechar 0
AnchorPoint: "N" 819.5 -713 basechar 0
LayerCount: 2
Fore
SplineSet
4 625 m 0x8fdc
 4 892 122 1292 807 1292 c 0
 1430 1292 1635 918 1635 617 c 0
 1635 248 1433 159 1298 159 c 0
 1110 159 1056 286 1056 484 c 1
 1035 407 1025 345 1025 298 c 0
 1025 113 1167 67 1351 67 c 2
 1568 67 l 1
 1568 -45 l 1
 1409 -45 l 2xb7dc
 1094 -45 1367 -713 720 -713 c 0
 427 -713 234 -566 234 -345 c 0
 234 -170 327 -31 520 -31 c 0
 751 -31 818 -167 818 -257 c 0
 818 -340 786 -406 723 -456 c 1
 621 -405 l 1
 663 -363 684 -316 684 -265 c 0
 684 -215 651 -140 524 -140 c 0
 443 -140 336 -181 336 -345 c 0
 336 -453 441 -614 745 -614 c 0
 1136 -614 928 -85 1180 -7 c 1
 1009 32 954 177 954 313 c 0
 954 505 1053 708 1157 743 c 1
 1207 711 l 1
 1156 668 1130 599 1130 504 c 0
 1130 393 1176 311 1244 311 c 0xd7bc
 1362 311 1421 408 1421 603 c 0
 1421 943 1088 1190 779 1190 c 0
 238 1190 139 874 113 767 c 1
 161 832 239 865 347 865 c 0
 554 865 688 728 688 535 c 0
 688 341 602 175 391 175 c 0
 155 175 4 370 4 625 c 0x8fdc
107 623 m 1
 107 473 200 329 327 329 c 0x8fdc
 385 329 473 364 473 522 c 0
 473 688 378 751 300 751 c 0
 184 751 127 683 107 623 c 1
EndSplineSet
EndChar

StartChar: u0B95
Encoding: 115 2965 115
Width: 1778
GlyphClass: 1
Flags: HW
HStem: 1 101<219.071 568.804 955.918 1213.35> 645 102<200.919 264 363 692 908 1180.63> 1190 100<363 693 908 1195>
VStem: 3 100<213.378 544.24> 264 99<747 1190> 693 215<206.305 645 747 1190> 1292 199<182.785 534.474>
AnchorPoint: "V" 731.5 1306 basechar 0
AnchorPoint: "N" 731.5 9.92431 basechar 0
LayerCount: 2
Fore
SplineSet
448 1 m 0
 186 1 3 129 3 405 c 0
 3 650 199 743 264 743 c 1
 264 1290 l 1
 1195 1290 l 1
 1195 1190 l 1
 908 1190 l 1
 908 747 l 1
 1278 747 1491 686 1491 347 c 0
 1491 70 1291 1 1139 1 c 0
 964 1 862 52 833 153 c 1
 810 124 679 1 448 1 c 0
693 747 m 1
 693 1190 l 1
 363 1190 l 1
 363 747 l 1
 693 747 l 1
908 304 m 2
 908 188 944 102 1090 102 c 0
 1154 102 1289 137 1292 343 c 1
 1292 623 1140 645 908 645 c 1
 908 304 l 2
317 645 m 2
 248 645 103 586 103 380 c 0
 103 195 207 102 415 102 c 0
 545 102 690 205 692 295 c 1
 692 645 l 1
 317 645 l 2
EndSplineSet
EndChar

StartChar: u0B95_u0BBF
Encoding: 116 -1 116
Width: 2093
GlyphClass: 1
Flags: HW
HStem: 5 99<220.071 569.804 956.918 1208.53> 647 102<363 692 909 1179.83> 1192 100<363 693 909 1196> 1862 218<599.191 1256.4>
VStem: 5 98<216.378 547.827 996.173 1481.5> 265 98<802 1192> 693 216<208.305 647 749 1192> 1292 201<195.953 542.969> 1720 85<0 1472.49>
AnchorPoint: "V" 731.5 2065 basechar 0
AnchorPoint: "N" 731.5 9.92431 basechar 0
LayerCount: 2
Fore
SplineSet
4 1246 m 0
 4 1627 211 2080 952 2080 c 0
 1408 2080 1805 1920 1805 1279 c 2
 1805 0 l 1
 1720 0 l 1
 1720 1296 l 2
 1720 1636 1382 1862 954 1862 c 0
 236 1862 105 1500 105 1259 c 0
 105 1078 162 896 265 802 c 1
 265 1292 l 1
 1196 1292 l 1
 1196 1192 l 1
 909 1192 l 1
 909 749 l 1
 1272 749 1493 688 1493 351 c 0
 1493 74 1293 5 1141 5 c 0
 966 5 864 56 835 157 c 1
 812 128 681 5 450 5 c 0
 188 5 5 133 5 409 c 0
 5 602 125 699 208 731 c 1
 72 844 4 1016 4 1246 c 0
693 749 m 1
 693 1192 l 1
 363 1192 l 1
 363 749 l 1
 693 749 l 1
908 306 m 2
 908 190 944 104 1090 104 c 0
 1171 104 1292 165 1292 364 c 0
 1292 629 1121 647 908 647 c 1
 908 306 l 2
317 647 m 2
 248 647 103 588 103 382 c 0
 103 197 207 104 415 104 c 0
 545 104 690 207 692 297 c 1
 692 647 l 1
 317 647 l 2
EndSplineSet
LCarets2: 1 0
EndChar

StartChar: u0B95_u0BC0
Encoding: 117 -1 117
Width: 1778
GlyphClass: 1
Flags: HW
HStem: 4 99<216.571 570.796 956.102 1215.72> 646 102<362 691 907 1173.83> 1191 100<362 692 903 1190> 1447 91<985.261 1219.64> 1979 169<614.546 941.454>
VStem: -1 103<215.378 544.171 982.989 1487.37> 259 103<801 1191> 692 211<207.305 646 748 1191> 823 99<1599.25 1852.73> 1288 165<1607.6 1852.72> 1291 196<179.62 535.202>
AnchorPoint: "V" 731.5 2132.39 basechar 0
AnchorPoint: "N" 731.5 9.92431 basechar 0
LayerCount: 2
Fore
SplineSet
922 1723 m 0xfec0
 922 1613 1006 1538 1099 1538 c 0
 1207 1538 1288 1626 1288 1726 c 0
 1288 1825 1218 1927 1087 1927 c 1
 989 1908 922 1825 922 1723 c 0xfec0
692 748 m 1xff
 692 1191 l 1
 362 1191 l 1
 362 748 l 1
 692 748 l 1xff
907 305 m 2
 907 189 943 103 1089 103 c 0
 1176 103 1291 155 1291 344 c 0xfe20
 1291 636 1124 646 907 646 c 1
 907 305 l 2
316 646 m 2
 247 646 102 587 102 381 c 0
 102 196 206 103 414 103 c 0
 544 103 689 206 691 296 c 1
 691 646 l 1
 316 646 l 2
444 4 m 0
 182 4 -1 132 -1 408 c 0
 -1 567 83 682 203 729 c 1
 67 842 -1 1014 -1 1244 c 0
 -1 1786 386 2148 918 2148 c 4
 1146 2148 1453 2075 1453 1757 c 0
 1453 1574 1320 1447 1123 1447 c 0
 908 1447 823 1601 823 1725 c 0xfec0
 823 1818 866 1924 945 1971 c 1
 909 1976 874 1979 840 1979 c 0
 369 1979 99 1579 99 1258 c 0
 99 1077 156 895 259 801 c 1
 259 1291 l 1
 1190 1291 l 1
 1190 1191 l 1
 903 1191 l 1
 903 748 l 1xff
 1266 748 1487 687 1487 350 c 0
 1487 73 1287 4 1135 4 c 0
 960 4 858 55 829 156 c 1
 806 127 675 4 444 4 c 0
EndSplineSet
LCarets2: 1 0
EndChar

StartChar: u0B95_u0BC1
Encoding: 118 -1 118
Width: 2251
GlyphClass: 2
Flags: HW
HStem: -569 99<661.236 1306.69> 2 103<677.45 1030.55> 647 100<821 1149 1367 1586.93> 1190 101<821 1149 1367 1654>
VStem: 4 99<105.981 809.178> 463 99<215.378 551.44> 722 99<747 1190> 1149 218<206.609 645 748 1190> 1749 216<-45.9156 498.855>
AnchorPoint: "V" 1125 1306 basechar 0
AnchorPoint: "N" 1125 -600 basechar 0
LayerCount: 2
Fore
SplineSet
359 1233 m 1
 146 1020 103 660 103 423 c 0
 103 -86 400 -470 952 -470 c 0
 1590 -470 1749 -150 1749 295 c 0
 1749 505 1661 645 1365 645 c 1
 1365 304 l 2
 1365 185 1189 2 905 2 c 0
 643 2 463 130 463 406 c 0
 463 645 655 744 722 744 c 1
 722 1291 l 1
 1654 1291 l 1
 1654 1191 l 1
 1367 1191 l 1
 1367 748 l 1
 1733 748 1965 659 1965 302 c 0
 1965 -116 1833 -320 1589 -452 c 0
 1444 -530 1240 -569 978 -569 c 0
 347 -569 4 -207 4 432 c 0
 4 667 61 1074 296 1290 c 1
 359 1233 l 1
1149 747 m 1
 1149 1190 l 1
 821 1190 l 1
 821 747 l 1
 1149 747 l 1
774 647 m 2
 732 647 562 612 562 383 c 0
 562 198 666 105 874 105 c 0
 996 105 1149 199 1149 297 c 2
 1149 647 l 1
 774 647 l 2
EndSplineSet
LCarets2: 1 0
EndChar

StartChar: u0B95_u0BC2.old
Encoding: 119 -1 119
Width: 2695
Flags: HW
HStem: 2 100<228.784 566.363 1949 2408> 647 121<1475.14 1819.71> 649 100<202.919 266 364 694 910 1193> 1192 100<364 694 910 1197>
VStem: 5 100<216.378 547.24> 266 98<749 1192> 694 216<211.154 646 749 1192> 1193 215<1 584.93> 1917 245<284.622 551.416>
AnchorPoint: "V" 731.5 1306 basechar 0
AnchorPoint: "N" 731.5 9.92431 basechar 0
LayerCount: 2
Fore
SplineSet
5 407 m 0xdf80
 5 652 201 745 266 745 c 1
 266 1292 l 1
 1197 1292 l 1
 1197 1192 l 1
 910 1192 l 1
 910 749 l 1
 1262 749 l 2xbf80
 1287 749 1360 733 1376 659 c 1
 1421 732 1545 768 1749 768 c 0
 1921 768 2162 684 2162 437 c 0
 2162 279 2047 167 1949 102 c 1
 2408 102 l 1
 2408 2 l 1
 1654 2 l 1
 1654 102 l 1
 1829 199 1917 305 1917 422 c 0
 1917 557 1806 647 1675 647 c 0
 1522 647 1427 594 1408 520 c 1
 1408 1 l 1
 1193 1 l 1
 1193 646 l 1
 909 646 l 1
 909 305 l 2
 909 146 676 3 450 3 c 0
 188 3 5 131 5 407 c 0xdf80
694 749 m 1
 694 1192 l 1
 364 1192 l 1
 364 749 l 1
 694 749 l 1
319 649 m 2
 250 649 105 590 105 384 c 0
 105 199 209 106 417 106 c 0
 547 106 692 209 694 299 c 1
 694 649 l 1
 319 649 l 2
EndSplineSet
EndChar

StartChar: u0B95_u0BCD
Encoding: 120 -1 120
Width: 1778
GlyphClass: 2
Flags: W
HStem: 1 101<217.071 566.804 953.918 1211.39> 645 102<198.919 262 361 690 906 1178.81> 1190 100<361 691 906 1193> 1505 326<622.658 840.485>
VStem: 1 100<213.378 544.24> 262 99<747 1190> 569 325<1558.81 1778.38> 691 215<206.305 645 747 1190> 1290 199<185.494 535.331>
AnchorPoint: "N" 731.5 9.92431 basechar 0
LayerCount: 2
Fore
SplineSet
569 1668 m 0xfe80
 569 1762 645 1831 730 1831 c 0
 822 1831 893 1760 894 1668 c 1
 894 1578 819 1505 731 1505 c 0
 643 1505 569 1579 569 1668 c 0xfe80
446 1 m 0
 184 1 1 129 1 405 c 0
 1 650 197 743 262 743 c 1
 262 1290 l 1
 1193 1290 l 1
 1193 1190 l 1
 906 1190 l 1
 906 747 l 1xfd80
 1274 747 1489 687 1489 351 c 0
 1488 70 1290 1 1137 1 c 0
 962 1 860 52 831 153 c 1
 808 124 677 1 446 1 c 0
691 747 m 1
 691 1190 l 1
 361 1190 l 1
 361 747 l 1
 691 747 l 1
906 304 m 2
 906 188 942 102 1088 102 c 0
 1169 102 1290 148 1290 357 c 0
 1290 626 1122 645 906 645 c 1
 906 304 l 2
315 645 m 2
 246 645 101 586 101 380 c 0
 101 195 205 102 413 102 c 0
 543 102 688 205 690 295 c 1
 690 645 l 1
 315 645 l 2
EndSplineSet
Validated: 1
LCarets2: 1 0
EndChar

StartChar: u0B99
Encoding: 121 2969 121
Width: 2007
GlyphClass: 1
Flags: HW
HStem: 0 86<430 836.218 988 1521> 713 136<690.201 907.356> 1187 100<103 431 648 935>
VStem: 3 100<-3 1187> 431 217<370 677.107 763 1187> 989 201<262.809 630.588> 1521 200<86 1290>
AnchorPoint: "V" 856.5 1306 basechar 0
AnchorPoint: "N" 856.5 0 basechar 0
LayerCount: 2
Fore
SplineSet
842 849 m 0
 988 849 1190 736 1190 462 c 0
 1190 262 1111 139 988 86 c 1
 1521 86 l 1
 1521 1290 l 1
 1721 1290 l 1
 1721 0 l 1
 430 0 l 1
 430 86 l 1
 763 86 l 1
 959 163 989 371 989 473 c 0
 989 663 861 713 791 713 c 0
 738 713 668 685 646 599 c 1
 646 370 l 1
 431 370 l 1
 431 1187 l 1
 103 1187 l 1
 103 -3 l 1
 3 -3 l 1
 3 1287 l 1
 935 1287 l 1
 935 1187 l 1
 648 1187 l 1
 648 763 l 1
 693 820 757 849 842 849 c 0
EndSplineSet
EndChar

StartChar: u0B99_u0BBF
Encoding: 122 -1 122
Width: 2279
GlyphClass: 2
Flags: HW
HStem: 2 86<429 835.218 987 1477> 715 136<689.201 906.356> 1145 101<1326.03 1476> 1189 100<102 430 647 934> 1834 201<1382.52 1759.12>
VStem: 2 100<-1 1189> 430 217<372 679.107 765 1189> 988 201<264.809 632.588> 1120 114<1343.83 1686.9> 1477 199<88 1145 1246 1292> 1907 86<0 1668.64>
AnchorPoint: "V" 856.5 1306 basechar 0
AnchorPoint: "N" 856.5 0 basechar 0
LayerCount: 2
Fore
SplineSet
1120 1554 m 0xeee0
 1120 1853 1272 2035 1560 2035 c 0
 1886 2035 1993 1814 1993 1480 c 2
 1993 0 l 1
 1907 0 l 1
 1907 1447 l 2
 1907 1710 1807 1834 1557 1834 c 0
 1398 1834 1234 1738 1234 1517 c 0
 1234 1300 1363 1246 1476 1246 c 1xeee0
 1476 1292 l 1
 1676 1292 l 1
 1676 2 l 1
 429 2 l 1
 429 88 l 1
 762 88 l 1
 958 165 988 373 988 475 c 0
 988 665 860 715 790 715 c 0
 737 715 667 687 645 601 c 1
 645 372 l 1
 430 372 l 1
 430 1189 l 1
 102 1189 l 1
 102 -1 l 1
 2 -1 l 1
 2 1289 l 1
 934 1289 l 1
 934 1189 l 1
 647 1189 l 1
 647 765 l 1
 692 822 756 851 841 851 c 0
 987 851 1189 738 1189 464 c 0xdf60
 1189 264 1110 141 987 88 c 1
 1477 88 l 1
 1477 1145 l 1
 1320 1145 1120 1237 1120 1554 c 0xeee0
EndSplineSet
LCarets2: 1 0
EndChar

StartChar: u0B99_u0BC0
Encoding: 123 -1 123
Width: 2279
GlyphClass: 2
Flags: HW
HStem: 0 86<431 837.218 989 1520> 713 136<691.201 908.356> 1135 71<1432.43 1520> 1187 100<104 432 649 936> 1377 91<1838.54 2074.32> 1908 170<1540.45 1797.69>
VStem: 4 100<-3 1187> 432 217<370 677.107 763 1187> 990 201<262.809 630.588> 1220 113<1330.46 1697.17> 1520 215<86 1135 1206 1290> 1677 98<1529.88 1783.37> 2140 167<1532.83 1786.14>
AnchorPoint: "V" 856.5 1306 basechar 0
AnchorPoint: "N" 856.5 0 basechar 0
LayerCount: 2
Fore
SplineSet
843 849 m 0xdfe8
 989 849 1191 736 1191 462 c 0
 1191 262 1112 139 989 86 c 1
 1520 86 l 1
 1520 1135 l 1xefe8
 1375 1135 1220 1289 1220 1555 c 0
 1220 1973 1572 2078 1771 2078 c 0
 1911 2078 2035 2049 2144 1990 c 0
 2253 1931 2307 1830 2307 1687 c 0
 2307 1504 2174 1377 1977 1377 c 0
 1762 1377 1677 1531 1677 1655 c 0
 1677 1746 1721 1858 1800 1900 c 1
 1764 1905 1729 1908 1696 1908 c 0
 1474 1908 1333 1697 1333 1521 c 0
 1333 1285 1446 1206 1521 1206 c 1xefd8
 1521 1290 l 1
 1735 1290 l 1
 1735 0 l 1
 431 0 l 1
 431 86 l 1
 764 86 l 1
 960 163 990 371 990 473 c 0
 990 663 862 713 792 713 c 0
 739 713 669 685 647 599 c 1
 647 370 l 1
 432 370 l 1
 432 1187 l 1
 104 1187 l 1
 104 -3 l 1
 4 -3 l 1
 4 1287 l 1
 936 1287 l 1
 936 1187 l 1
 649 1187 l 1
 649 763 l 1
 694 820 758 849 843 849 c 0xdfe8
1775 1654 m 0xcfd8
 1775 1554 1850 1468 1952 1468 c 0
 2050 1468 2140 1542 2140 1653 c 0
 2139 1783 2046 1856 1941 1856 c 1
 1845 1836 1775 1759 1775 1654 c 0xcfd8
EndSplineSet
LCarets2: 1 0
EndChar

StartChar: u0B99_u0BC1
Encoding: 124 -1 124
Width: 2007
GlyphClass: 2
Flags: HW
HStem: 0 86<430 836.218 988 1520> 713 136<690.201 907.356> 1187 100<103 431 648 935>
VStem: 3 100<-3 1187> 431 217<370 677.107 763 1187> 989 201<262.809 630.588> 1521 197<-387 0 86 1290>
AnchorPoint: "V" 856.5 1306 basechar 0
AnchorPoint: "N" 856.5 0 basechar 0
LayerCount: 2
Fore
SplineSet
842 849 m 0
 988 849 1190 736 1190 462 c 0
 1190 262 1111 139 988 86 c 1
 1521 86 l 1
 1521 1290 l 1
 1721 1290 l 1
 1718 -387 l 1
 1520 -387 l 1
 1520 0 l 1
 430 0 l 1
 430 86 l 1
 763 86 l 1
 959 163 989 371 989 473 c 0
 989 663 861 713 791 713 c 0
 738 713 668 685 646 599 c 1
 646 370 l 1
 431 370 l 1
 431 1187 l 1
 103 1187 l 1
 103 -3 l 1
 3 -3 l 1
 3 1287 l 1
 935 1287 l 1
 935 1187 l 1
 648 1187 l 1
 648 763 l 1
 693 820 757 849 842 849 c 0
EndSplineSet
LCarets2: 1 0
EndChar

StartChar: u0B99_u0BC2
Encoding: 125 -1 125
Width: 2653
GlyphClass: 2
Flags: HW
HStem: -731 90<997.085 1490.3> -178 86<689.659 923.494> 0 86<432 838.218 990 1522> 235 142<1786.42 1986.77> 713 136<692.201 909.356> 1187 100<105 433 650 937>
VStem: 5 100<-3 1187> 433 217<370 677.107 763 1187> 530 89<-495.913 -244.998> 984 138<-493.106 -239.443> 991 201<262.809 630.588> 1523 200<-316 0 86 202.418 266 1290> 2082 239<-195.024 138.784>
AnchorPoint: "V" 1200 1306 basechar 0
AnchorPoint: "N" 1200 -750 basechar 0
LayerCount: 2
Fore
SplineSet
1167 -731 m 0xff38
 618 -731 530 -515 530 -371 c 0
 530 -189 636 -92 825 -92 c 0
 1061 -92 1122 -249 1122 -368 c 0xfed8
 1122 -465 1068 -556 989 -597 c 1
 1037 -632 1089 -641 1174 -641 c 0
 1440 -641 1737 -536 1865 -428 c 0
 1989 -324 2082 -155 2082 14 c 0
 2082 128 1970 235 1880 235 c 0
 1831 235 1748 219 1722 138 c 1
 1722 -316 l 1
 1522 -316 l 1
 1522 0 l 1
 432 0 l 1
 432 86 l 1
 765 86 l 1
 961 163 991 371 991 473 c 0
 991 663 863 713 793 713 c 0
 740 713 670 685 648 599 c 1
 648 370 l 1
 433 370 l 1
 433 1187 l 1
 105 1187 l 1
 105 -3 l 1
 5 -3 l 1
 5 1287 l 1
 937 1287 l 1
 937 1187 l 1
 650 1187 l 1
 650 763 l 1
 695 820 759 849 844 849 c 0
 990 849 1192 736 1192 462 c 0
 1192 262 1113 139 990 86 c 1
 1523 86 l 1
 1523 1290 l 1
 1723 1290 l 1
 1723 266 l 1
 1767 342 1857 377 1946 377 c 0
 2079 377 2321 254 2321 1 c 0
 2321 -117 2278 -342 1995 -535 c 0
 1864 -625 1599 -731 1167 -731 c 0xff38
984 -363 m 0
 984 -254 907 -178 807 -178 c 0
 702 -178 619 -262 619 -363 c 0
 619 -485 704 -566 818 -566 c 1
 898 -549 984 -485 984 -363 c 0
EndSplineSet
LCarets2: 1 0
EndChar

StartChar: u0B99_u0BCD
Encoding: 126 -1 126
Width: 1950
GlyphClass: 2
Flags: W
HStem: 0 86<430 836.218 988 1521> 713 136<690.201 907.356> 1187 100<103 431 648 935> 1505 326<747.658 965.089>
VStem: 3 100<-3 1187> 431 217<370 677.107 763 1187> 694 325<1558.81 1778.38> 989 201<262.809 630.588> 1521 200<86 1290>
AnchorPoint: "N" 856.5 0 basechar 0
LayerCount: 2
Fore
SplineSet
842 849 m 0xfd80
 988 849 1190 736 1190 462 c 0
 1190 262 1111 139 988 86 c 1
 1521 86 l 1
 1521 1290 l 1
 1721 1290 l 1
 1721 0 l 1
 430 0 l 1
 430 86 l 1
 763 86 l 1
 959 163 989 371 989 473 c 0
 989 663 861 713 791 713 c 0
 738 713 668 685 646 599 c 1
 646 370 l 1
 431 370 l 1
 431 1187 l 1
 103 1187 l 1
 103 -3 l 1
 3 -3 l 1
 3 1287 l 1
 935 1287 l 1
 935 1187 l 1
 648 1187 l 1
 648 763 l 1
 693 820 757 849 842 849 c 0xfd80
694 1668 m 0xfe80
 694 1762 770 1831 855 1831 c 0
 946 1831 1018 1760 1019 1668 c 0
 1019 1578 944 1505 856 1505 c 0
 768 1505 694 1579 694 1668 c 0xfe80
EndSplineSet
Validated: 1
LCarets2: 1 0
EndChar

StartChar: u0B9A
Encoding: 127 2970 127
Width: 1491
GlyphClass: 1
Flags: HW
HStem: 2 103<218.071 571.276> 648 100<198.919 262 362 692 906 1193> 1191 100<362 692 906 1193>
VStem: 1 102<215.378 546.24> 262 100<748 1191> 692 214<210.154 645 748 1191>
AnchorPoint: "V" 730 1306 basechar 0
AnchorPoint: "N" 730 0 basechar 0
LayerCount: 2
Fore
SplineSet
446 2 m 0
 184 2 1 130 1 406 c 0
 1 651 197 744 262 744 c 1
 262 1291 l 1
 1193 1291 l 1
 1193 1191 l 1
 906 1191 l 1
 906 748 l 1
 1193 748 l 1
 1193 645 l 1
 905 645 l 1
 905 304 l 2
 905 145 672 2 446 2 c 0
692 748 m 1
 692 1191 l 1
 362 1191 l 1
 362 748 l 1
 692 748 l 1
317 648 m 2
 248 648 103 589 103 383 c 0
 103 198 207 105 415 105 c 0
 545 105 690 208 692 298 c 1
 692 648 l 1
 317 648 l 2
EndSplineSet
EndChar

StartChar: u0B9A_u0BBF
Encoding: 128 -1 128
Width: 1821
GlyphClass: 1
Flags: HW
HStem: 5 101<220.071 568.102> 649 100<363 693 908 1195> 1192 99<363 693 908 1195> 1862 218<495.15 1035.81>
VStem: 4 100<217.378 548.827 991.945 1504.8> 264 99<801 1192> 693 215<213.154 648 749 1191> 1434 87<0 1493.74>
AnchorPoint: "V" 730 2078.94 basechar 0
AnchorPoint: "N" 730 0 basechar 0
LayerCount: 2
Fore
SplineSet
3 1246 m 0
 3 1582 158 2080 779 2080 c 0
 1286 2080 1521 1765 1521 1279 c 2
 1521 0 l 1
 1434 0 l 1
 1434 1296 l 2
 1434 1591 1178 1862 782 1862 c 0
 265 1862 104 1567 104 1258 c 0
 104 1077 161 895 264 801 c 1
 264 1291 l 1
 1195 1291 l 1
 1195 1191 l 1
 908 1191 l 1
 908 748 l 1
 1195 748 l 1
 1195 648 l 1
 908 648 l 1
 908 307 l 2
 908 148 675 5 449 5 c 0
 187 5 4 133 4 409 c 0
 4 602 124 699 207 731 c 1
 71 844 3 1016 3 1246 c 0
693 749 m 1
 693 1192 l 1
 363 1192 l 1
 363 749 l 1
 693 749 l 1
318 649 m 2
 249 649 104 590 104 384 c 0
 104 199 208 106 416 106 c 0
 546 106 691 209 693 299 c 1
 693 649 l 1
 318 649 l 2
EndSplineSet
LCarets2: 1 0
EndChar

StartChar: u0B95_u0BB7
Encoding: 129 -1 129
Width: 4286
GlyphClass: 2
Flags: HW
HStem: 1 175<1434.64 1651.08> 1 105<222.571 570.602 2364 3313 3518 3827.8> 518 112<3518 3691.78> 555 106<3144.52 3315> 649 100<199.951 268 365 695 912 1195 1298 1659.52> 1192 100<365 695 912 1199 1611.28 2028.5 2977.95 3240.04>
VStem: 7 99<216.378 547.24> 268 97<749 1192> 695 217<211.154 646 749 1192> 1195 99<319.878 646> 1737 214<272.135 577.444> 2338 203<338.498 847.788> 2808 88<827.456 1106.19> 3313 200<-616 1 106 518 661 1127.62> 3884 115<157.842 400.581>
AnchorPoint: "V" 2100 1306 basechar 0
AnchorPoint: "R" 3209 1215 exit 0
AnchorPoint: "N" 2100 -40 basechar 0
LayerCount: 2
Fore
SplineSet
2808 947 m 0x57fe
 2808 1108 2878 1293 3160 1293 c 256
 3450 1293 3515 1146 3515 1048 c 2
 3515 630 l 1
 3838 572 3999 462 3999 301 c 0
 3998 103 3883 1 3693 1 c 2
 3513 1 l 1
 3513 -616 l 1
 3313 -616 l 1
 3313 1 l 1
 2089 1 l 1x67fe
 2255 170 2338 365 2338 588 c 0
 2338 940 2136 1188 1833 1188 c 0
 1446 1188 1298 903 1298 745 c 1
 1596 745 l 2
 1833 745 1951 644 1951 442 c 0
 1951 206 1845 1 1627 1 c 0
 1339 1 1195 216 1195 646 c 1
 911 646 l 1
 911 305 l 2
 911 146 678 3 452 3 c 0
 190 3 7 131 7 407 c 0
 7 652 203 745 268 745 c 1
 268 1292 l 1
 1199 1292 l 1
 1199 1192 l 1
 912 1192 l 1
 912 749 l 1
 1204 749 l 1x8ffe
 1228 906 1331 1293 1837 1293 c 0
 2400 1293 2541 905 2541 600 c 0
 2541 415 2482 250 2364 106 c 1
 3316 106 l 1
 3316 555 l 1
 2977 619 2808 750 2808 947 c 0x57fe
3315 1013 m 2
 3315 1129 3220 1184 3095 1184 c 0
 2964 1184 2896 1088 2896 949 c 0
 2896 872 2936 810 3018 763 c 0
 3100 716 3199 682 3315 661 c 1x17fe
 3315 1013 l 2
3884 313 m 0
 3884 423 3729 481 3518 518 c 1x27fe
 3518 103 l 1
 3701 103 l 2
 3823 103 3884 173 3884 313 c 0
1538 176 m 0x87fe
 1698 176 1737 355 1737 438 c 0
 1737 577 1660 646 1505 646 c 2
 1294 646 l 1
 1294 555 1303 404 1326 342 c 0
 1368 231 1439 176 1538 176 c 0x87fe
695 749 m 1x0ffe
 695 1192 l 1
 365 1192 l 1
 365 749 l 1
 695 749 l 1x0ffe
320 649 m 2
 251 649 106 590 106 384 c 0
 106 199 210 106 418 106 c 0x4ffe
 548 106 693 209 695 299 c 1
 695 649 l 1
 320 649 l 2
EndSplineSet
LCarets2: 2 0 0
EndChar

StartChar: u0B95_u0BB7_u0BBF
Encoding: 130 -1 130
Width: 4601
GlyphClass: 2
Flags: HW
HStem: 3 168<1436.22 1650.08> 3 105<224.58 580.144 2365 3314 3515 3829.65> 644 103<200.797 269 362 692 913 1196 1299 1657.83> 1190 105<362 692 1596.92 2035.31 2979.44 3193.7> 1885 193<3457.22 3998.65>
VStem: 8 95<210.271 541.439> 269 93<747 1187> 692 221<206.283 644 751 1187> 1196 95<321.878 641> 1734 218<265.749 570.716> 2339 203<340.498 849.788> 2809 84<828.383 1101.06> 3127 111<1340.33 1676.85> 3314 200<-614 3 108 513 656 1118.49> 3881 119<153.741 397.001> 4229 85<-2 1669>
AnchorPoint: "V" 2100 1306 basechar 0
AnchorPoint: "N" 2100 -40 basechar 0
LayerCount: 2
Fore
SplineSet
3312 1008 m 2x3fff
 3312 1124 3217 1179 3092 1179 c 0
 2961 1179 2893 1083 2893 944 c 0
 2893 764 3142 688 3312 656 c 1
 3312 1008 l 2x3fff
3881 308 m 0
 3881 418 3726 476 3515 513 c 1
 3515 98 l 1
 3698 98 l 2
 3820 98 3881 168 3881 308 c 0
1291 641 m 1
 1291 358 1340 171 1535 171 c 0xbfff
 1695 171 1734 350 1734 433 c 0
 1734 573 1650 641 1502 641 c 2
 1291 641 l 1
692 744 m 1
 692 1187 l 1
 362 1187 l 1
 362 744 l 1
 692 744 l 1
317 644 m 2
 248 644 103 585 103 379 c 0
 103 194 207 101 415 101 c 0
 545 101 690 204 692 294 c 1
 692 644 l 1
 317 644 l 2
1205 751 m 1
 1229 908 1332 1295 1838 1295 c 0
 2401 1295 2542 907 2542 602 c 0
 2542 417 2483 252 2365 108 c 1
 3317 108 l 1
 3317 557 l 1
 2978 621 2809 752 2809 949 c 0
 2809 1110 2879 1295 3161 1295 c 1
 3197 1290 l 1
 3165 1337 3127 1453 3127 1586 c 0
 3127 1980 3434 2078 3725 2078 c 0
 4058 2078 4314 1961 4314 1491 c 2
 4314 -2 l 1
 4229 -2 l 1
 4229 1489 l 2
 4229 1727 4085 1885 3723 1885 c 0
 3400 1885 3238 1747 3238 1472 c 0
 3238 1394 3261 1328 3308 1273 c 1
 3464 1234 3513 1128 3513 1045 c 2
 3513 627 l 1
 3838 568 4000 459 4000 300 c 0
 4000 167 3939 3 3694 3 c 2
 3514 3 l 1
 3514 -614 l 1
 3314 -614 l 1
 3314 3 l 1
 2090 3 l 1x7fff
 2256 172 2339 367 2339 590 c 0
 2339 942 2137 1190 1834 1190 c 0
 1447 1190 1299 905 1299 747 c 1
 1597 747 l 2
 1834 747 1952 646 1952 444 c 0
 1952 208 1846 3 1628 3 c 0
 1340 3 1196 218 1196 648 c 1
 912 648 l 1
 912 307 l 2
 912 148 679 5 453 5 c 0
 191 5 8 133 8 409 c 0
 8 654 204 747 269 747 c 1
 269 1294 l 1
 1200 1294 l 1
 1200 1194 l 1
 913 1194 l 1
 913 751 l 1
 1205 751 l 1
EndSplineSet
LCarets2: 1 0
EndChar

StartChar: u0B95_u0BB7_u0BC0
Encoding: 131 -1 131
Width: 4286
GlyphClass: 2
Flags: HW
HStem: 1 176<1434.99 1656.76> 1 105<223.571 571.602 2364 3313 3520 3828.65> 650 95<204.919 268 367 697 912 1195 1298 1659.52> 1188 105<367 697 912 1199 1595.92 2034.31 2975.98 3116 3155.72 3247.26> 1451 92<3533.54 3769.07> 1981 171<3239.29 3493.28>
VStem: 7 101<216.878 547.74> 268 99<750 1193> 697 215<211.305 646 750 1192> 1195 101<323.273 646> 1739 212<272.816 581.458> 2338 203<338.498 847.788> 2808 90<834.347 1108.7> 2942 114<1455.69 1776.91> 3313 200<-616 1 106 519 662 1128.69> 3373 96<1607.08 1858.08> 3834 167<1607.56 1859.97> 3886 113<158.804 402.637>
AnchorPoint: "V" 2100 1306 basechar 0
AnchorPoint: "N" 2100 -40 basechar 0
LayerCount: 2
Fore
SplineSet
3391 1981 m 0x7ffd80
 3163 1981 3056 1757 3056 1593 c 0
 3056 1473 3118 1363 3199 1293 c 1
 3374 1293 3516 1195 3516 1049 c 2
 3516 631 l 1
 3900 562 3999 431 3999 298 c 0
 3999 165 3938 1 3693 1 c 2
 3513 1 l 1
 3513 -616 l 1
 3313 -616 l 1
 3313 1 l 1
 2089 1 l 1x7ffe40
 2255 170 2338 365 2338 588 c 0
 2338 940 2136 1188 1833 1188 c 0
 1446 1188 1298 903 1298 745 c 1
 1596 745 l 2
 1833 745 1951 644 1951 442 c 0
 1951 206 1845 1 1627 1 c 0xbffe40
 1339 1 1195 216 1195 646 c 1
 911 646 l 1
 911 305 l 2
 911 146 678 3 452 3 c 0
 190 3 7 131 7 407 c 0
 7 652 203 745 268 745 c 1
 268 1292 l 1
 1199 1292 l 1
 1199 1192 l 1
 912 1192 l 1
 912 749 l 1
 1204 749 l 1
 1228 906 1331 1293 1837 1293 c 0
 2400 1293 2541 905 2541 600 c 0
 2541 415 2482 250 2364 106 c 1
 3316 106 l 1
 3316 555 l 1
 2977 619 2808 750 2808 947 c 0
 2808 1159 2931 1291 3116 1291 c 1
 3037 1361 2942 1480 2942 1628 c 0
 2942 2006 3214 2152 3466 2152 c 0
 3607 2152 3731 2123 3839 2064 c 0
 3947 2005 4001 1904 4001 1761 c 0
 4001 1579 3869 1451 3673 1451 c 0
 3458 1451 3373 1604 3373 1729 c 0
 3373 1820 3417 1931 3496 1973 c 1
 3460 1978 3425 1981 3391 1981 c 0x7ffd80
3469 1729 m 0x3ffd80
 3469 1629 3544 1543 3646 1543 c 0
 3744 1543 3834 1617 3834 1728 c 0
 3833 1845 3754 1932 3635 1932 c 1
 3540 1913 3469 1834 3469 1729 c 0x3ffd80
3317 1014 m 2
 3317 1130 3222 1185 3097 1185 c 0
 2966 1185 2898 1089 2898 950 c 0
 2898 770 3147 694 3317 662 c 1
 3317 1014 l 2
3886 314 m 0x3ffc40
 3886 424 3731 482 3520 519 c 1
 3520 104 l 1
 3703 104 l 2
 3825 104 3886 174 3886 314 c 0x3ffc40
1296 647 m 1
 1296 368 1345 177 1540 177 c 0xbffc
 1699 177 1739 357 1739 439 c 0
 1739 578 1662 647 1507 647 c 2
 1296 647 l 1
697 750 m 1
 697 1193 l 1
 367 1193 l 1
 367 750 l 1
 697 750 l 1
322 650 m 2
 253 650 108 591 108 385 c 0
 108 200 212 107 420 107 c 0
 550 107 695 210 697 300 c 1
 697 650 l 1
 322 650 l 2
EndSplineSet
LCarets2: 2 0 0
EndChar

StartChar: u0B95_u0BB7_u0BCD
Encoding: 132 -1 132
Width: 4286
GlyphClass: 2
Flags: W
HStem: 1 175<1434.64 1650.86> 1 105<222.571 570.602 2364 3313 3518 3827.8> 518 112<3518 3691.78> 649 100<199.951 268 365 695 912 1195 1298 1659.52> 1192 100<365 695 912 1199 1611.28 2028.5 2977.95 3240.04> 1510 326<2408.66 2630.18>
VStem: 7 99<216.378 547.24> 268 97<749 1192> 695 217<211.154 646 749 1192> 1195 99<319.878 646> 1737 214<272.679 577.444> 2338 203<338.498 847.788> 2358 324<1563.41 1784.29> 2808 88<832.724 1106.19> 3313 200<-616 1 106 518 661 1127.62> 3884 115<157.842 400.581>
AnchorPoint: "N" 2100 -40 basechar 0
LayerCount: 2
Fore
SplineSet
2808 947 m 0x7ff7
 2808 1108 2878 1293 3160 1293 c 256
 3450 1293 3515 1146 3515 1048 c 2
 3515 630 l 1
 3838 572 3999 462 3999 301 c 0
 3998 103 3883 1 3693 1 c 2
 3513 1 l 1
 3513 -616 l 1
 3313 -616 l 1
 3313 1 l 1
 2089 1 l 1x7ff7
 2255 170 2338 365 2338 588 c 0
 2338 940 2136 1188 1833 1188 c 0
 1446 1188 1298 903 1298 745 c 1
 1596 745 l 2
 1833 745 1951 644 1951 442 c 0
 1951 206 1845 1 1627 1 c 0xbff7
 1339 1 1195 216 1195 646 c 1
 911 646 l 1
 911 305 l 2
 911 146 678 3 452 3 c 0
 190 3 7 131 7 407 c 0
 7 652 203 745 268 745 c 1
 268 1292 l 1
 1199 1292 l 1
 1199 1192 l 1
 912 1192 l 1
 912 749 l 1
 1204 749 l 1
 1228 906 1331 1293 1837 1293 c 0
 2400 1293 2541 905 2541 600 c 0
 2541 415 2482 250 2364 106 c 1
 3316 106 l 1
 3316 555 l 1
 2977 619 2808 750 2808 947 c 0x7ff7
3315 1013 m 2
 3315 1129 3220 1184 3095 1184 c 0
 2964 1184 2896 1088 2896 949 c 0
 2896 794 3076 716 3244 677 c 1
 3315 661 l 1
 3315 1013 l 2
3884 313 m 0
 3884 423 3729 481 3518 518 c 1
 3518 103 l 1
 3701 103 l 2
 3823 103 3884 173 3884 313 c 0
1538 176 m 0xbfe7
 1697 176 1737 358 1737 438 c 0
 1737 577 1660 646 1505 646 c 2
 1294 646 l 1
 1294 555 1303 404 1326 342 c 0
 1368 231 1439 176 1538 176 c 0xbfe7
695 749 m 1
 695 1192 l 1
 365 1192 l 1
 365 749 l 1
 695 749 l 1
320 649 m 2
 251 649 106 590 106 384 c 0
 106 199 210 106 418 106 c 0x7fe7
 548 106 693 209 695 299 c 1
 695 649 l 1
 320 649 l 2
2519 1510 m 0
 2432 1510 2358 1580 2358 1673 c 256
 2358 1761 2424 1836 2519 1836 c 0
 2613 1836 2682 1760 2682 1673 c 0x3fef
 2682 1583 2607 1510 2519 1510 c 0
EndSplineSet
LCarets2: 2 0 0
EndChar

StartChar: u0B9A_u0BC0
Encoding: 133 -1 133
Width: 1477
GlyphClass: 1
Flags: HW
HStem: 7 98<217.571 570.776> 648 100<362 692 904 1188> 1191 102<362 692 904 1188> 1449 89<985.761 1220.14> 1981 169<615.546 944.776>
VStem: 0 103<213.271 547.191 984.989 1489.37> 260 102<803 1191> 692 212<209.305 648 750 1191> 824 98<1600.25 1853.73> 1288 166<1605.27 1852.64>
AnchorPoint: "V" 730 2133.96 basechar 0
AnchorPoint: "N" 730 0 basechar 0
LayerCount: 2
Fore
SplineSet
922 1723 m 0xfec0
 922 1613 1006 1538 1099 1538 c 0
 1207 1538 1288 1626 1288 1726 c 0
 1288 1825 1218 1927 1087 1927 c 1
 989 1908 922 1825 922 1723 c 0xfec0
692 748 m 1xff40
 692 1191 l 1
 362 1191 l 1
 362 748 l 1
 692 748 l 1xff40
317 648 m 2
 248 648 103 589 103 383 c 0
 103 198 207 105 415 105 c 0
 545 105 690 208 692 298 c 1
 692 648 l 1
 317 648 l 2
445 7 m 0
 183 7 0 135 0 411 c 0
 0 609 126 703 204 731 c 1
 68 844 0 1016 0 1246 c 0
 0 1788 387 2150 919 2150 c 0
 1060 2150 1184 2121 1292 2062 c 0
 1400 2003 1454 1902 1454 1759 c 0
 1454 1576 1321 1449 1124 1449 c 0
 909 1449 824 1603 824 1727 c 0xfec0
 824 1820 867 1926 946 1973 c 1
 910 1978 875 1981 841 1981 c 0
 370 1981 100 1581 100 1260 c 0
 100 1079 157 897 260 803 c 1
 260 1293 l 1
 1188 1293 l 1
 1188 1193 l 1
 904 1193 l 1
 904 750 l 1
 1188 750 l 1
 1188 650 l 1
 904 650 l 1
 904 309 l 2
 904 150 671 7 445 7 c 0
EndSplineSet
LCarets2: 1 0
EndChar

StartChar: u0B9A_u0BC1
Encoding: 134 -1 134
Width: 1950
GlyphClass: 2
Flags: HW
HStem: 4 99<217.571 570.776> 646 100<198.919 262 361 691 906 1189 1406 1663> 1189 104<361 691 906 1193>
VStem: 1 101<215.378 546.24> 262 99<746 1189> 691 215<207.305 646 750 1189> 1189 217<2 647>
AnchorPoint: "V" 730 1306 basechar 0
AnchorPoint: "N" 730 0 basechar 0
LayerCount: 2
Fore
SplineSet
691 746 m 1
 691 1189 l 1
 361 1189 l 1
 361 746 l 1
 691 746 l 1
316 646 m 2
 247 646 102 587 102 381 c 0
 102 196 206 103 414 103 c 0
 544 103 689 206 691 296 c 1
 691 646 l 1
 316 646 l 2
446 4 m 0
 184 4 1 132 1 408 c 0
 1 653 197 746 262 746 c 1
 262 1293 l 1
 1193 1293 l 1
 1193 1193 l 1
 906 1193 l 1
 906 750 l 1
 1663 750 l 1
 1663 650 l 1
 1406 650 l 1
 1406 2 l 1
 1189 2 l 1
 1189 647 l 1
 905 647 l 1
 905 306 l 2
 905 147 672 4 446 4 c 0
EndSplineSet
LCarets2: 1 0
EndChar

StartChar: u0B9A_u0BC2
Encoding: 135 -1 135
Width: 2221
GlyphClass: 2
Flags: HW
HStem: -710 102<587.149 1204.01> -167 72<408.87 796.706> 4 99<217.571 570.776> 395 129<1428.64 1609.81> 646 100<198.919 262 361 691 906 1189 1406 1663> 1189 104<361 691 906 1193>
VStem: 1 101<215.378 546.24> 229 95<-454.074 -228.815> 262 99<746 1189> 691 215<207.305 646 750 1189> 1189 217<2 387.701 456 647> 1721 214<-170.861 265.484>
AnchorPoint: "V" 1100 1306 basechar 0
AnchorPoint: "N" 1100 -750 basechar 0
LayerCount: 2
Fore
SplineSet
691 746 m 1xfef0
 691 1189 l 1
 361 1189 l 1
 361 746 l 1
 691 746 l 1xfef0
316 646 m 2
 247 646 102 587 102 381 c 0
 102 196 206 103 414 103 c 0
 544 103 689 206 691 296 c 1
 691 646 l 1
 316 646 l 2
324 -333 m 0xff70
 324 -553 669 -608 920 -608 c 0
 1396 -608 1721 -293 1721 43 c 0
 1721 315 1585 395 1495 395 c 0
 1459 395 1430 383 1408 360 c 1
 1404 2 l 1
 1189 2 l 1
 1189 647 l 1
 905 647 l 1
 905 306 l 2
 905 147 672 4 446 4 c 0
 184 4 1 132 1 408 c 0
 1 653 197 746 262 746 c 1
 262 1293 l 1xfef0
 1193 1293 l 1
 1193 1193 l 1
 906 1193 l 1
 906 750 l 1
 1663 750 l 1
 1663 650 l 1
 1406 650 l 1
 1406 456 l 1
 1432 495 1503 524 1574 524 c 0
 1718 524 1935 408 1935 51 c 0
 1935 -406 1542 -710 1005 -710 c 0
 352 -710 229 -489 229 -341 c 0
 229 -193 372 -95 595 -95 c 0
 782 -95 915 -167 980 -227 c 1
 951 -278 l 1
 875 -218 727 -167 580 -167 c 0
 471 -167 324 -200 324 -333 c 0xff70
EndSplineSet
LCarets2: 1 0
EndChar

StartChar: u0B9A_u0BCD
Encoding: 136 -1 136
Width: 1491
GlyphClass: 2
Flags: W
HStem: 2 103<218.071 571.276> 648 100<198.919 262 362 692 906 1192> 1191 100<362 692 906 1193> 1509 326<621.658 841.176>
VStem: 1 102<215.378 546.24> 262 100<748 1191> 568 325<1562.81 1783.18> 692 214<210.154 645 748 1191>
AnchorPoint: "N" 730.5 12.1328 basechar 0
LayerCount: 2
Fore
SplineSet
446 2 m 0xfd
 184 2 1 130 1 406 c 0
 1 651 197 744 262 744 c 1
 262 1291 l 1
 1193 1291 l 1
 1193 1191 l 1
 906 1191 l 1
 906 748 l 1
 1193 748 l 1
 1192 645 l 1
 905 645 l 1
 905 304 l 2
 905 145 672 2 446 2 c 0xfd
692 748 m 1
 692 1191 l 1
 362 1191 l 1
 362 748 l 1
 692 748 l 1
317 648 m 2
 248 648 103 589 103 383 c 0
 103 198 207 105 415 105 c 0
 545 105 690 208 692 298 c 1
 692 648 l 1
 317 648 l 2
730 1509 m 0
 642 1509 568 1583 568 1672 c 0
 568 1766 642 1835 730 1835 c 0
 824 1835 893 1759 893 1672 c 0xfe
 893 1582 818 1509 730 1509 c 0
EndSplineSet
Validated: 1
LCarets2: 1 0
EndChar

StartChar: u0B9C
Encoding: 137 2972 137
Width: 1863
GlyphClass: 1
Flags: HW
HStem: -477 110<323.161 652.204 1052.98 1329.46> 11 113<1087.26 1329.72> 444 126<165.578 365.427> 907 134<173.464 358.082> 1183 102<276.7 639.979 1011.78 1260.26>
VStem: 0 203<-246.603 70.9155> 3 98<644.259 862.79 921 1030.36> 409 183<612.208 858.094> 747 200<610 1080.88> 1375 201<-325.437 -31.453 568.947 1055.72>
AnchorPoint: "V" 854 1306 basechar 0
AnchorPoint: "R" 1201 1188 exit 0
AnchorPoint: "N" 854 -438.554 basechar 0
LayerCount: 2
Fore
SplineSet
1375 -184 m 0xfdc0
 1375 -35 1319 11 1187 11 c 0
 997 11 880 -477 502 -477 c 0
 220 -477 0 -373 0 -80 c 0xfdc0
 0 172 294 312 690 340 c 0
 1111 370 1252 373 1328 561 c 0
 1359 638 1375 737 1375 857 c 0
 1375 992 1324 1185 1118 1185 c 0
 981 1185 947 1026 947 971 c 2
 947 610 l 1
 747 610 l 1
 747 955 l 2
 747 1046 677 1183 470 1183 c 0
 276 1183 107 1056 107 921 c 1
 154 1001 226 1041 322 1041 c 0
 503 1041 592 880 592 739 c 0
 592 547 470 444 295 444 c 0
 100 444 3 585 3 868 c 0xfbc0
 3 987 50 1086 143 1166 c 0
 236 1246 358 1285 509 1285 c 0
 709 1285 831 1231 874 1122 c 1
 915 1231 1005 1285 1144 1285 c 0
 1433 1285 1577 1110 1577 837 c 0
 1577 703 1541 445 1350 346 c 0
 1344 343 1303 318 1256 304 c 2
 1212 291 l 2
 1132 269 981 252 792 252 c 0
 283 252 203 56 203 -75 c 0
 203 -283 343 -367 469 -367 c 0
 652 -367 743 -272 822 -162 c 2
 880 -81 l 2
 983 65 1098 124 1257 124 c 0
 1450 124 1576 23 1576 -161 c 0
 1576 -296 1505 -475 1235 -475 c 0
 1154 -475 1088 -461 1036 -432 c 1
 1061 -358 l 1
 1094 -369 1144 -374 1209 -374 c 0
 1342 -374 1375 -271 1375 -184 c 0xfdc0
270 570 m 0
 381 570 409 685 409 745 c 0
 409 829 347 907 255 907 c 0
 191 907 140 873 101 804 c 1xfbc0
 101 681 158 570 270 570 c 0
EndSplineSet
EndChar

StartChar: u0B9C_u0BBF
Encoding: 138 -1 138
Width: 2237
GlyphClass: 2
Flags: HW
HStem: -472 106<323.238 650.678 1050.98 1327.89> 11 113<1083.11 1331.52> 450 122<168.209 365.871> 912 131<171.687 361.174> 1189 100<278.072 640.186 1160.66 1257.34> 1889 191<1300.94 1696.17>
VStem: 0 203<-246.092 74.4813> 3 100<644.375 867.79 927 1040.09> 409 183<616.577 865.012> 747 200<616 1086.39> 1020 111<1335.76 1705.1> 1373 201<-323.182 -30.5893 576.249 1064.28> 1862 86<2 1700.75>
AnchorPoint: "V" 854 1306 basechar 0
AnchorPoint: "N" 854 -438.554 basechar 0
LayerCount: 2
Fore
SplineSet
272 572 m 0xfdf8
 382 572 409 689 409 750 c 0
 409 835 348 912 257 912 c 0
 193 912 142 878 103 809 c 1
 103 686 160 572 272 572 c 0xfdf8
592 745 m 0
 592 553 470 450 295 450 c 0
 100 450 3 591 3 874 c 0xfdf8
 3 1114 205 1289 509 1289 c 0
 710 1289 831 1235 874 1128 c 1
 909 1216 982 1268 1091 1284 c 1
 1044 1359 1020 1460 1020 1588 c 0
 1020 1802 1117 2080 1503 2080 c 0
 1714 2080 1808 1992 1871 1884 c 0
 1931 1781 1948 1628 1948 1495 c 2
 1948 2 l 1
 1862 2 l 1
 1862 1493 l 2
 1862 1603 1833 1697 1776 1774 c 0
 1719 1851 1626 1889 1499 1889 c 0
 1311 1889 1131 1803 1131 1477 c 0
 1131 1399 1151 1334 1191 1282 c 1
 1366 1282 1577 1182 1577 843 c 0
 1577 287 1213 258 792 258 c 0
 288 258 203 59 203 -73 c 0
 203 -279 341 -366 469 -366 c 0
 662 -366 753 -247 808 -174 c 2
 889 -68 l 2
 952 12 1048 124 1255 124 c 0
 1448 124 1574 26 1574 -158 c 0
 1574 -290 1506 -475 1233 -475 c 0
 1152 -475 1086 -461 1034 -432 c 1
 1059 -358 l 1
 1092 -369 1142 -374 1207 -374 c 0
 1340 -374 1373 -268 1373 -181 c 0
 1373 -38 1323 11 1185 11 c 0
 988 11 888 -472 502 -472 c 0
 65 -472 0 -236 0 -78 c 0xfef8
 0 259 481 325 780 345 c 0
 1202 373 1278 425 1332 577 c 0
 1361 658 1375 753 1375 863 c 0
 1375 998 1324 1187 1118 1187 c 0
 977 1187 947 1024 947 977 c 2
 947 616 l 1
 747 616 l 1
 747 961 l 2
 747 1052 677 1189 470 1189 c 0
 276 1189 107 1062 107 927 c 1
 153 1004 225 1043 322 1043 c 0
 491 1043 592 902 592 745 c 0
EndSplineSet
LCarets2: 1 0
EndChar

StartChar: u0B9C_u0BC0
Encoding: 139 -1 139
Width: 1964
GlyphClass: 2
Flags: HW
HStem: -477 110<323.161 652.204 1052.98 1329.46> 11 113<1087.26 1329.72> 444 126<165.578 365.427> 907 134<173.464 358.082> 1183 102<276.7 639.979 1148.65 1263.21> 1441 92<1518.22 1752.06> 1973 169<1233.02 1482.38>
VStem: 0 203<-246.603 70.9155> 3 98<644.259 862.79 921 1030.36> 409 183<612.208 858.094> 747 200<610 1080.88> 934 111<1447.48 1776.79> 1363 92<1593.75 1847.23> 1375 201<-325.437 -31.453 568.947 1056.58> 1821 172<1602.1 1849.22>
AnchorPoint: "V" 854 1306 basechar 0
AnchorPoint: "N" 854 -438.554 basechar 0
LayerCount: 2
Fore
SplineSet
874 1122 m 1xfee6
 906 1218 989 1278 1104 1284 c 17
 1021 1354 934 1482 934 1619 c 0
 934 2037 1254 2142 1458 2142 c 0
 1708 2142 1993 2040 1993 1751 c 0
 1993 1568 1860 1441 1663 1441 c 0
 1448 1441 1363 1595 1363 1719 c 0xfeda
 1363 1812 1406 1918 1485 1965 c 1
 1447 1970 1412 1973 1379 1973 c 0
 1187 1973 1045 1795 1045 1585 c 0
 1045 1465 1091 1374 1192 1284 c 1
 1463 1281 1577 1052 1577 837 c 0
 1577 703 1541 445 1350 346 c 0
 1344 343 1303 318 1256 304 c 2
 1212 291 l 2
 1132 269 981 252 792 252 c 0
 283 252 203 56 203 -75 c 0
 203 -283 343 -367 469 -367 c 0
 652 -367 743 -272 822 -162 c 2
 880 -81 l 2
 983 65 1098 124 1257 124 c 0
 1450 124 1576 23 1576 -161 c 0
 1576 -296 1505 -475 1235 -475 c 0
 1154 -475 1088 -461 1036 -432 c 1
 1061 -358 l 1
 1094 -369 1144 -374 1209 -374 c 0
 1342 -374 1375 -271 1375 -184 c 0
 1375 -35 1319 11 1187 11 c 0
 997 11 880 -477 502 -477 c 0
 220 -477 0 -373 0 -80 c 0xff56
 0 172 294 312 690 340 c 0
 1111 370 1252 373 1328 561 c 0
 1359 638 1375 737 1375 857 c 0
 1375 992 1324 1185 1118 1185 c 0
 981 1185 947 1026 947 971 c 2
 947 610 l 1
 747 610 l 1
 747 955 l 2
 747 1046 677 1183 470 1183 c 0
 276 1183 107 1056 107 921 c 1
 154 1001 226 1041 322 1041 c 0
 503 1041 592 880 592 739 c 0
 592 547 470 444 295 444 c 0
 100 444 3 585 3 868 c 0
 3 987 50 1086 143 1166 c 0
 236 1246 358 1285 509 1285 c 0
 709 1285 831 1231 874 1122 c 1xfee6
270 570 m 0
 381 570 409 685 409 745 c 0
 409 829 347 907 255 907 c 0
 191 907 140 873 101 804 c 1
 101 681 158 570 270 570 c 0
1455 1718 m 0
 1455 1608 1539 1533 1632 1533 c 0
 1740 1533 1821 1621 1821 1721 c 0
 1821 1820 1751 1922 1620 1922 c 1
 1522 1903 1455 1820 1455 1718 c 0
EndSplineSet
LCarets2: 1 0
EndChar

StartChar: u0B9C_u0BCD
Encoding: 140 -1 140
Width: 1863
GlyphClass: 2
Flags: W
HStem: -472 106<323.238 650.678 1050.98 1327.89> 11 113<1083.11 1331.52> 450 122<168.209 365.871> 912 131<171.687 361.174> 1189 100<278.072 640.186 1014.1 1255.91> 1501 326<745.205 963.589>
VStem: 0 203<-246.092 74.4813> 3 100<644.375 867.79 927 1040.09> 409 183<616.577 865.012> 691 326<1554.41 1773.59> 747 200<616 1086.39> 1373 201<-323.182 -30.5893 575.197 1064.72>
AnchorPoint: "N" 854 -438.554 basechar 0
LayerCount: 2
Fore
SplineSet
272 572 m 0xfd90
 382 572 409 689 409 750 c 0
 409 835 348 912 257 912 c 0
 193 912 142 878 103 809 c 1
 103 686 160 572 272 572 c 0xfd90
3 874 m 0
 3 1114 205 1289 509 1289 c 0
 710 1289 831 1235 874 1128 c 1
 933 1273 1096 1292 1167 1292 c 0
 1377 1292 1577 1138 1577 837 c 0
 1577 290 1217 258 792 258 c 0
 288 258 203 59 203 -73 c 0
 203 -279 341 -366 469 -366 c 0
 662 -366 753 -247 808 -174 c 2
 889 -68 l 2
 952 12 1048 124 1255 124 c 0
 1448 124 1574 26 1574 -158 c 0
 1574 -290 1506 -475 1233 -475 c 0
 1152 -475 1086 -461 1034 -432 c 1
 1059 -358 l 1
 1092 -369 1142 -374 1207 -374 c 0
 1340 -374 1373 -268 1373 -181 c 0
 1373 -38 1323 11 1185 11 c 0
 988 11 888 -472 502 -472 c 0
 65 -472 0 -236 0 -78 c 0
 0 259 481 325 780 345 c 0
 1202 373 1278 425 1332 577 c 0
 1361 658 1375 753 1375 863 c 0
 1375 998 1324 1187 1118 1187 c 0
 977 1187 947 1024 947 977 c 2
 947 616 l 1
 747 616 l 1
 747 961 l 2xfeb0
 747 1052 677 1189 470 1189 c 0
 276 1189 107 1062 107 927 c 1
 153 1004 225 1043 322 1043 c 0
 491 1043 592 902 592 745 c 0
 592 553 470 450 295 450 c 0
 100 450 3 591 3 874 c 0
854 1501 m 0
 769 1501 691 1574 691 1664 c 256
 691 1754 766 1827 854 1827 c 0
 944 1827 1017 1752 1017 1664 c 0xfcd0
 1017 1579 944 1501 854 1501 c 0
EndSplineSet
Validated: 1
LCarets2: 1 0
EndChar

StartChar: u0B9E
Encoding: 141 2974 141
Width: 2538
GlyphClass: 1
Flags: HW
HStem: -573 100<756.203 1464.53> 0 174<587.457 803.051> 635 139<1661.34 1914.01> 709 138<534.32 777.146> 1189 101<748.235 1392 1608 1895>
VStem: 4 99<137.61 806.178> 348 99<315.274 880.359> 885 218<263.698 588.63> 1392 214<-1 598.327 675 1189> 2034 217<31.5716 496.756>
AnchorPoint: "V" 1299 1306 basechar 0
AnchorPoint: "N" 1299 -573 basechar 0
LayerCount: 2
Fore
SplineSet
1608 675 m 1xdfc0
 1646 742 1739 774 1825 774 c 0
 2117 774 2251 541 2251 273 c 0
 2251 -342 1695 -573 1120 -573 c 0
 478 -573 4 -250 4 429 c 0
 4 664 61 1071 296 1287 c 1
 359 1230 l 1
 146 1017 103 657 103 420 c 0
 103 -116 503 -473 1096 -473 c 0
 1858 -473 2034 -14 2034 292 c 0
 2034 415 1988 635 1778 635 c 0xefc0
 1694 635 1637 605 1606 546 c 1
 1606 -1 l 1
 1392 -1 l 1
 1392 1189 l 1
 985 1189 l 2
 609 1189 452 920 452 732 c 1
 498 801 603 847 727 847 c 0
 953 847 1103 682 1103 442 c 0
 1103 213 1025 0 779 0 c 0
 434 0 348 328 348 593 c 0
 348 1016 582 1290 960 1290 c 2
 1895 1290 l 1
 1895 1190 l 1
 1608 1190 l 1
 1608 675 l 1xdfc0
447 549 m 1
 447 275 573 174 690 174 c 0
 819 174 885 296 885 430 c 0
 885 592 770 709 663 709 c 0xdfc0
 530 709 468 619 447 549 c 1
EndSplineSet
EndChar

StartChar: u0B9E_u0BBF
Encoding: 142 -1 142
Width: 2809
GlyphClass: 2
Flags: HW
HStem: -570 99<786.207 1439.84> 1 169<586.957 803.366> 677 146<1665.57 1862.42> 705 143<533.82 777.694> 1190 101<747.235 1391 1606 1893> 1887 191<1740.71 2251.37>
VStem: 1 99<163.577 808.178> 347 100<313.774 881.359> 885 217<257.961 588.791> 1391 214<0 647.703 721 1190> 1421 111<1343.28 1686.23> 2003 201<7.15045 502.778> 2437 85<0 1703.17>
AnchorPoint: "V" 1299 1306 basechar 0
AnchorPoint: "N" 1299 -573 basechar 0
LayerCount: 2
Fore
SplineSet
347 594 m 0xdfd8
 347 1017 581 1291 959 1291 c 2
 1489 1291 l 1
 1444 1380 1421 1479 1421 1588 c 0
 1421 1882 1583 2078 1991 2078 c 0
 2437 2078 2522 1841 2522 1491 c 2
 2522 0 l 1
 2437 0 l 1
 2437 1491 l 2
 2437 1825 2230 1887 1988 1887 c 0
 1684 1887 1532 1749 1532 1474 c 0
 1532 1403 1552 1342 1592 1291 c 1
 1893 1291 l 1
 1893 1191 l 1
 1606 1191 l 1
 1606 721 l 1
 1628 748 1681 823 1825 823 c 0
 1977 823 2204 668 2204 225 c 0
 2204 -93 1999 -570 1088 -570 c 0
 473 -570 1 -170 1 431 c 0
 1 666 58 1073 293 1289 c 1
 356 1232 l 1
 143 1019 100 659 100 422 c 0
 100 -114 576 -471 1094 -471 c 0
 1821 -471 2003 -40 2003 248 c 0
 2003 572 1850 677 1748 677 c 0xefb8
 1687 677 1640 652 1605 602 c 1
 1605 0 l 1
 1391 0 l 1
 1391 1190 l 1
 984 1190 l 2
 608 1190 451 921 451 733 c 1
 497 802 602 848 726 848 c 0
 952 848 1102 683 1102 443 c 0
 1102 214 1024 1 778 1 c 0
 433 1 347 329 347 594 c 0xdfd8
447 545 m 1
 447 271 573 170 690 170 c 0
 821 170 888 297 885 434 c 1
 885 567 785 705 663 705 c 0xdf98
 530 705 468 615 447 545 c 1
EndSplineSet
LCarets2: 1 0
EndChar

StartChar: u0B9E_u0BC0
Encoding: 143 -1 143
Width: 2538
GlyphClass: 2
Flags: HW
HStem: -570 100<755.203 1456.28> 3 169<587.457 802.344> 638 137<1660.84 1913.74> 707 143<532.461 778.963> 1192 101<747.235 1391 1608 1895> 1449 88<1819.26 2047.97> 1980 170<1523.97 1774.84>
VStem: 3 99<140.61 809.178> 347 101<315.774 883.359> 886 216<258.748 590.131> 1229 112<1449.71 1784.29> 1391 214<2 601.327 676 1191> 1658 97<1599.75 1850.89> 2033 217<31.26 499.026> 2121 167<1605.15 1852.92>
AnchorPoint: "V" 1299 1916.84 basechar 0
AnchorPoint: "N" 1299 -573 basechar 0
LayerCount: 2
Fore
SplineSet
448 547 m 1xdff8
 448 273 574 172 691 172 c 0
 808 172 886 279 886 429 c 0
 886 594 769 707 664 707 c 0
 531 707 469 617 448 547 c 1xdff8
1755 1722 m 0
 1755 1612 1839 1537 1932 1537 c 0
 2040 1537 2121 1625 2121 1725 c 0xcffa
 2121 1824 2051 1926 1920 1926 c 1
 1822 1907 1755 1824 1755 1722 c 0
1658 1727 m 0
 1658 1816 1702 1930 1781 1972 c 1
 1743 1977 1708 1980 1675 1980 c 0
 1483 1980 1341 1802 1341 1592 c 0
 1341 1442 1429 1334 1477 1293 c 1
 1895 1293 l 1
 1895 1191 l 1
 1608 1191 l 1
 1608 676 l 1
 1646 743 1739 775 1825 775 c 0
 2104 775 2250 536 2250 301 c 0
 2250 -333 1724 -570 1119 -570 c 0
 477 -570 3 -247 3 432 c 0
 3 667 60 1074 295 1290 c 1
 358 1233 l 1
 145 1020 102 660 102 423 c 0
 102 -113 502 -470 1095 -470 c 0
 1857 -470 2033 -11 2033 295 c 0
 2033 428 1982 638 1777 638 c 0xeffc
 1693 638 1636 608 1605 549 c 1
 1605 2 l 1
 1391 2 l 1
 1391 1192 l 1
 984 1192 l 2
 608 1192 451 923 451 735 c 1
 497 804 602 850 726 850 c 0xdffc
 952 850 1102 685 1102 445 c 0
 1102 216 1024 3 778 3 c 0
 433 3 347 331 347 596 c 0
 347 1019 581 1293 959 1293 c 2
 1395 1293 l 1
 1327 1350 1229 1474 1229 1627 c 0
 1229 2045 1549 2150 1747 2150 c 0
 1996 2150 2288 2072 2288 1760 c 0
 2288 1577 2156 1449 1958 1449 c 0
 1743 1449 1658 1603 1658 1727 c 0
EndSplineSet
LCarets2: 1 0
EndChar

StartChar: u0B9E_u0BC1
Encoding: 144 -1 144
Width: 3082
GlyphClass: 2
Flags: HW
HStem: -715 100<697.087 1406.21> -216 101<141.015 1883 2169 2580> 0 172<589.457 804.344> 635 139<1664.34 1917.24> 707 140<538.223 775.926> 1189 101<751.235 1395 1611 1898>
VStem: 351 97<314.274 880.359> 886 220<257.248 588.631> 1395 214<-1 598.327 675 1189> 2037 216<14.3786 497.026> 2580 215<-114 1291>
AnchorPoint: "V" 1400 1306 basechar 0
AnchorPoint: "N" 1400 -750 basechar 0
LayerCount: 2
Fore
SplineSet
448 547 m 1xefe0
 448 273 574 172 691 172 c 0
 808 172 886 279 886 429 c 0
 886 594 769 707 664 707 c 0
 531 707 469 617 448 547 c 1xefe0
141 -246 m 0
 141 -313 445 -615 1098 -615 c 0
 1276 -615 1431 -579 1562 -506 c 0
 1693 -433 1800 -336 1883 -216 c 1
 201 -216 l 2
 161 -216 141 -226 141 -246 c 0
1611 675 m 1
 1649 742 1742 774 1828 774 c 0
 2107 774 2253 535 2253 300 c 0
 2253 159 2225 21 2169 -114 c 1
 2580 -114 l 1
 2580 1291 l 1
 2795 1291 l 1
 2795 -215 l 1
 2119 -215 l 1
 2000 -418 1719 -715 1119 -715 c 0
 336 -715 21 -324 6 -191 c 1
 6 -140 37 -115 98 -115 c 2
 1941 -115 l 1
 2005 16 2037 151 2037 292 c 0
 2037 425 1986 635 1781 635 c 0xf7e0
 1697 635 1640 605 1609 546 c 1
 1609 -1 l 1
 1395 -1 l 1
 1395 1189 l 1
 988 1189 l 2
 612 1189 455 920 455 732 c 1
 501 801 606 847 730 847 c 0
 956 847 1106 682 1106 442 c 0
 1106 213 1028 0 782 0 c 0
 437 0 351 328 351 593 c 0
 351 1016 585 1290 963 1290 c 2
 1898 1290 l 1
 1898 1190 l 1
 1611 1190 l 1
 1611 675 l 1
EndSplineSet
LCarets2: 1 0
EndChar

StartChar: u0B9E_u0BC2
Encoding: 145 -1 145
Width: 3799
GlyphClass: 2
Flags: HW
HStem: -708 95<692.634 1397.54> -209 100<125.015 1883 2166 2577> 3 169<584.38 801.844> 638 139<1659.34 1912.24> 707 143<531.961 778.463> 1196 100<761.156 1390 1606 1893 2678 3008 3222 3509>
VStem: 346 102<315.774 883.359> 886 215<258.748 590.131> 1390 214<2 601.327 678 1192> 2032 216<15.6692 500.225> 2577 101<-109 1196> 3008 214<-209 1196>
AnchorPoint: "V" 1400 1306 basechar 0
AnchorPoint: "N" 1400 -750 basechar 0
LayerCount: 2
Fore
SplineSet
448 547 m 1xeff0
 448 273 574 172 691 172 c 0
 808 172 886 279 886 429 c 0
 886 594 769 707 664 707 c 0
 531 707 469 617 448 547 c 1xeff0
125 -246 m 0
 125 -315 438 -613 1094 -613 c 0
 1228 -613 1614 -598 1883 -216 c 1
 185 -216 l 2
 145 -216 125 -226 125 -246 c 0
1823 777 m 0xf7f0
 2102 777 2248 538 2248 303 c 0
 2248 155 2221 18 2166 -109 c 1
 2577 -109 l 1
 2577 1296 l 1
 3509 1296 l 1
 3509 1196 l 1
 3222 1196 l 1
 3222 -209 l 1
 3008 -209 l 1
 3008 1196 l 1
 2678 1196 l 1
 2678 -209 l 1
 2114 -209 l 1
 1996 -412 1715 -708 1117 -708 c 0
 334 -708 19 -317 4 -184 c 1
 4 -133 35 -108 96 -108 c 2
 1936 -112 l 1
 2000 19 2032 154 2032 295 c 0
 2032 429 1981 638 1776 638 c 0xf7f0
 1692 638 1635 608 1604 549 c 1
 1604 2 l 1
 1390 2 l 1
 1390 1192 l 1
 983 1192 l 2
 607 1192 450 923 450 735 c 1
 496 804 601 850 725 850 c 0xeff0
 951 850 1101 685 1101 445 c 0
 1101 216 1023 3 777 3 c 0
 432 3 346 331 346 596 c 0
 346 1019 580 1293 958 1293 c 2
 1893 1293 l 1
 1893 1193 l 1
 1606 1193 l 1
 1606 678 l 1
 1644 745 1737 777 1823 777 c 0xf7f0
EndSplineSet
LCarets2: 1 0
EndChar

StartChar: u0B9E_u0BCD
Encoding: 146 -1 146
Width: 2494
GlyphClass: 2
Flags: W
HStem: -573 100<756.203 1454.36> 0 174<587.457 802.344> 635 139<1661.34 1914.38> 709 138<534.32 778.963> 1189 101<748.235 1392 1608 1895> 1508 326<1190.21 1408.59>
VStem: 4 99<137.61 806.178> 348 99<315.274 880.359> 885 218<263.065 589.631> 1136 326<1561.41 1780.59> 1392 214<-1 598.327 675 1189> 2034 217<34.7673 496.873>
AnchorPoint: "N" 1299 -573 basechar 0
LayerCount: 2
Fore
SplineSet
1608 675 m 1xdfb0
 1646 742 1739 774 1825 774 c 0
 2105 774 2251 536 2251 298 c 0
 2251 -297 1783 -573 1120 -573 c 0
 478 -573 4 -250 4 429 c 0
 4 664 61 1071 296 1287 c 1
 359 1230 l 1
 146 1017 103 657 103 420 c 0
 103 -116 503 -473 1096 -473 c 0
 1858 -473 2034 -14 2034 292 c 0
 2034 425 1983 635 1778 635 c 0xefb0
 1694 635 1637 605 1606 546 c 1
 1606 -1 l 1
 1392 -1 l 1
 1392 1189 l 1
 985 1189 l 2
 609 1189 452 920 452 732 c 1
 498 801 603 847 727 847 c 0
 953 847 1103 682 1103 442 c 0
 1103 213 1025 0 779 0 c 0
 434 0 348 328 348 593 c 0
 348 1016 582 1290 960 1290 c 2
 1895 1290 l 1
 1895 1190 l 1
 1608 1190 l 1
 1608 675 l 1xdfb0
447 549 m 1
 447 275 573 174 690 174 c 0
 807 174 885 281 885 431 c 0
 885 596 768 709 663 709 c 0xdf90
 530 709 468 619 447 549 c 1
1299 1508 m 0
 1214 1508 1136 1581 1136 1671 c 256
 1136 1761 1211 1834 1299 1834 c 0
 1389 1834 1462 1759 1462 1671 c 0xcfd0
 1462 1586 1389 1508 1299 1508 c 0
EndSplineSet
Validated: 1
LCarets2: 1 0
EndChar

StartChar: u0B9F
Encoding: 147 2975 147
Width: 2065
GlyphClass: 1
Flags: HW
HStem: 0 100<201 1777>
VStem: 0 201<100 1290>
AnchorPoint: "V" 913 1306 basechar 0
AnchorPoint: "N" 913 0 basechar 0
LayerCount: 2
Fore
SplineSet
1777 0 m 1
 0 0 l 1
 0 1290 l 1
 201 1290 l 1
 201 100 l 1
 1777 100 l 1
 1777 0 l 1
EndSplineSet
EndChar

StartChar: u0B9F_u0BBF
Encoding: 148 -1 148
Width: 1835
GlyphClass: 2
Flags: HW
HStem: 0 86<201 879 1261 1548> 1122 164<788.658 1024.18>
VStem: 0 201<86 1290> 522 124<530.403 959.183> 1060 200<-617 0 83 1087.74>
AnchorPoint: "V" 913 1306 basechar 0
AnchorPoint: "N" 500 -50 basechar 0
LayerCount: 2
Fore
SplineSet
522 802 m 0
 522 1096 697 1286 960 1286 c 0
 1200 1286 1260 1086 1260 969 c 2
 1260 83 l 1
 1548 83 l 1
 1548 0 l 1
 1261 0 l 1
 1261 -617 l 1
 1061 -617 l 1
 1061 0 l 1
 0 0 l 1
 0 1290 l 1
 201 1290 l 1
 201 86 l 1
 879 86 l 1
 689 222 522 503 522 802 c 0
1060 983 m 2
 1060 1094 965 1122 926 1122 c 0
 758 1122 646 973 646 737 c 0
 646 429 876 169 1060 83 c 1
 1060 983 l 2
EndSplineSet
LCarets2: 1 0
EndChar

StartChar: u0B9F_u0BC0
Encoding: 149 -1 149
Width: 1720
GlyphClass: 2
Flags: HW
HStem: 0 86<201 567 601.723 1433> 259 89<968.064 1200.13> 790 168<678.636 927.976>
VStem: 0 201<86 1290> 379 111<255.828 581.366> 809 94<412.087 662.085> 1270 166<414.899 661.548>
AnchorPoint: "V" 913 1306 basechar 0
AnchorPoint: "N" 913 0 basechar 0
LayerCount: 2
Fore
SplineSet
826 790 m 0
 610 790 490 575 490 400 c 0
 490 212 619 105 648 86 c 1
 1433 86 l 1
 1433 0 l 1
 0 0 l 1
 0 1290 l 1
 201 1290 l 1
 201 86 l 1
 567 86 l 1
 503 129 379 256 379 436 c 0
 379 854 706 958 901 958 c 0
 1042 958 1166 929 1274 870 c 0
 1382 811 1436 710 1436 567 c 0
 1436 355 1265 259 1109 259 c 0
 875 259 809 431 809 535 c 0
 809 619 852 739 931 781 c 1
 882 787 847 790 826 790 c 0
903 533 m 0
 903 428 985 348 1080 348 c 0
 1176 348 1267 420 1270 535 c 1
 1270 636 1200 736 1069 736 c 1
 974 717 903 638 903 533 c 0
EndSplineSet
LCarets2: 1 0
EndChar

StartChar: u0B9F_u0BC1
Encoding: 150 -1 150
Width: 2164
GlyphClass: 2
Flags: HW
HStem: -513 103<544.683 975.992> 0 21G<1707 1813.5> 634 137<920.163 1186.27> 1659 230<652.928 1231.53>
VStem: -1 106<210.85 1011.76> 647 215<-2 595.523 672 1288> 1318 215<7.74906 482.832> 1770 87<210.554 1005.94>
AnchorPoint: "V" 913 1888.97 basechar 0
AnchorPoint: "N" 913 -525 basechar 0
LayerCount: 2
Fore
SplineSet
-1 660 m 0
 -1 1288 239 1889 921 1889 c 0
 1433 1889 1678 1609 1775 1346 c 1
 1830 1191 1857 977 1857 704 c 0
 1857 443 1835 209 1792 0 c 1
 1707 0 l 1
 1749 162 1770 351 1770 567 c 0
 1770 1209 1599 1659 916 1659 c 0
 335 1659 105 1162 105 634 c 0
 105 -263 507 -410 775 -410 c 0
 1163 -410 1318 -28 1318 291 c 0
 1318 405 1264 634 1048 634 c 0
 955 634 893 604 862 545 c 1
 862 -2 l 1
 647 -2 l 1
 647 1288 l 1
 862 1288 l 1
 862 672 l 1
 895 728 993 771 1093 771 c 0
 1389 771 1533 510 1533 296 c 0
 1533 -210 1285 -513 797 -513 c 0
 517 -513 314 -407 188 -196 c 0
 62 15 -1 301 -1 660 c 0
EndSplineSet
LCarets2: 1 0
EndChar

StartChar: u0B9F_u0BC2
Encoding: 151 -1 151
Width: 2150
GlyphClass: 2
Flags: HW
HStem: -512 103<542.683 973.992> -1 21G<645 860> 635 137<918.163 1184.27> 800 125<1178.52 1428.13> 1290 110<1193.43 1408.25> 1718 172<667.096 1149.96>
VStem: -3 106<211.85 1024.08> 645 215<-1 596.523 673 1289> 1026 102<975.185 1222.41> 1316 215<6.52268 483.832> 1491 202<984.207 1242.19>
AnchorPoint: "V" 913 1889.1 basechar 0
AnchorPoint: "N" 913 -525 basechar 0
LayerCount: 2
Fore
SplineSet
-3 661 m 0xffc0
 -3 1321 258 1890 961 1890 c 0
 1374 1890 1693 1500 1693 1134 c 1xffa0
 1674 966 1600 819 1376 800 c 1
 1081 800 1026 993 1026 1100 c 0
 1026 1230 1104 1400 1329 1400 c 0
 1365 1400 1392 1398 1409 1395 c 1
 1368 1600 1140 1718 927 1718 c 0
 322 1718 103 1167 103 635 c 0
 103 -262 505 -409 773 -409 c 0
 1161 -409 1316 -27 1316 292 c 0
 1316 406 1262 635 1046 635 c 0
 953 635 891 605 860 546 c 1
 860 -1 l 1
 645 -1 l 1
 645 1289 l 1
 860 1289 l 1
 860 673 l 1
 893 729 991 772 1091 772 c 0
 1387 772 1531 511 1531 297 c 0
 1531 -126 1283 -512 795 -512 c 0
 515 -512 312 -406 186 -195 c 0
 60 16 -3 302 -3 661 c 0xffc0
1128 1100 m 0
 1128 1021 1166 925 1299 925 c 0
 1411 925 1491 992 1491 1110 c 0
 1491 1195 1460 1290 1326 1290 c 0
 1199 1290 1128 1204 1128 1100 c 0
EndSplineSet
LCarets2: 1 0
EndChar

StartChar: u0B9F_u0BCD
Encoding: 152 -1 152
Width: 2065
GlyphClass: 2
Flags: W
HStem: 0 100<201 1777> 1505 326<804.658 1021.74>
VStem: 0 201<100 1290> 751 324<1558.81 1779.18>
AnchorPoint: "N" 913 0 basechar 0
LayerCount: 2
Fore
SplineSet
1778 0 m 1
 0 0 l 1
 0 1290 l 1
 201 1290 l 1
 201 100 l 1
 1777 100 l 1
 1778 0 l 1
751 1668 m 0
 751 1762 827 1831 912 1831 c 0
 1007 1831 1075 1755 1075 1668 c 0
 1075 1579 1002 1505 913 1505 c 0
 825 1505 751 1579 751 1668 c 0
EndSplineSet
Validated: 1
LCarets2: 1 0
EndChar

StartChar: u0BA3
Encoding: 153 2979 153
Width: 3728
GlyphClass: 1
Flags: HW
HStem: 4 167<241.444 458.59> 4 100<1173.19 1400.74 2120.46 2346.43> 706 144<194.652 429.816> 1190 101<548.599 1102.24 1488 2045.33 2436.57 2938 3153 3440>
VStem: 4 97<314.872 727.802> 541 218<260.337 591.105> 960 99<260.879 789.266> 1498 214<238.57 810.047> 1908 99<264.82 785.453> 2445 216<241.933 811.691> 2938 215<1 1191>
AnchorPoint: "V" 1787.5 1306 basechar 0
AnchorPoint: "N" 1787.5 119.776 basechar 0
LayerCount: 2
Fore
SplineSet
101 546 m 1xbfe0
 101 272 227 171 344 171 c 0
 475 171 540 296 541 436 c 1
 541 598 419 706 319 706 c 0
 188 706 122 614 101 546 c 1xbfe0
2007 549 m 0
 2007 356 2059 104 2227 104 c 0x7fe0
 2401 104 2445 283 2445 581 c 0
 2445 753 2377 924 2238 1034 c 1
 2086 915 2007 741 2007 549 c 0
1059 548 m 0
 1059 355 1111 103 1279 103 c 0
 1454 103 1498 272 1498 581 c 0
 1498 752 1430 922 1291 1036 c 1
 1136 914 1059 751 1059 548 c 0
2287 4 m 0
 1984 4 1908 274 1908 551 c 0
 1908 883 2090 1061 2138 1105 c 1
 2034 1162 1907 1190 1756 1190 c 0
 1635 1190 1527 1167 1432 1122 c 1
 1609 1002 1712 811 1712 581 c 0
 1712 122 1562 2 1338 2 c 0
 1086 2 960 184 960 549 c 0
 960 756 1032 961 1195 1105 c 1
 1091 1162 964 1190 813 1190 c 0
 394 1190 126 902 108 733 c 1
 152 799 263 850 385 850 c 0
 611 850 759 682 759 445 c 0
 759 238 689 4 407 4 c 0xbfe0
 165 4 4 244 4 596 c 0
 4 1051 394 1291 790 1291 c 0
 999 1291 1174 1258 1317 1191 c 1
 1442 1258 1581 1291 1735 1291 c 0
 1941 1291 2117 1257 2262 1188 c 1
 2381 1257 2521 1291 2680 1291 c 2
 3440 1291 l 1
 3440 1191 l 1
 3153 1191 l 1
 3153 1 l 1
 2938 1 l 1
 2938 1191 l 1
 2705 1191 l 2
 2590 1191 2481 1168 2378 1123 c 1
 2563 999 2661 796 2661 583 c 0
 2661 124 2511 4 2287 4 c 0
EndSplineSet
EndChar

StartChar: u0BA3_u0BBE.old
Encoding: 155 -1 155
Width: 4029
GlyphClass: 1
Flags: HW
HStem: -713 99<1464.82 2324.54> 2 170<587.943 805.292> 2 102<1522.27 1748.36 2470.45 2693.36> 707 142<535.82 779.694> 1191 100<896.579 1449.24 1834.77 2391.53 2771.47 3204.65>
VStem: 3 100<169.011 829.495> 350 98<314.372 728.577> 886 219<259.999 589.791> 1308 100<262.598 788.356> 1847 214<243.501 812.069> 2251 103<261.216 779.203> 2793 212<242.501 811.677> 3525 217<280.596 809.692>
AnchorPoint: "V" 1787.5 1306 basechar 0
AnchorPoint: "N" 1787.5 119.776 basechar 0
LayerCount: 2
Fore
SplineSet
448 547 m 1xdff8
 448 273 574 172 691 172 c 0
 822 172 889 299 886 436 c 1
 886 569 786 707 664 707 c 0
 531 707 469 617 448 547 c 1xdff8
2354 549 m 0
 2354 356 2406 104 2573 104 c 0xbff8
 2705 104 2793 190 2793 581 c 0
 2793 665 2776 747 2742 828 c 1
 2705 910 2653 980 2584 1038 c 1
 2465 935 2354 769 2354 549 c 0
1408 550 m 0
 1408 357 1460 105 1627 105 c 0
 1759 105 1847 191 1847 582 c 0
 1847 755 1778 925 1639 1035 c 1
 1487 916 1408 742 1408 550 c 0
3005 581 m 0
 3005 124 2855 2 2629 2 c 0xbff8
 2377 2 2251 184 2251 548 c 0
 2251 775 2330 961 2487 1106 c 1
 2383 1163 2255 1191 2103 1191 c 0
 1982 1191 1874 1168 1780 1123 c 1
 1955 1006 2061 812 2061 582 c 0
 2061 125 1911 3 1685 3 c 0
 1459 3 1308 159 1308 550 c 0
 1308 757 1380 962 1543 1106 c 1
 1439 1163 1312 1191 1161 1191 c 0
 744 1191 474 909 454 734 c 1
 500 803 605 849 729 849 c 0
 955 849 1105 684 1105 444 c 0
 1105 239 1035 2 753 2 c 0xdff8
 511 2 350 242 350 594 c 0
 350 1053 743 1291 1136 1291 c 0
 1345 1291 1520 1258 1663 1191 c 1
 1788 1258 1927 1291 2081 1291 c 0
 2285 1291 2460 1258 2605 1191 c 1
 2722 1258 2852 1291 2997 1291 c 0
 3469 1291 3742 950 3742 543 c 0
 3742 -212 3094 -713 1905 -713 c 0
 1580 -713 1274 -678 989 -606 c 0
 704 -534 468 -410 282 -234 c 0
 96 -58 3 173 3 461 c 0
 3 822 117 1127 297 1291 c 1
 360 1234 l 1
 189 1063 103 802 103 452 c 0
 103 251 158 81 268 -60 c 0
 378 -201 522 -311 701 -392 c 0
 1027 -540 1424 -614 1893 -614 c 0
 2863 -614 3525 -138 3525 575 c 0
 3525 925 3317 1189 3005 1189 c 0
 2906 1189 2810 1167 2719 1124 c 1
 2910 993 3005 791 3005 581 c 0
EndSplineSet
EndChar

StartChar: u0BA3_u0BBF
Encoding: 156 -1 156
Width: 4043
GlyphClass: 2
Flags: HW
HStem: 2 101<1173.19 1400.74 2124.47 2345.43> 4 167<241.444 458.59> 706 144<194.652 429.816> 1190 101<548.599 1102.24 1488 2045.33 2430.08 2936 3151 3438> 1835 199<3200.55 3546.8>
VStem: 4 97<314.872 727.802> 541 218<260.337 591.105> 960 99<260.879 789.266> 1498 214<238.57 810.047> 1906 101<265.32 785.555> 2445 214<242.433 812.191> 2936 215<2 1192> 2967 99<1340.26 1695.82> 3667 85<1 1694.76>
AnchorPoint: "V" 1787.5 1306 basechar 0
AnchorPoint: "N" 1787.5 -40 basechar 0
LayerCount: 2
Fore
SplineSet
101 546 m 1x7fe4
 101 272 227 171 344 171 c 0
 475 171 540 296 541 436 c 1
 541 598 419 706 319 706 c 0
 188 706 122 614 101 546 c 1x7fe4
2007 549 m 0
 2007 356 2059 104 2227 104 c 0
 2401 104 2445 283 2445 581 c 0
 2445 753 2377 924 2238 1034 c 1
 2086 915 2007 741 2007 549 c 0
1059 548 m 0
 1059 355 1111 103 1279 103 c 0xbfe4
 1454 103 1498 272 1498 581 c 0
 1498 752 1430 922 1291 1036 c 1
 1136 914 1059 751 1059 548 c 0
2285 5 m 0
 1982 5 1906 275 1906 552 c 0
 1906 884 2083 1057 2138 1105 c 1
 2034 1162 1907 1190 1756 1190 c 0
 1635 1190 1527 1167 1432 1122 c 1
 1609 1002 1712 811 1712 581 c 0
 1712 122 1562 2 1338 2 c 0xbff4
 1086 2 960 184 960 549 c 0
 960 756 1032 961 1195 1105 c 1
 1091 1162 964 1190 813 1190 c 0
 394 1190 126 902 108 733 c 1
 152 799 263 850 385 850 c 0
 611 850 759 682 759 445 c 0
 759 238 689 4 407 4 c 0
 165 4 4 244 4 596 c 0
 4 1051 394 1291 790 1291 c 0
 999 1291 1174 1258 1317 1191 c 1
 1442 1258 1581 1291 1735 1291 c 0
 1941 1291 2117 1257 2262 1188 c 1
 2381 1257 2521 1291 2680 1291 c 2
 3035 1291 l 1
 2990 1378 2967 1463 2967 1545 c 0
 2967 1772 3047 2034 3365 2034 c 0
 3675 2034 3752 1815 3752 1480 c 2
 3752 1 l 1
 3667 1 l 1
 3667 1448 l 2
 3667 1748 3564 1835 3361 1835 c 0
 3211 1835 3066 1738 3066 1518 c 0x7fec
 3066 1428 3099 1332 3137 1292 c 1
 3438 1292 l 1
 3438 1192 l 1
 3151 1192 l 1
 3151 2 l 1
 2936 2 l 1
 2936 1192 l 1xbff4
 2703 1192 l 2
 2588 1192 2479 1169 2376 1124 c 1
 2561 1000 2659 797 2659 584 c 0
 2659 125 2509 5 2285 5 c 0
EndSplineSet
LCarets2: 1 0
EndChar

StartChar: u0BA3_u0BC0
Encoding: 157 -1 157
Width: 3813
GlyphClass: 2
Flags: HW
HStem: 5 166<241.444 458.59> 5 100<1173.19 1400.74 2124.97 2345.93> 706 145<194.652 429.816> 1191 101<548.599 1102.24 1488 2045.33 2436.51 2937 3152 3439> 1447 89<3364.54 3595.08> 1979 169<3066.61 3324.78>
VStem: 4 97<315.372 728.302> 541 218<260.837 591.605> 960 99<261.879 790.266> 1498 214<239.57 811.047> 1907 100<265.82 786.22> 2445 215<242.933 812.691> 2776 112<1446.26 1784.18> 2937 215<2 1192> 3205 94<1598.66 1851.38> 3666 167<1605.23 1850.64>
AnchorPoint: "V" 1787.5 1306 basechar 0
AnchorPoint: "N" 1787.5 -40 basechar 0
LayerCount: 2
Fore
SplineSet
101 546 m 1xbfff
 101 272 227 171 344 171 c 0
 475 171 540 296 541 436 c 1
 541 598 419 706 319 706 c 0
 188 706 122 614 101 546 c 1xbfff
3299 1722 m 0
 3299 1622 3374 1536 3476 1536 c 0
 3585 1536 3665 1624 3666 1724 c 1
 3666 1823 3596 1925 3465 1925 c 1
 3370 1906 3299 1827 3299 1722 c 0
2007 550 m 0
 2007 357 2059 105 2227 105 c 0x7fff
 2401 105 2445 284 2445 582 c 0
 2445 754 2377 925 2238 1035 c 1
 2086 916 2007 742 2007 550 c 0
1059 549 m 0
 1059 356 1111 104 1279 104 c 0
 1454 104 1498 273 1498 582 c 0
 1498 753 1430 923 1291 1037 c 1
 1136 915 1059 752 1059 549 c 0
2286 5 m 0
 1983 5 1907 275 1907 552 c 0
 1907 884 2086 1059 2138 1106 c 1
 2034 1163 1907 1191 1756 1191 c 0
 1635 1191 1527 1168 1432 1123 c 1
 1609 1003 1712 812 1712 582 c 0
 1712 123 1562 3 1338 3 c 0
 1086 3 960 185 960 550 c 0
 960 757 1032 962 1195 1106 c 1
 1091 1163 964 1191 813 1191 c 0
 394 1191 126 903 108 734 c 1
 152 800 263 851 385 851 c 0
 611 851 759 683 759 446 c 0
 759 239 689 5 407 5 c 0xbfff
 165 5 4 245 4 597 c 0
 4 1052 394 1292 790 1292 c 0
 999 1292 1174 1259 1317 1192 c 1
 1442 1259 1581 1292 1735 1292 c 0
 1941 1292 2117 1258 2262 1189 c 1
 2381 1258 2521 1292 2680 1292 c 2
 2940 1292 l 1
 2869 1352 2776 1473 2776 1625 c 0
 2776 2005 3049 2148 3298 2148 c 0
 3439 2148 3563 2119 3671 2060 c 0
 3779 2001 3833 1900 3833 1757 c 0
 3833 1575 3701 1447 3505 1447 c 0
 3290 1447 3205 1600 3205 1725 c 0
 3205 1808 3247 1929 3327 1971 c 1
 3291 1976 3256 1979 3222 1979 c 0
 3030 1979 2888 1801 2888 1591 c 0
 2888 1441 2976 1333 3024 1292 c 1
 3439 1292 l 1
 3439 1192 l 1
 3152 1192 l 1
 3152 2 l 1
 2937 2 l 1
 2937 1192 l 1
 2704 1192 l 2
 2589 1192 2480 1169 2377 1124 c 1
 2562 1000 2660 797 2660 584 c 0
 2660 125 2510 5 2286 5 c 0
EndSplineSet
LCarets2: 1 0
EndChar

StartChar: u0BA3_u0BC1
Encoding: 158 -1 158
Width: 4229
GlyphClass: 2
Flags: HW
HStem: -715 100<1270.15 2110.02> -217 103<151.015 2848 3225 3722> 2 101<1170.69 1398.24 2121.47 2342.43> 3 168<236.867 456.59> 706 143<190.721 432.847> 1190 100<547.6 1099.24 1485 2041.14 2421.69 2858.19>
VStem: 0 101<314.372 735.976> 541 214<259.837 590.605> 958 98<260.879 789.266> 1495 215<238.57 810.047> 1902 103<263.82 784.477> 2443 212<240.933 809.073> 3176 215<260.914 809.325> 3722 214<-114 1291>
AnchorPoint: "V" 1787.5 1306 basechar 0
AnchorPoint: "N" 1787.5 -750 basechar 0
LayerCount: 2
Fore
SplineSet
101 546 m 1xdffc
 101 272 227 171 344 171 c 0
 475 171 540 296 541 436 c 1
 541 598 419 706 319 706 c 0
 188 706 122 614 101 546 c 1xdffc
151 -247 m 0
 151 -321 585 -615 1665 -615 c 0
 2163 -615 2557 -482 2848 -217 c 1
 211 -217 l 2
 171 -217 151 -227 151 -247 c 0
2005 549 m 0
 2005 356 2057 104 2225 104 c 0
 2399 104 2443 283 2443 581 c 0
 2443 751 2374 922 2235 1039 c 1
 2082 908 2005 745 2005 549 c 0
1056 548 m 0
 1056 355 1108 103 1276 103 c 0xeffc
 1451 103 1495 272 1495 581 c 0
 1495 752 1427 922 1288 1036 c 1
 1133 914 1056 751 1056 548 c 0
2648 1290 m 0
 3137 1290 3391 926 3391 542 c 0
 3391 287 3336 69 3225 -114 c 1
 3722 -114 l 1
 3722 1291 l 1
 3936 1291 l 1
 3936 -215 l 1
 3154 -215 l 1
 2880 -548 2391 -715 1688 -715 c 0
 385 -715 15 -327 2 -192 c 1
 2 -141 33 -116 94 -116 c 2
 2934 -114 l 1
 3095 85 3176 315 3176 574 c 0
 3176 916 2968 1189 2655 1189 c 0
 2556 1189 2460 1167 2369 1124 c 1
 2560 993 2655 791 2655 581 c 0
 2655 122 2505 2 2281 2 c 0
 1978 2 1902 272 1902 549 c 0
 1902 795 2003 982 2136 1105 c 1
 2032 1162 1905 1190 1754 1190 c 0
 1633 1190 1525 1167 1430 1122 c 1
 1607 1002 1710 811 1710 581 c 0
 1710 122 1560 2 1336 2 c 0xeffc
 1084 2 958 184 958 549 c 0
 958 756 1030 961 1193 1105 c 1
 1089 1162 962 1190 811 1190 c 0
 403 1190 120 906 104 732 c 1
 148 798 259 849 381 849 c 0
 607 849 755 681 755 444 c 0
 755 237 685 3 403 3 c 0xdffc
 161 3 0 243 0 595 c 0
 0 1050 390 1290 786 1290 c 0
 995 1290 1170 1257 1313 1190 c 1
 1438 1257 1577 1290 1731 1290 c 0
 1935 1290 2110 1257 2255 1190 c 1
 2372 1257 2503 1290 2648 1290 c 0
EndSplineSet
LCarets2: 1 0
EndChar

StartChar: u0BA3_u0BC2
Encoding: 159 -1 159
Width: 4946
GlyphClass: 2
Flags: HW
HStem: -714 99<1270.65 2110.52> -214 100<151.015 2848 3225 3722> 2 101<1170.69 1398.24 2121.47 2342.43> 3 168<236.867 456.59> 706 143<190.721 432.847> 1190 100<547.6 1099.24 1485 2041.14 2421.69 2858.19 3822 4152 4366 4653>
VStem: 0 101<314.372 735.976> 541 214<259.837 590.605> 958 98<260.879 789.266> 1495 215<238.57 810.047> 1902 103<263.82 784.477> 2443 212<240.933 809.073> 3176 215<260.914 809.325> 3722 100<-114 1191> 4152 214<-214 1191>
AnchorPoint: "V" 1787.5 1306 basechar 0
AnchorPoint: "N" 1787.5 -750 basechar 0
LayerCount: 2
Fore
SplineSet
101 546 m 1xdffe
 101 272 227 171 344 171 c 0
 475 171 540 296 541 436 c 1
 541 598 419 706 319 706 c 0
 188 706 122 614 101 546 c 1xdffe
151 -247 m 0
 151 -321 585 -615 1665 -615 c 0
 2163 -615 2557 -482 2848 -217 c 1
 211 -217 l 2
 171 -217 151 -227 151 -247 c 0
2005 549 m 0
 2005 356 2057 104 2225 104 c 0
 2399 104 2443 283 2443 581 c 0
 2443 751 2374 922 2235 1039 c 1
 2082 908 2005 745 2005 549 c 0
1056 548 m 0
 1056 355 1108 103 1276 103 c 0xeffe
 1451 103 1495 272 1495 581 c 0
 1495 752 1427 922 1288 1036 c 1
 1133 914 1056 751 1056 548 c 0
2648 1290 m 0
 3137 1290 3391 926 3391 542 c 0
 3391 287 3336 69 3225 -114 c 1
 3722 -114 l 1
 3722 1291 l 1
 4653 1291 l 1
 4653 1191 l 1
 4366 1191 l 1
 4366 -214 l 1
 4152 -214 l 1
 4152 1191 l 1
 3822 1191 l 1
 3822 -214 l 1
 3155 -214 l 1
 2881 -547 2392 -714 1689 -714 c 0
 386 -714 16 -326 3 -191 c 1
 3 -140 34 -115 95 -115 c 2
 2934 -114 l 1
 3095 85 3176 315 3176 574 c 0
 3176 916 2968 1189 2655 1189 c 0
 2556 1189 2460 1167 2369 1124 c 1
 2560 993 2655 791 2655 581 c 0
 2655 122 2505 2 2281 2 c 0
 1978 2 1902 272 1902 549 c 0
 1902 795 2003 982 2136 1105 c 1
 2032 1162 1905 1190 1754 1190 c 0
 1633 1190 1525 1167 1430 1122 c 1
 1607 1002 1710 811 1710 581 c 0
 1710 122 1560 2 1336 2 c 0xeffe
 1084 2 958 184 958 549 c 0
 958 756 1030 961 1193 1105 c 1
 1089 1162 962 1190 811 1190 c 0
 403 1190 120 906 104 732 c 1
 148 798 259 849 381 849 c 0
 607 849 755 681 755 444 c 0
 755 237 685 3 403 3 c 0xdffe
 161 3 0 243 0 595 c 0
 0 1050 390 1290 786 1290 c 0
 995 1290 1170 1257 1313 1190 c 1
 1438 1257 1577 1290 1731 1290 c 0
 1935 1290 2110 1257 2255 1190 c 1
 2372 1257 2503 1290 2648 1290 c 0
EndSplineSet
LCarets2: 1 0
EndChar

StartChar: u0BA3_u0BCD
Encoding: 162 -1 162
Width: 3728
GlyphClass: 2
Flags: W
HStem: 4 167<241.444 458.59> 4 100<1173.19 1400.74 2120.46 2346.43> 706 144<194.652 429.816> 1190 101<548.599 1102.24 1488 2045.33 2436.57 2938 3153 3440> 1508 326<1678.66 1896.09>
VStem: 4 97<314.872 727.802> 541 218<260.337 591.105> 960 99<260.879 789.266> 1498 214<238.57 810.047> 1625 325<1561.81 1781.38> 1908 99<264.82 785.453> 2445 216<241.933 811.691> 2938 215<1 1191>
AnchorPoint: "N" 1787.5 -40 basechar 0
LayerCount: 2
Fore
SplineSet
101 546 m 1xbf18
 101 272 227 171 344 171 c 0
 475 171 540 296 541 436 c 1
 541 598 419 706 319 706 c 0
 188 706 122 614 101 546 c 1xbf18
2007 549 m 0x7f38
 2007 356 2059 104 2227 104 c 0
 2401 104 2445 283 2445 581 c 0
 2445 753 2377 924 2238 1034 c 1
 2086 915 2007 741 2007 549 c 0x7f38
1059 548 m 0
 1059 355 1111 103 1279 103 c 0
 1454 103 1498 272 1498 581 c 0x3f98
 1498 752 1430 922 1291 1036 c 1
 1136 914 1059 751 1059 548 c 0
2287 4 m 0x7fb8
 1984 4 1908 274 1908 551 c 0
 1908 883 2090 1061 2138 1105 c 1
 2034 1162 1907 1190 1756 1190 c 0
 1635 1190 1527 1167 1432 1122 c 1
 1609 1002 1712 811 1712 581 c 0
 1712 122 1562 2 1338 2 c 0
 1086 2 960 184 960 549 c 0
 960 756 1032 961 1195 1105 c 1
 1091 1162 964 1190 813 1190 c 0
 394 1190 126 902 108 733 c 1
 152 799 263 850 385 850 c 0
 611 850 759 682 759 445 c 0
 759 238 689 4 407 4 c 0xbfb8
 165 4 4 244 4 596 c 0
 4 1051 394 1291 790 1291 c 0
 999 1291 1174 1258 1317 1191 c 1
 1442 1258 1581 1291 1735 1291 c 0
 1941 1291 2117 1257 2262 1188 c 1
 2381 1257 2521 1291 2680 1291 c 2
 3440 1291 l 1
 3440 1191 l 1
 3153 1191 l 1
 3153 1 l 1
 2938 1 l 1
 2938 1191 l 1
 2705 1191 l 2
 2590 1191 2481 1168 2378 1123 c 1
 2563 999 2661 796 2661 583 c 0
 2661 124 2511 4 2287 4 c 0x7fb8
1625 1671 m 0x3f58
 1625 1765 1701 1834 1786 1834 c 0
 1877 1834 1949 1763 1950 1671 c 1
 1950 1581 1875 1508 1787 1508 c 0
 1699 1508 1625 1582 1625 1671 c 0x3f58
EndSplineSet
LCarets2: 1 0
EndChar

StartChar: u0BA4
Encoding: 163 2980 163
Width: 1863
GlyphClass: 1
Flags: HW
HStem: -306 116<424.192 1075.07> 2 104<308.937 666.171> 649 100<453 782 997 1221.49> 1192 99<453 782 997 1284>
VStem: 9 231<-660.516 -435.052> 94 99<215.663 552.907> 352 101<749 1192> 782 215<209.215 644 749 1191> 1380 197<54.2371 494.543>
AnchorPoint: "V" 735.5 1306 basechar 0
AnchorPoint: "N" 735.5 -321.494 basechar 0
LayerCount: 2
Fore
SplineSet
881 -306 m 0xf780
 582 -316 263 -304 240 -536 c 0
 230 -634 263 -708 125 -708 c 0
 68 -708 9 -622 9 -509 c 0xfb80
 9 -223 294 -190 699 -190 c 0
 1122 -190 1225 -87 1291 -11 c 0
 1337 42 1380 128 1380 221 c 0
 1380 508 1324 644 997 644 c 1
 997 303 l 2
 997 177 803 2 537 2 c 0
 275 2 94 129 94 406 c 0
 94 648 289 744 352 744 c 1
 352 1291 l 1
 1284 1291 l 1
 1284 1191 l 1
 997 1191 l 1
 997 748 l 1
 1346 740 1577 647 1577 245 c 0
 1577 -37 1340 -290 881 -306 c 0xf780
782 749 m 1
 782 1192 l 1
 453 1192 l 1
 453 749 l 1
 782 749 l 1
407 649 m 2
 364 649 193 614 193 384 c 0xf780
 193 199 297 106 506 106 c 0
 619 106 782 192 782 299 c 2
 782 649 l 1
 407 649 l 2
EndSplineSet
EndChar

StartChar: u0BA4_u0BBF
Encoding: 164 -1 164
Width: 2179
GlyphClass: 1
Flags: HW
HStem: -305 122<402.326 1074> 9 102<309.937 660.299> 654 100<453 782 999 1222.52> 1197 96<453 782 994 1281> 1865 222<689.108 1345.89>
VStem: 11 228<-663.154 -427.718> 96 97<221.663 555.79 984.408 1482.48> 349 104<803 1197> 782 212<210.937 651 754 1193> 1382 197<64.0242 493.267> 1806 86<0 1477.85>
AnchorPoint: "V" 735.5 2056.68 basechar 0
AnchorPoint: "N" 735.5 -321.494 basechar 0
LayerCount: 2
Fore
SplineSet
96 1251 m 0xfbe0
 96 1621 285 2087 1043 2087 c 0
 1726 2087 1897 1707 1897 1284 c 1
 1892 0 l 1
 1806 0 l 1
 1806 1296 l 2
 1806 1637 1468 1865 1040 1865 c 0
 339 1865 188 1501 188 1259 c 0
 188 1087 247 898 349 803 c 1
 349 1293 l 1
 1281 1293 l 1
 1281 1193 l 1
 994 1193 l 1
 994 750 l 1
 1319 750 1579 652 1579 258 c 0
 1579 -6 1384 -249 984 -291 c 0
 900 -300 815 -305 728 -305 c 0
 291 -305 239 -435 239 -593 c 0
 239 -672 214 -705 122 -705 c 0
 65 -705 11 -619 11 -506 c 0xfde0
 11 -419 38 -355 92 -312 c 1
 208 -216 293 -183 701 -183 c 0
 1124 -183 1227 -80 1293 -4 c 0
 1339 49 1382 135 1382 228 c 0
 1382 369 1366 466 1333 520 c 1
 1283 607 1172 651 999 651 c 1
 999 310 l 2
 999 184 805 9 539 9 c 0
 277 9 96 136 96 413 c 0
 96 582 191 690 298 735 c 1
 163 848 96 1020 96 1251 c 0xfbe0
782 754 m 1
 782 1197 l 1
 453 1197 l 1
 453 754 l 1
 782 754 l 1
407 654 m 2
 364 654 193 619 193 389 c 0xfbe0
 193 204 297 111 506 111 c 0
 616 111 778 195 782 304 c 1
 782 654 l 1
 407 654 l 2
EndSplineSet
EndChar

StartChar: u0BA4_u0BC0
Encoding: 165 -1 165
Width: 1863
GlyphClass: 1
Flags: HW
HStem: -307 122<401.326 1073> 7 99<307.437 657.799> 649 100<449 778 998 1234.57> 1192 99<449 778 993 1280> 1448 92<1071.5 1307.13> 1978 171<704.642 1032.23>
VStem: 10 228<-665.154 -429.718> 95 94<218.163 552.813 992.638 1488.61> 348 101<801 1192> 778 215<207.812 649 749 1191> 912 96<1604.92 1854.08> 1373 167<1605.91 1856.32> 1381 197<62.0242 491.267>
AnchorPoint: "V" 735.5 2114.95 basechar 0
AnchorPoint: "N" 735.5 -321.494 basechar 0
LayerCount: 2
Fore
SplineSet
1008 1724 m 0xfcb0
 1008 1631 1078 1540 1185 1540 c 0
 1286 1540 1374 1619 1373 1726 c 1
 1373 1834 1298 1927 1174 1927 c 1
 1079 1908 1008 1829 1008 1724 c 0xfcb0
778 749 m 1xfcc0
 778 1192 l 1
 449 1192 l 1
 449 749 l 1
 778 749 l 1xfcc0
403 649 m 2
 360 649 189 614 189 384 c 0xfdc0
 189 199 293 106 502 106 c 0
 612 106 774 190 778 299 c 1
 778 649 l 1
 403 649 l 2
998 308 m 2
 998 182 804 7 538 7 c 0
 276 7 95 134 95 411 c 0
 95 496 116 566 157 620 c 0
 198 674 243 710 290 729 c 1
 155 842 88 1014 88 1245 c 0
 88 1787 478 2149 1005 2149 c 0
 1146 2149 1270 2120 1378 2061 c 0
 1486 2002 1540 1901 1540 1758 c 0
 1540 1576 1408 1448 1212 1448 c 0
 997 1448 912 1601 912 1726 c 0xfdb0
 912 1817 956 1928 1035 1970 c 1
 997 1975 962 1978 929 1978 c 0
 464 1978 187 1584 187 1257 c 0
 187 1085 246 896 348 801 c 1
 348 1291 l 1
 1280 1291 l 1
 1280 1191 l 1
 993 1191 l 1
 993 748 l 1
 1318 748 1578 650 1578 256 c 0
 1578 -8 1383 -251 983 -293 c 0
 899 -302 814 -307 727 -307 c 0
 290 -307 238 -437 238 -595 c 0
 238 -674 213 -707 121 -707 c 0
 64 -707 10 -621 10 -508 c 0
 10 -421 37 -357 91 -314 c 1
 207 -218 292 -185 700 -185 c 0
 1123 -185 1226 -82 1292 -6 c 0
 1338 47 1381 133 1381 226 c 0xfec8
 1381 367 1365 464 1332 518 c 1
 1282 605 1171 649 998 649 c 1
 998 308 l 2
EndSplineSet
EndChar

StartChar: u0BA4_u0BC1
Encoding: 166 -1 166
Width: 2451
GlyphClass: 2
Flags: HW
HStem: -595 98<461.357 971.548> -213 103<138.015 1249 1536 1951> 7 97<334.071 683.827> 646 100<476 806 1023 1253.34> 1189 107<476 806 1023 1310>
VStem: 3 135<-280.412 -157.5> 118 100<212.771 547.725> 379 97<749 1189> 806 217<206.229 646 753 1189> 1405 216<25.6529 500.107> 1951 214<-105 1300>
AnchorPoint: "V" 775 1306 basechar 0
AnchorPoint: "N" 775 -640 basechar 0
LayerCount: 2
Fore
SplineSet
806 746 m 1xf9e0
 806 1189 l 1
 476 1189 l 1
 476 746 l 1
 806 746 l 1xf9e0
430 646 m 2
 388 646 218 611 218 382 c 0xfbe0
 218 197 322 104 530 104 c 0
 667 104 806 212 806 296 c 2
 806 646 l 1
 430 646 l 2
138 -243 m 0xfde0
 138 -294 330 -497 749 -497 c 0
 954 -497 1121 -402 1249 -213 c 1
 198 -213 l 2
 158 -213 138 -223 138 -243 c 0xfde0
118 411 m 0xfbe0
 118 664 327 749 379 749 c 1
 379 1296 l 1
 1310 1296 l 1
 1310 1196 l 1
 1023 1196 l 1
 1023 753 l 1
 1415 753 1621 649 1621 307 c 0
 1621 164 1593 26 1536 -105 c 1
 1951 -105 l 1
 1951 1300 l 1
 2165 1300 l 1
 2165 -206 l 1
 1479 -210 l 1
 1396 -347 1196 -595 772 -595 c 0
 229 -595 3 -262 3 -181 c 0xfde0
 3 -134 34 -110 95 -110 c 2
 1307 -110 l 1
 1372 28 1405 164 1405 297 c 0
 1405 509 1319 649 1021 649 c 1
 1021 308 l 2
 1021 176 821 7 563 7 c 0
 301 7 118 135 118 411 c 0xfbe0
EndSplineSet
LCarets2: 1 0
EndChar

StartChar: u0BA4_u0BC2
Encoding: 167 -1 167
Width: 3168
GlyphClass: 2
Flags: HW
HStem: -589 92<462.357 967.126> -204 100<138.015 1249 1532 1947> 7 97<332.071 687.338> 646 100<476 806 1019 1249.34> 1189 107<476 806 1019 1306 2049 2378 2593 2878>
VStem: 5 133<-273.203 -151.5> 114 104<212.771 547.725> 375 101<749 1189> 806 213<206.229 646 753 1189> 1401 216<24.704 500.107> 1947 102<-104 1201> 2378 215<-204 1201>
AnchorPoint: "V" 775 1306 basechar 0
AnchorPoint: "N" 775 -640 basechar 0
LayerCount: 2
Fore
SplineSet
806 746 m 1xf9f0
 806 1189 l 1
 476 1189 l 1
 476 746 l 1
 806 746 l 1xf9f0
430 646 m 2
 388 646 218 611 218 382 c 0xfbf0
 218 197 322 104 530 104 c 0
 667 104 806 212 806 296 c 2
 806 646 l 1
 430 646 l 2
138 -243 m 0xfdf0
 138 -294 330 -497 749 -497 c 0
 950 -497 1117 -402 1249 -213 c 1
 198 -213 l 2
 158 -213 138 -223 138 -243 c 0xfdf0
1481 -204 m 1
 1267 -561 933 -589 774 -589 c 0
 231 -589 5 -256 5 -175 c 0xfdf0
 5 -128 36 -104 97 -104 c 2
 1303 -110 l 1
 1368 28 1401 164 1401 297 c 0
 1401 509 1315 649 1017 649 c 1
 1017 308 l 2
 1017 176 817 7 559 7 c 0
 297 7 114 135 114 411 c 0xfbf0
 114 664 323 749 375 749 c 1
 375 1296 l 1
 1306 1296 l 1
 1306 1196 l 1
 1019 1196 l 1
 1019 753 l 1
 1411 753 1617 649 1617 307 c 0
 1617 160 1589 23 1532 -104 c 1
 1947 -104 l 1
 1947 1301 l 1
 2878 1301 l 1
 2878 1201 l 1
 2593 1201 l 1
 2593 -204 l 1
 2378 -204 l 1
 2378 1201 l 1
 2049 1201 l 1
 2049 -204 l 1
 1481 -204 l 1
EndSplineSet
LCarets2: 1 0
EndChar

StartChar: u0BA4_u0BCD
Encoding: 168 -1 168
Width: 1920
GlyphClass: 2
Flags: W
HStem: -312 122<400.326 1072> 2 104<308.937 659.299> 649 100<453 782 997 1220.28> 1192 99<453 782 997 1284> 1508 326<626.658 846.176>
VStem: 9 228<-670.154 -434.718> 94 99<215.663 552.907> 352 101<749 1192> 573 325<1561.81 1782.18> 782 215<209.215 644 749 1191> 1380 197<59.75 503.028>
AnchorPoint: "N" 735.5 -321.494 basechar 0
LayerCount: 2
Fore
SplineSet
94 406 m 0xfb60
 94 648 289 744 352 744 c 1
 352 1291 l 1
 1284 1291 l 1
 1284 1191 l 1
 997 1191 l 1
 997 748 l 1
 1340 748 1587 636 1577 251 c 1
 1577 -13 1382 -256 982 -298 c 0
 898 -307 813 -312 726 -312 c 0
 289 -312 237 -442 237 -600 c 0
 237 -679 212 -712 120 -712 c 0
 63 -712 9 -626 9 -513 c 0xfd60
 9 -426 36 -362 90 -319 c 1
 206 -223 291 -190 699 -190 c 0
 1122 -190 1225 -87 1291 -11 c 0
 1337 42 1380 128 1380 221 c 0
 1380 362 1364 459 1331 513 c 1
 1281 600 1170 644 997 644 c 1
 997 303 l 2
 997 177 803 2 537 2 c 0
 275 2 94 129 94 406 c 0xfb60
782 749 m 1
 782 1192 l 1
 453 1192 l 1
 453 749 l 1
 782 749 l 1
407 649 m 2
 364 649 193 614 193 384 c 0xfb60
 193 199 297 106 506 106 c 0
 616 106 778 190 782 299 c 1
 782 649 l 1
 407 649 l 2
735 1508 m 0
 647 1508 573 1582 573 1671 c 0
 573 1765 647 1834 735 1834 c 0
 829 1834 898 1758 898 1671 c 0xf9a0
 898 1581 823 1508 735 1508 c 0
EndSplineSet
Validated: 33
LCarets2: 1 0
EndChar

StartChar: u0BA8
Encoding: 169 2984 169
Width: 1720
GlyphClass: 1
Flags: HW
HStem: -316 125<386.113 926.478> 638 138<847.586 1101.43> 1192 100<250 580 795 1081>
VStem: 14 226<-666.512 -432.542> 151 99<2 1192> 580 214<2 601.327 677 1192> 1224 209<56.811 500.387>
AnchorPoint: "V" 744 1306 basechar 0
AnchorPoint: "N" 744 -319.131 basechar 0
LayerCount: 2
Fore
SplineSet
795 677 m 1xee
 833 744 926 776 1012 776 c 0
 1286 776 1433 552 1433 320 c 0
 1433 49 1360 -143 1048 -251 c 0
 921 -294 788 -316 648 -316 c 0
 422 -316 256 -381 240 -536 c 0
 230 -634 263 -708 125 -708 c 0
 68 -708 14 -622 14 -509 c 0xf6
 14 -369 81 -305 192 -251 c 0
 277 -210 394 -191 528 -191 c 0
 997 -191 1224 -94 1224 295 c 0
 1224 424 1172 638 966 638 c 0
 882 638 825 608 794 549 c 1
 794 2 l 1
 580 2 l 1
 580 1192 l 1
 250 1192 l 1
 250 2 l 1
 151 2 l 1
 151 1292 l 1
 1081 1292 l 1
 1081 1192 l 1
 795 1192 l 1
 795 677 l 1xee
EndSplineSet
EndChar

StartChar: u0BA8_u0BBF
Encoding: 170 -1 170
Width: 2035
GlyphClass: 2
Flags: HW
HStem: -303 117<408.876 937.493> 1 21G<151 250 580 794 1664 1750.05> 637 138<846.586 1104.19> 1191 100<250 580 793 1079> 1885 194<959.252 1462.58>
VStem: 12 228<-666.154 -430.766> 151 99<1 1191> 580 214<1 600.327 676 1191> 624 109<1341.28 1678.86> 1224 212<55.5674 493.768> 1664 86<0 1692.96>
AnchorPoint: "V" 744 1926.4 basechar 0
AnchorPoint: "N" 744 -319.131 basechar 0
LayerCount: 2
Fore
SplineSet
123 -708 m 0xfce0
 66 -708 12 -622 12 -509 c 0xfce0
 12 -394 54 -326 182 -254 c 0
 302 -186 497 -186 539 -186 c 1
 786 -174 l 1
 827 -174 894 -159 987 -128 c 0
 1050 -108 1106 -64 1153 4 c 0
 1200 72 1224 169 1224 294 c 0
 1224 378 1204 456 1164 527 c 1
 1125 600 1059 637 966 637 c 0
 882 637 825 607 794 548 c 1
 794 1 l 1
 580 1 l 1
 580 1191 l 1
 250 1191 l 1
 250 1 l 1
 151 1 l 1
 151 1291 l 1xfb60
 692 1291 l 1
 647 1378 624 1477 624 1588 c 0
 624 1769 691 2079 1206 2079 c 0
 1644 2079 1754 1849 1754 1492 c 2
 1750 0 l 1
 1664 0 l 1
 1664 1491 l 2
 1664 1806 1462 1885 1202 1885 c 0
 918 1885 733 1759 733 1473 c 0
 733 1406 753 1346 793 1291 c 1
 1079 1291 l 1
 1079 1191 l 1
 793 1191 l 1
 793 676 l 1
 831 743 924 775 1010 775 c 0
 1300 775 1436 527 1436 301 c 0
 1436 -52 1257 -213 905 -288 c 0
 858 -298 810 -303 763 -303 c 0
 679 -303 599 -314 515 -321 c 0
 450 -326 388 -349 329 -389 c 1
 261 -437 240 -486 240 -596 c 0
 240 -675 215 -708 123 -708 c 0xfce0
EndSplineSet
EndChar

StartChar: u0BA8_u0BC0
Encoding: 171 -1 171
Width: 1720
GlyphClass: 2
Flags: HW
HStem: -304 117<406.876 935.493> 0 21G<149 248 578 792> 636 138<844.586 1102.19> 1190 100<248 578 791 1077> 1447 90<999.997 1233.9> 1979 169<716.192 965.776>
VStem: 10 228<-667.154 -431.766> 149 99<0 1190> 416 112<1447.2 1773.91> 578 214<0 599.327 675 1190> 845 92<1599.38 1852.31> 1222 212<54.5674 492.768> 1302 173<1604.01 1856.32>
AnchorPoint: "V" 744 2116.71 basechar 0
AnchorPoint: "N" 744 -319.131 basechar 0
LayerCount: 2
Fore
SplineSet
937 1723 m 0xfce8
 937 1623 1012 1537 1114 1537 c 0
 1213 1537 1303 1613 1302 1726 c 1
 1302 1834 1227 1927 1103 1927 c 1
 1007 1909 937 1827 937 1723 c 0xfce8
863 1979 m 0
 635 1979 528 1755 528 1591 c 0
 528 1461 592 1356 664 1292 c 1
 1079 1292 l 1
 1077 1190 l 1
 791 1190 l 1
 791 675 l 1
 829 742 922 774 1008 774 c 0
 1298 774 1434 526 1434 300 c 0
 1434 -53 1255 -214 903 -289 c 0
 856 -299 808 -304 761 -304 c 0
 677 -304 597 -315 513 -322 c 0
 448 -327 386 -350 327 -390 c 1
 259 -438 238 -487 238 -597 c 0
 238 -676 213 -709 121 -709 c 0
 64 -709 10 -623 10 -510 c 0xfef0
 10 -395 52 -327 180 -255 c 0
 300 -187 495 -187 537 -187 c 1
 784 -175 l 1
 825 -175 892 -160 985 -129 c 0
 1048 -109 1104 -65 1151 3 c 0
 1198 71 1222 168 1222 293 c 0
 1222 377 1202 455 1162 526 c 1
 1123 599 1057 636 964 636 c 0
 880 636 823 606 792 547 c 1
 792 0 l 1
 578 0 l 1
 578 1190 l 1
 248 1190 l 1
 248 0 l 1
 149 0 l 1
 149 1290 l 1xfdf0
 581 1290 l 1
 516 1346 416 1471 416 1624 c 0
 416 2002 688 2148 940 2148 c 0
 1081 2148 1205 2119 1313 2060 c 0
 1421 2001 1475 1900 1475 1757 c 0
 1475 1574 1342 1447 1145 1447 c 0
 930 1447 845 1601 845 1725 c 0
 845 1809 888 1929 967 1971 c 1
 931 1976 896 1979 863 1979 c 0
EndSplineSet
EndChar

StartChar: u0BA8_u0BC1
Encoding: 172 -1 172
Width: 2494
GlyphClass: 2
Flags: HW
HStem: -595 96<464.893 987.518> -215 105<139.015 1279 1574 1995> 639 138<1074.59 1328.14> 1193 100<477 807 1022 1309>
VStem: 6 133<-280.98 -157.5> 377 100<3 1193> 807 214<3 602.327 678 1193> 1449 216<41.1831 498.529> 1995 214<-109 1296>
AnchorPoint: "V" 790 1306 basechar 0
AnchorPoint: "N" 790 -640 basechar 0
LayerCount: 2
Fore
SplineSet
139 -245 m 0
 139 -304 355 -499 764 -499 c 0
 972 -499 1144 -404 1279 -215 c 1
 199 -215 l 2
 159 -215 139 -225 139 -245 c 0
1022 678 m 1
 1060 745 1153 777 1239 777 c 0
 1523 777 1665 535 1665 303 c 0
 1665 162 1635 24 1574 -109 c 1
 1995 -109 l 1
 1995 1296 l 1
 2209 1296 l 1
 2209 -210 l 1
 1515 -212 l 1
 1467 -287 1408 -354 1337 -411 c 1
 1300 -443 1118 -595 789 -595 c 0
 266 -595 6 -283 6 -181 c 0
 6 -134 37 -110 98 -110 c 2
 1342 -110 l 1
 1413 31 1449 166 1449 296 c 0
 1449 455 1379 639 1193 639 c 0
 1109 639 1052 609 1021 550 c 1
 1021 3 l 1
 807 3 l 1
 807 1193 l 1
 477 1193 l 1
 477 3 l 1
 377 3 l 1
 377 1293 l 1
 1309 1293 l 1
 1309 1193 l 1
 1022 1193 l 1
 1022 678 l 1
EndSplineSet
LCarets2: 1 0
EndChar

StartChar: u0BA8_u0BC2
Encoding: 173 -1 173
Width: 3211
GlyphClass: 2
Flags: HW
HStem: -595 96<463.893 991.923> -211 100<139.015 1279 1569 1990> 1 21G<372 472 802 1016> 637 138<1069.59 1323.14> 1191 100<472 802 1017 1304 2090 2420 2634 2921>
VStem: 4 135<-280.98 -157.5> 372 100<1 1191> 802 214<1 600.327 676 1191> 1444 216<39.1831 496.529> 1990 100<-111 1194> 2420 214<-211 1194>
AnchorPoint: "V" 790 1306 basechar 0
AnchorPoint: "N" 790 -640 basechar 0
LayerCount: 2
Fore
SplineSet
139 -245 m 0
 139 -304 355 -499 764 -499 c 0
 972 -499 1144 -404 1279 -215 c 1
 199 -215 l 2
 159 -215 139 -225 139 -245 c 0
1515 -211 m 1
 1433 -341 1224 -595 787 -595 c 0
 264 -595 4 -283 4 -181 c 0
 4 -134 35 -110 96 -110 c 2
 1337 -112 l 1
 1408 29 1444 164 1444 294 c 0
 1444 453 1374 637 1188 637 c 0
 1104 637 1047 607 1016 548 c 1
 1016 1 l 1
 802 1 l 1
 802 1191 l 1
 472 1191 l 1
 472 1 l 1
 372 1 l 1
 372 1291 l 1
 1304 1291 l 1
 1304 1191 l 1
 1017 1191 l 1
 1017 676 l 1
 1055 743 1148 775 1234 775 c 0
 1518 775 1660 533 1660 301 c 0
 1660 160 1630 22 1569 -111 c 1
 1990 -111 l 1
 1990 1294 l 1
 2921 1294 l 1
 2921 1194 l 1
 2634 1194 l 1
 2634 -211 l 1
 2420 -211 l 1
 2420 1194 l 1
 2090 1194 l 1
 2090 -211 l 1
 1515 -211 l 1
EndSplineSet
LCarets2: 1 0
EndChar

StartChar: u0BA8_u0BCD
Encoding: 174 -1 174
Width: 1663
GlyphClass: 2
Flags: W
HStem: -316 124<383.213 919.258> 1 21G<149 248 578 792> 637 138<845.586 1103.13> 1191 100<248 578 793 1079> 1508 326<635.658 852.739>
VStem: 12 225<-667.512 -441.65> 149 99<1 1191> 578 214<1 600.327 676 1191> 582 324<1561.81 1782.18> 1222 211<55.8676 490.223>
AnchorPoint: "N" 744 -319.131 basechar 0
LayerCount: 2
Fore
SplineSet
1010 775 m 0xfb40
 1299 775 1440 528 1433 298 c 1
 1433 -44 1264 -176 1048 -251 c 0
 921 -294 788 -316 648 -316 c 0
 450 -316 237 -366 237 -579 c 0
 237 -688 215 -709 123 -709 c 0
 66 -709 12 -623 12 -510 c 0xfc40
 12 -370 79 -306 190 -252 c 0
 275 -211 392 -192 526 -192 c 0
 614 -192 698 -187 778 -176 c 1
 815 -176 884 -160 985 -128 c 0
 1048 -108 1104 -64 1151 4 c 0
 1198 72 1222 169 1222 294 c 0
 1222 378 1202 456 1162 527 c 1
 1123 600 1057 637 964 637 c 0
 880 637 823 607 792 548 c 1
 792 1 l 1
 578 1 l 1
 578 1191 l 1
 248 1191 l 1
 248 1 l 1
 149 1 l 1
 149 1291 l 1
 1079 1291 l 1
 1079 1191 l 1
 793 1191 l 1
 793 676 l 1
 831 743 924 775 1010 775 c 0xfb40
582 1671 m 0xf8c0
 582 1765 658 1834 743 1834 c 0
 837 1834 906 1758 906 1671 c 0
 906 1582 833 1508 744 1508 c 0
 656 1508 582 1582 582 1671 c 0xf8c0
EndSplineSet
Validated: 33
LCarets2: 1 0
EndChar

StartChar: u0BA9
Encoding: 175 2985 175
Width: 2781
GlyphClass: 1
Flags: HW
HStem: 1 100<1173.19 1400.74> 2 169<237.367 457.09> 706 142<193.152 433.347> 1189 100<545.599 1095.19 1492.64 1991 2205 2492>
VStem: 1 100<313.872 735.476> 541 215<259.337 590.105> 960 99<259.379 784.931> 1498 214<241.031 808.547> 1991 214<-1 1189>
AnchorPoint: "V" 1298 1306 basechar 0
AnchorPoint: "N" 1298 1 basechar 0
LayerCount: 2
Fore
SplineSet
101 546 m 1x7f80
 101 272 227 171 344 171 c 0
 475 171 540 296 541 436 c 1
 541 598 419 706 319 706 c 0
 188 706 122 614 101 546 c 1x7f80
1059 546 m 0
 1059 353 1111 101 1279 101 c 0xbf80
 1454 101 1498 270 1498 579 c 0
 1498 750 1430 920 1291 1034 c 1
 1136 912 1059 749 1059 546 c 0
1712 580 m 0
 1712 121 1562 1 1338 1 c 0xbf80
 1086 1 960 183 960 548 c 0
 960 881 1140 1056 1192 1103 c 1
 1088 1160 961 1188 810 1188 c 0
 391 1188 123 900 105 731 c 1
 149 797 260 848 382 848 c 0
 608 848 756 680 756 443 c 0
 756 236 686 2 404 2 c 0x7f80
 162 2 1 242 1 594 c 0
 1 1049 391 1289 787 1289 c 0
 996 1289 1171 1256 1314 1189 c 1
 1439 1256 1578 1289 1732 1289 c 2
 2492 1289 l 1
 2492 1189 l 1
 2205 1189 l 1
 2205 -1 l 1
 1991 -1 l 1
 1991 1189 l 1
 1756 1189 l 2
 1635 1189 1527 1166 1432 1121 c 1
 1609 1001 1712 810 1712 580 c 0
EndSplineSet
EndChar

StartChar: u0BA9_u0BBE.old
Encoding: 177 -1 177
Width: 3082
GlyphClass: 1
Flags: HW
HStem: -715 98<1023.18 1804.14> -1 173<583.867 803.792> 1 102<1523.04 1749.78> 707 139<532.461 778.194> 1188 100<892.073 1445.33 1820.31 2267.14>
VStem: -1 100<159.256 826.495> 347 101<312.872 727.077> 886 216<257.257 586.791> 1302 105<260.598 777.922> 1846 209<241.501 807.348> 2575 216<165.273 810.757>
AnchorPoint: "V" 1298 1306 basechar 0
AnchorPoint: "N" 1298 1 basechar 0
LayerCount: 2
Fore
SplineSet
448 547 m 1xdfe0
 448 273 574 172 691 172 c 0
 822 172 889 299 886 436 c 1
 886 569 786 707 664 707 c 0
 531 707 469 617 448 547 c 1xdfe0
1407 548 m 0
 1407 355 1459 103 1626 103 c 0xbfe0
 1758 103 1846 189 1846 580 c 0
 1846 748 1777 920 1639 1038 c 1
 1519 939 1407 776 1407 548 c 0
1679 1 m 0
 1453 1 1302 157 1302 548 c 0
 1302 758 1375 962 1540 1103 c 1
 1436 1160 1309 1188 1158 1188 c 0
 734 1188 470 893 451 731 c 1
 497 800 602 846 726 846 c 0
 952 846 1102 681 1102 441 c 0
 1102 236 1032 -1 750 -1 c 0xdfe0
 508 -1 347 239 347 591 c 0
 347 1050 740 1288 1133 1288 c 0
 1339 1288 1515 1255 1660 1188 c 1
 1780 1255 1915 1288 2066 1288 c 0
 2527 1288 2791 934 2791 542 c 0
 2791 275 2749 48 2666 -136 c 0
 2408 -707 1667 -715 1413 -715 c 0
 969 -715 620 -572 378 -367 c 1
 125 -159 -1 116 -1 458 c 0
 -1 819 113 1124 293 1288 c 1
 356 1231 l 1
 185 1060 99 799 99 449 c 0
 99 178 212 -242 738 -476 c 0
 950 -570 1171 -617 1401 -617 c 0
 2184 -617 2575 -220 2575 574 c 0
 2575 916 2374 1188 2073 1188 c 0
 1966 1188 1865 1166 1772 1123 c 1
 1950 1001 2055 805 2055 580 c 0
 2055 123 1905 1 1679 1 c 0
EndSplineSet
EndChar

StartChar: u0BA9_u0BBF
Encoding: 178 -1 178
Width: 3096
GlyphClass: 2
Flags: HW
HStem: 2 169<237.367 457.09> 2 99<1176.66 1399.74> 706 142<193.152 433.347> 1188 101<545.599 1099.24 1480.14 1989 2203 2490> 1833 199<2252.55 2600.13>
VStem: 1 100<313.872 735.476> 541 215<259.337 590.105> 958 101<259.879 784.974> 1498 212<241.531 809.047> 1989 214<0 1190> 2019 99<1338.72 1693.82> 2719 85<-1 1692.76>
AnchorPoint: "V" 1298 1306 basechar 0
AnchorPoint: "N" 1298 1 basechar 0
LayerCount: 2
Fore
SplineSet
101 546 m 1xbf90
 101 272 227 171 344 171 c 0
 475 171 540 296 541 436 c 1
 541 598 419 706 319 706 c 0
 188 706 122 614 101 546 c 1xbf90
1059 546 m 0
 1059 353 1111 101 1279 101 c 0x7f90
 1454 101 1498 270 1498 579 c 0
 1498 750 1430 920 1291 1034 c 1
 1136 912 1059 749 1059 546 c 0
1710 581 m 0
 1710 122 1560 2 1336 2 c 0x7fd0
 1084 2 958 184 958 549 c 0
 958 881 1136 1054 1192 1103 c 1
 1088 1160 961 1188 810 1188 c 0
 391 1188 123 900 105 731 c 1
 149 797 260 848 382 848 c 0
 608 848 756 680 756 443 c 0
 756 236 686 2 404 2 c 0
 162 2 1 242 1 594 c 0
 1 1049 391 1289 787 1289 c 0
 996 1289 1171 1256 1314 1189 c 1
 1439 1256 1578 1289 1732 1289 c 2
 2087 1289 l 1
 2042 1378 2019 1463 2019 1543 c 0
 2019 1770 2099 2032 2417 2032 c 0
 2649 2032 2804 1920 2804 1478 c 2
 2804 -1 l 1
 2719 -1 l 1
 2719 1446 l 2
 2719 1746 2616 1833 2413 1833 c 0
 2263 1833 2118 1736 2118 1516 c 0xbfb0
 2118 1426 2151 1330 2189 1290 c 1
 2490 1290 l 1
 2490 1190 l 1
 2203 1190 l 1
 2203 0 l 1
 1989 0 l 1
 1989 1190 l 1xbfd0
 1754 1190 l 2
 1633 1190 1525 1167 1430 1122 c 1
 1607 1002 1710 811 1710 581 c 0
EndSplineSet
EndChar

StartChar: u0BA9_u0BC0
Encoding: 179 -1 179
Width: 2867
GlyphClass: 2
Flags: HW
HStem: 2 100<1172.69 1400.24> 3 168<237.367 457.09> 706 143<193.152 433.347> 1190 100<545.599 1095.19 1486.19 1990 2204 2491> 1446 90<2417.26 2651.64> 1978 169<2126.52 2376.78>
VStem: 1 100<314.372 735.976> 541 215<259.837 590.605> 959 100<260.379 785.931> 1498 213<242.031 809.547> 1827 112<1447.82 1781.79> 1990 214<0 1190> 2256 97<1597.75 1851.23> 2719 167<1602.77 1850.14>
AnchorPoint: "V" 1298 1306 basechar 0
AnchorPoint: "N" 1298 1 basechar 0
LayerCount: 2
Fore
SplineSet
101 546 m 1x7ffc
 101 272 227 171 344 171 c 0
 475 171 540 296 541 436 c 1
 541 598 419 706 319 706 c 0
 188 706 122 614 101 546 c 1x7ffc
2353 1721 m 0
 2353 1611 2437 1536 2530 1536 c 0
 2638 1536 2719 1624 2719 1724 c 0
 2719 1823 2649 1925 2518 1925 c 1
 2420 1906 2353 1823 2353 1721 c 0
1059 547 m 0
 1059 354 1111 102 1279 102 c 0xbffc
 1454 102 1498 271 1498 580 c 0
 1498 751 1430 921 1291 1035 c 1
 1136 913 1059 750 1059 547 c 0
1711 581 m 0
 1711 122 1561 2 1337 2 c 0xbffc
 1085 2 959 184 959 549 c 0
 959 882 1139 1057 1192 1104 c 1
 1088 1161 961 1189 810 1189 c 0
 391 1189 123 901 105 732 c 1
 149 798 260 849 382 849 c 0
 608 849 756 681 756 444 c 0
 756 237 686 3 404 3 c 0x7ffc
 162 3 1 243 1 595 c 0
 1 1050 391 1290 787 1290 c 0
 996 1290 1171 1257 1314 1190 c 1
 1439 1257 1578 1290 1732 1290 c 2
 1993 1290 l 1
 1925 1347 1827 1471 1827 1624 c 0
 1827 2042 2147 2147 2351 2147 c 0
 2492 2147 2616 2118 2724 2059 c 0
 2832 2000 2886 1899 2886 1756 c 0
 2886 1573 2753 1446 2556 1446 c 0
 2341 1446 2256 1600 2256 1724 c 0
 2256 1817 2299 1923 2378 1970 c 1
 2342 1975 2307 1978 2273 1978 c 0
 2081 1978 1939 1800 1939 1590 c 0
 1939 1470 1995 1364 2076 1290 c 1
 2491 1290 l 1
 2491 1190 l 1
 2204 1190 l 1
 2204 0 l 1
 1990 0 l 1
 1990 1190 l 1
 1755 1190 l 2
 1634 1190 1526 1167 1431 1122 c 1
 1608 1002 1711 811 1711 581 c 0
EndSplineSet
EndChar

StartChar: u0BA9_u0BC1
Encoding: 180 -1 180
Width: 3455
GlyphClass: 2
Flags: HW
HStem: -713 99<813.63 1544.96> -217 103<146.015 2094 2414 2950> 0 101<1377.18 1601.36> 5 165<438.656 661.654> 706 146<393.135 636.311> 1192 100<747.741 1298.68 1695.07 2113.61>
VStem: 202 101<316.903 627.582> 743 213<264.718 587.183> 1163 99<258.878 775.642> 1702 213<237.145 801.575> 2409 210<282.321 844.644> 2950 214<-112 1293>
AnchorPoint: "V" 1298 1306 basechar 0
AnchorPoint: "N" 1298 -740 basechar 0
LayerCount: 2
Fore
SplineSet
303 545 m 1xdff0
 303 271 429 170 546 170 c 0
 676 170 744 298 743 436 c 1
 743 561 651 706 520 706 c 0
 390 706 327 617 303 545 c 1xdff0
1262 546 m 0
 1262 353 1314 101 1482 101 c 0xeff0
 1614 101 1702 199 1702 578 c 0
 1702 742 1633 919 1494 1036 c 1
 1371 935 1262 766 1262 546 c 0
146 -247 m 0
 146 -339 599 -614 1222 -614 c 0
 1614 -614 1905 -433 2094 -217 c 1
 206 -217 l 2
 166 -217 146 -227 146 -247 c 0
1541 0 m 0
 1314 0 1163 155 1163 547 c 0
 1163 796 1263 982 1394 1107 c 1
 1289 1164 1161 1192 1010 1192 c 0
 600 1192 332 909 304 735 c 1
 350 800 463 852 582 852 c 0
 808 852 956 684 956 447 c 0
 956 202 862 5 604 5 c 0xdff0
 363 5 202 246 202 597 c 0
 202 1053 588 1292 988 1292 c 0
 1192 1292 1368 1259 1515 1192 c 1
 1637 1259 1772 1292 1920 1292 c 0
 2479 1292 2619 876 2619 544 c 0
 2619 322 2551 103 2414 -112 c 1
 2950 -112 l 1
 2950 1293 l 1
 3164 1293 l 1
 3164 -213 l 1
 2343 -213 l 1
 2126 -490 1772 -713 1246 -713 c 0
 464 -713 16 -340 2 -190 c 1
 2 -139 33 -114 94 -114 c 2
 2175 -114 l 1
 2331 110 2409 365 2409 572 c 0
 2409 1054 2143 1187 1934 1187 c 0
 1825 1187 1725 1165 1634 1122 c 1
 1819 995 1915 791 1915 578 c 0
 1915 117 1765 0 1541 0 c 0
EndSplineSet
LCarets2: 1 0
EndChar

StartChar: u0BA9_u0BC2
Encoding: 181 -1 181
Width: 4172
GlyphClass: 2
Flags: HW
HStem: -714 100<800.348 1543.96> -214 100<146.015 2094 2413 2949> 2 99<1378.96 1598.86> 3 167<438.156 661.154> 706 144<392.635 635.811> 1191 100<746.741 1297.68 1681.36 2115.64 3048 3378 3592 3879>
VStem: 201 102<314.903 627.582> 743 212<262.718 587.183> 1158 104<259.878 776.902> 1702 208<238.145 802.575> 2404 214<284.255 844.644> 2949 99<-114 1191> 3378 214<-214 1191>
AnchorPoint: "V" 1298 1306 basechar 0
AnchorPoint: "N" 1298 -740 basechar 0
LayerCount: 2
Fore
SplineSet
303 545 m 1xdff8
 303 271 429 170 546 170 c 0
 676 170 744 298 743 436 c 1
 743 561 651 706 520 706 c 0
 390 706 327 617 303 545 c 1xdff8
1262 546 m 0
 1262 353 1314 101 1482 101 c 0xeff8
 1614 101 1702 199 1702 578 c 0
 1702 742 1633 919 1494 1036 c 1
 1371 935 1262 766 1262 546 c 0
146 -247 m 0
 146 -339 599 -614 1222 -614 c 0
 1614 -614 1905 -433 2094 -217 c 1
 206 -217 l 2
 166 -217 146 -227 146 -247 c 0
2341 -214 m 1
 2124 -491 1770 -714 1244 -714 c 0
 462 -714 14 -341 0 -191 c 1
 0 -140 31 -115 92 -115 c 2
 2170 -112 l 1
 2222 -37 2266 40 2301 120 c 1
 2370 285 2404 436 2404 574 c 0
 2404 1056 2138 1189 1929 1189 c 0
 1820 1189 1720 1167 1629 1124 c 1
 1814 997 1910 793 1910 580 c 0
 1910 119 1760 2 1536 2 c 0xeff8
 1309 2 1158 157 1158 549 c 0
 1158 799 1257 985 1393 1105 c 1
 1288 1162 1160 1190 1009 1190 c 0
 599 1190 331 907 303 733 c 1
 349 798 462 850 581 850 c 0
 807 850 955 682 955 445 c 0
 955 200 861 3 603 3 c 0xdff8
 362 3 201 244 201 595 c 0
 201 1051 587 1290 987 1290 c 0
 1191 1290 1367 1257 1514 1190 c 1
 1636 1257 1771 1290 1919 1290 c 0
 2478 1290 2618 874 2618 542 c 0
 2618 320 2550 101 2413 -114 c 1
 2949 -114 l 1
 2949 1291 l 1
 3879 1291 l 1
 3879 1191 l 1
 3592 1191 l 1
 3592 -214 l 1
 3378 -214 l 1
 3378 1191 l 1
 3048 1191 l 1
 3048 -214 l 1
 2341 -214 l 1
EndSplineSet
LCarets2: 1 0
EndChar

StartChar: u0BA9_u0BCD
Encoding: 184 -1 184
Width: 2781
GlyphClass: 2
Flags: W
HStem: 1 100<1173.19 1400.74> 2 169<237.367 457.09> 706 142<193.152 433.347> 1189 100<545.599 1095.19 1492.64 1991 2205 2492> 1506 326<1189.21 1407.59>
VStem: 1 100<313.872 735.476> 541 215<259.337 590.105> 960 99<259.379 784.931> 1135 326<1559.41 1778.59> 1498 214<241.031 808.547> 1991 214<-1 1189>
AnchorPoint: "N" 1298 1 basechar 0
LayerCount: 2
Fore
SplineSet
101 546 m 1x7fe0
 101 272 227 171 344 171 c 0
 475 171 540 296 541 436 c 1
 541 598 419 706 319 706 c 0
 188 706 122 614 101 546 c 1x7fe0
1059 546 m 0
 1059 353 1111 101 1279 101 c 0xbfe0
 1454 101 1498 270 1498 579 c 0
 1498 750 1430 920 1291 1034 c 1
 1136 912 1059 749 1059 546 c 0
1712 580 m 0
 1712 121 1562 1 1338 1 c 0xbfe0
 1086 1 960 183 960 548 c 0
 960 881 1140 1056 1192 1103 c 1
 1088 1160 961 1188 810 1188 c 0
 391 1188 123 900 105 731 c 1
 149 797 260 848 382 848 c 0
 608 848 756 680 756 443 c 0
 756 236 686 2 404 2 c 0x7fe0
 162 2 1 242 1 594 c 0
 1 1049 391 1289 787 1289 c 0
 996 1289 1171 1256 1314 1189 c 1
 1439 1256 1578 1289 1732 1289 c 2
 2492 1289 l 1
 2492 1189 l 1
 2205 1189 l 1
 2205 -1 l 1
 1991 -1 l 1
 1991 1189 l 1
 1756 1189 l 2
 1635 1189 1527 1166 1432 1121 c 1
 1609 1001 1712 810 1712 580 c 0
1298 1506 m 0
 1213 1506 1135 1579 1135 1669 c 256
 1135 1759 1210 1832 1298 1832 c 0
 1388 1832 1461 1757 1461 1669 c 0
 1461 1584 1388 1506 1298 1506 c 0
EndSplineSet
Validated: 1
LCarets2: 1 0
EndChar

StartChar: u0BAA
Encoding: 185 2986 185
Width: 1706
GlyphClass: 1
Flags: HW
HStem: 0 86<215 1203>
VStem: 0 215<86 1290> 1203 216<86 1290>
AnchorPoint: "V" 725.5 1306 basechar 0
AnchorPoint: "N" 725.5 0 basechar 0
LayerCount: 2
Fore
SplineSet
1419 0 m 1
 0 0 l 1
 0 1290 l 1
 215 1290 l 1
 215 86 l 1
 1203 86 l 1
 1203 1290 l 1
 1419 1290 l 1
 1419 0 l 1
EndSplineSet
EndChar

StartChar: u0BAA_u0BBF
Encoding: 186 -1 186
Width: 2021
GlyphClass: 2
Flags: HW
HStem: 1 86<214 1202> 1144 101<1056.68 1202> 1834 200<1114.15 1490.83>
VStem: -1 215<87 1291> 845 116<1342.88 1685.95> 1202 216<87 1144 1245 1291> 1649 85<0 1667.61>
AnchorPoint: "V" 725.5 1306 basechar 0
AnchorPoint: "N" 725.5 0 basechar 0
LayerCount: 2
Fore
SplineSet
1202 1144 m 1
 1059 1144 845 1226 845 1553 c 0
 845 1852 998 2034 1286 2034 c 0
 1583 2034 1732 1849 1732 1479 c 2
 1734 0 l 1
 1649 0 l 1
 1649 1447 l 2
 1649 1659 1576 1834 1285 1834 c 0
 1124 1834 961 1736 961 1517 c 0
 961 1296 1099 1245 1203 1245 c 1
 1203 1291 l 1
 1418 1291 l 1
 1418 1 l 1
 -1 1 l 1
 -1 1291 l 1
 214 1291 l 1
 214 87 l 1
 1202 87 l 1
 1202 1144 l 1
EndSplineSet
LCarets2: 1 0
EndChar

StartChar: u0BAA_u0BC0
Encoding: 187 -1 187
Width: 1964
GlyphClass: 2
Flags: HW
HStem: -1 86<216 1204> 1133 72<1116.43 1204> 1379 86<1523.67 1750.8> 1909 167<1226.54 1483.05>
VStem: 1 215<85 1289> 903 114<1324.63 1694.78> 1204 216<85 1133 1205 1289> 1363 93<1529.38 1780.7> 1822 171<1533.77 1780.44>
AnchorPoint: "V" 725.5 1306 basechar 0
AnchorPoint: "N" 725.5 0 basechar 0
LayerCount: 2
Fore
SplineSet
1380 1909 m 0xfd80
 1144 1909 1017 1672 1017 1521 c 0
 1017 1288 1130 1205 1205 1205 c 1
 1205 1289 l 1
 1420 1289 l 1
 1420 -1 l 1
 1 -1 l 1
 1 1289 l 1
 216 1289 l 1
 216 85 l 1
 1204 85 l 1
 1204 1133 l 1xfe80
 1129 1133 1061 1171 998 1246 c 0
 935 1321 903 1424 903 1553 c 0
 903 1971 1260 2076 1456 2076 c 0
 1595 2076 1719 2047 1828 1988 c 0
 1937 1929 1992 1830 1993 1689 c 1
 1993 1506 1860 1379 1663 1379 c 0
 1448 1379 1363 1533 1363 1657 c 0
 1363 1748 1407 1859 1486 1901 c 1
 1448 1906 1413 1909 1380 1909 c 0xfd80
1456 1651 m 0xfd80
 1456 1551 1531 1465 1633 1465 c 0
 1741 1465 1822 1553 1822 1653 c 0
 1822 1753 1751 1853 1621 1853 c 1
 1527 1834 1456 1756 1456 1651 c 0xfd80
EndSplineSet
LCarets2: 1 0
EndChar

StartChar: u0BAA_u0BC1
Encoding: 188 -1 188
Width: 1706
GlyphClass: 2
Flags: HW
HStem: 0 86<215 1203>
VStem: 0 215<86 1290> 1203 216<-387 0 86 1290>
AnchorPoint: "V" 725 1306 basechar 0
AnchorPoint: "N" 550 -50 basechar 0
LayerCount: 2
Fore
SplineSet
1419 -387 m 1
 1204 -387 l 1
 1204 0 l 1
 0 0 l 1
 0 1290 l 1
 215 1290 l 1
 215 86 l 1
 1203 86 l 1
 1203 1290 l 1
 1418 1290 l 1
 1419 -387 l 1
EndSplineSet
LCarets2: 1 0
EndChar

StartChar: u0BAA_u0BC2
Encoding: 189 -1 189
Width: 2322
GlyphClass: 2
Flags: HW
HStem: -744 97<727.492 1127.76> -208 89<417.453 654.426> 0 86<201 1185> 239 142<1450.42 1650.77>
VStem: 0 201<86 1290> 260 90<-522.178 -275.769> 715 141<-520.532 -269.034> 1189 197<-316 0 86 204.48 270 1290> 1746 239<-191.024 142.784>
AnchorPoint: "V" 725 1306 basechar 0
AnchorPoint: "N" 701 -760 basechar 0
LayerCount: 2
Fore
SplineSet
715 -393 m 0
 715 -284 638 -208 538 -208 c 0
 441 -208 350 -284 350 -394 c 0
 350 -504 427 -595 549 -595 c 1
 627 -578 715 -514 715 -393 c 0
1544 239 m 0
 1495 239 1412 223 1386 142 c 1
 1386 -316 l 1
 1185 -316 l 1
 1185 0 l 1
 0 0 l 1
 0 1290 l 1
 201 1290 l 1
 201 86 l 1
 1189 86 l 1
 1189 1290 l 1
 1390 1290 l 1
 1387 270 l 1
 1431 346 1521 381 1610 381 c 0
 1743 381 1985 258 1985 5 c 0
 1985 -113 1942 -338 1659 -531 c 0
 1481 -653 1146 -744 816 -744 c 0
 365 -744 260 -538 260 -400 c 0
 260 -266 319 -119 556 -119 c 0
 791 -119 856 -279 856 -398 c 0
 856 -500 795 -589 718 -626 c 1
 751 -640 788 -647 829 -647 c 1
 1098 -639 1396 -535 1529 -424 c 0
 1653 -320 1746 -151 1746 18 c 0
 1746 132 1634 239 1544 239 c 0
EndSplineSet
LCarets2: 1 0
EndChar

StartChar: u0BAA_u0BCD
Encoding: 190 -1 190
Width: 1706
GlyphClass: 2
Flags: W
HStem: 0 86<215 1203> 1505 326<616.658 834.485>
VStem: 0 215<86 1290> 563 325<1558.81 1778.38> 1203 216<86 1290>
AnchorPoint: "N" 725.5 0 basechar 0
LayerCount: 2
Fore
SplineSet
1419 0 m 1
 0 0 l 1
 0 1290 l 1
 215 1290 l 1
 215 86 l 1
 1203 86 l 1
 1203 1290 l 1
 1418 1290 l 1
 1419 0 l 1
563 1668 m 0
 563 1762 639 1831 724 1831 c 0
 816 1831 887 1760 888 1668 c 1
 888 1578 813 1505 725 1505 c 0
 637 1505 563 1579 563 1668 c 0
EndSplineSet
Validated: 1
LCarets2: 1 0
EndChar

StartChar: u0BAE
Encoding: 191 2990 191
Width: 1734
GlyphClass: 1
Flags: HW
HStem: 0 100<215 543 758 1163.29> 1165 123<852.846 1127.6>
VStem: 0 215<100 1290> 543 215<100 1057.14> 1344 103<337.09 890.635>
AnchorPoint: "V" 650.5 1306 basechar 0
AnchorPoint: "N" 650.5 0 basechar 0
LayerCount: 2
Fore
SplineSet
543 836 m 2
 543 1127 651 1288 932 1288 c 0
 1294 1288 1447 960 1447 643 c 0
 1447 259 1294 0 1064 0 c 2
 0 0 l 1
 0 1290 l 1
 215 1290 l 1
 215 100 l 1
 543 100 l 1
 543 836 l 2
960 1165 m 0
 879 1165 758 1104 758 833 c 2
 758 100 l 1
 1042 100 l 2
 1172 100 1344 249 1344 625 c 0
 1344 914 1216 1165 960 1165 c 0
EndSplineSet
EndChar

StartChar: u0BAE_u0BBF
Encoding: 192 -1 192
Width: 2051
GlyphClass: 2
Flags: HW
HStem: 5 100<216 544 760 1171.65> 1166 127<950.362 1128.64> 1887 194<1098.95 1493.32>
VStem: 1 215<105 1295> 544 216<105 1054.16> 802 116<1337.44 1696.37> 1346 102<338.822 893.72> 1678 86<0 1687.05>
AnchorPoint: "V" 650.5 1306 basechar 0
AnchorPoint: "N" 650.5 0 basechar 0
LayerCount: 2
Fore
SplineSet
544 841 m 2
 544 1211 730 1276 870 1290 c 1
 825 1370 802 1470 802 1590 c 0
 802 1873 960 2081 1299 2081 c 0
 1607 2081 1761 1885 1761 1494 c 2
 1764 0 l 1
 1678 0 l 1
 1678 1491 l 2
 1678 1652 1603 1887 1301 1887 c 0
 1038 1887 918 1729 918 1475 c 0
 918 1404 937 1343 975 1293 c 1
 1164 1293 1448 1136 1448 630 c 0
 1448 427 1408 272 1330 165 c 0
 1252 58 1164 5 1065 5 c 2
 1 5 l 1
 1 1295 l 1
 216 1295 l 1
 216 105 l 1
 544 105 l 1
 544 841 l 2
962 1166 m 0
 881 1166 760 1105 760 834 c 2
 760 101 l 1
 1044 101 l 2
 1174 101 1346 250 1346 626 c 0
 1346 915 1218 1166 962 1166 c 0
EndSplineSet
EndChar

StartChar: u0BAE_u0BC0
Encoding: 193 -1 193
Width: 1950
GlyphClass: 2
Flags: HW
HStem: -1 100<215 543 762 1166.81> 1165 122<853.638 901> 1442 93<1321.5 1555.32> 1974 169<1027.61 1285.78>
VStem: 0 215<99 1289> 543 219<100 1054.6> 737 112<1440.53 1778.95> 1166 93<1598.58 1850.57> 1348 99<335.322 889.104> 1626 168<1604.94 1850.52>
AnchorPoint: "V" 650.5 1306 basechar 0
AnchorPoint: "N" 650.5 0 basechar 0
LayerCount: 2
Fore
SplineSet
964 1165 m 0xfdc0
 883 1165 762 1104 762 833 c 2
 762 100 l 1
 1046 100 l 2
 1176 100 1348 249 1348 625 c 0
 1348 914 1220 1165 964 1165 c 0xfdc0
1166 1720 m 0
 1166 1803 1208 1924 1288 1966 c 1
 1252 1971 1217 1974 1183 1974 c 0
 991 1974 849 1795 849 1586 c 0xfbc0
 849 1436 937 1328 985 1287 c 1
 1396 1252 1442 800 1447 624 c 1
 1447 421 1408 266 1330 159 c 0
 1252 52 1163 -1 1064 -1 c 2
 0 -1 l 1
 0 1289 l 1
 215 1289 l 1
 215 99 l 1
 543 99 l 1
 543 835 l 2xfdc0
 543 1094 638 1287 901 1287 c 1
 833 1345 737 1466 737 1620 c 0xfbc0
 737 2000 1010 2143 1259 2143 c 0
 1400 2143 1524 2114 1632 2055 c 0
 1740 1996 1794 1895 1794 1752 c 0
 1794 1570 1662 1442 1466 1442 c 0
 1251 1442 1166 1595 1166 1720 c 0
1259 1721 m 0
 1259 1621 1334 1535 1436 1535 c 0
 1543 1535 1626 1620 1626 1723 c 0
 1626 1822 1556 1924 1425 1924 c 1
 1330 1905 1259 1826 1259 1721 c 0
EndSplineSet
EndChar

StartChar: u0BAE_u0BC1
Encoding: 194 -1 194
Width: 2336
GlyphClass: 2
Flags: HW
HStem: -630 104<621.592 1045.13> 2 100<819 1148 1365 1775.1> 1165 125<1458.35 1728.66>
VStem: 7 99<112.355 810.498> 604 215<102 1292> 1148 216<-417.624 1 102 1051.99> 1950 101<338.312 889.179>
AnchorPoint: "V" 860 1306 basechar 0
AnchorPoint: "N" 860 -670 basechar 0
LayerCount: 2
Fore
SplineSet
1148 838 m 2
 1148 1129 1256 1290 1537 1290 c 0
 1911 1290 2051 969 2051 625 c 0
 2051 447 2016 222 1869 88 c 0
 1823 46 1757 1 1668 1 c 2
 1365 1 l 1
 1365 -179 l 2
 1365 -418 1290 -630 866 -630 c 0
 351 -630 7 -160 7 433 c 0
 7 668 64 1075 299 1291 c 1
 362 1234 l 1
 150 1019 106 664 106 425 c 0
 106 -126 448 -526 840 -526 c 0
 1083 -526 1148 -447 1148 -178 c 2
 1148 2 l 1
 604 2 l 1
 604 1292 l 1
 819 1292 l 1
 819 102 l 1
 1148 102 l 1
 1148 838 l 2
1566 1165 m 0
 1485 1165 1364 1104 1364 833 c 2
 1364 100 l 1
 1648 100 l 2
 1778 100 1950 249 1950 625 c 0
 1950 914 1822 1165 1566 1165 c 0
EndSplineSet
LCarets2: 1 0
EndChar

StartChar: u0BAE_u0BC2
Encoding: 195 -1 195
Width: 2623
GlyphClass: 2
Flags: HW
HStem: -635 104<770.889 1270.43> -3 100<1101 1430 1651 2050.35> 689 111<280.073 542.19> 1166 119<1742.85 2017.6> 1193 94<287.675 534.067>
VStem: -3 103<134.067 847.867> 603 97<860.919 1123.27> 886 215<97 1287> 1430 221<-377.801 -3 101 1056.99> 2237 93<342.024 896.715>
AnchorPoint: "V" 1030 1306 basechar 0
AnchorPoint: "N" 1030 -670 basechar 0
LayerCount: 2
Fore
SplineSet
1853 1166 m 0xf7c0
 1772 1166 1651 1105 1651 834 c 2
 1651 101 l 1
 1935 101 l 2
 2081 101 2237 278 2237 625 c 0
 2237 955 2083 1166 1853 1166 c 0xf7c0
418 800 m 0
 523 800 603 871 603 977 c 0
 603 1091 539 1193 416 1193 c 0xefc0
 266 1193 200 1062 200 961 c 1
 220 864 317 800 418 800 c 0
420 689 m 0
 297 689 174 760 146 871 c 1
 118 787 97 588 100 419 c 1
 100 -205 645 -531 1007 -531 c 0
 1356 -531 1430 -392 1430 -183 c 2
 1430 -3 l 1
 886 -3 l 1
 886 1287 l 1
 1101 1287 l 1xefc0
 1101 97 l 1
 1430 97 l 1
 1430 833 l 2
 1430 1124 1538 1285 1819 1285 c 0xf7c0
 2188 1285 2330 959 2330 622 c 0
 2330 444 2295 218 2148 84 c 0
 2102 42 2036 -2 1947 -2 c 2
 1644 -2 l 1
 1644 -182 l 2
 1644 -454 1487 -635 1029 -635 c 0
 531 -635 -3 -242 -3 427 c 0
 -3 1158 249 1287 417 1287 c 0
 600 1287 700 1179 700 989 c 0
 700 749 533 689 420 689 c 0
EndSplineSet
LCarets2: 1 0
EndChar

StartChar: u0BAE_u0BCD
Encoding: 196 -1 196
Width: 1835
GlyphClass: 2
Flags: W
HStem: 0 100<215 543 758 1163.29> 1165 123<852.846 1122.95> 1504 326<541.658 759.485>
VStem: 0 215<100 1290> 488 325<1557.81 1777.38> 543 215<100 1057.14> 1344 103<335.822 894.488>
AnchorPoint: "N" 650.5 0 basechar 0
LayerCount: 2
Fore
SplineSet
543 836 m 2xf6
 543 1127 651 1288 932 1288 c 0
 1306 1288 1441 961 1447 625 c 1
 1447 422 1408 267 1330 160 c 0
 1252 53 1163 0 1064 0 c 2
 0 0 l 1
 0 1290 l 1
 215 1290 l 1
 215 100 l 1
 543 100 l 1
 543 836 l 2xf6
960 1165 m 0
 879 1165 758 1104 758 833 c 2
 758 100 l 1
 1042 100 l 2
 1172 100 1344 249 1344 625 c 0
 1344 914 1216 1165 960 1165 c 0
488 1667 m 0xfa
 488 1761 564 1830 649 1830 c 0
 741 1830 812 1759 813 1667 c 1
 813 1577 738 1504 650 1504 c 0
 562 1504 488 1578 488 1667 c 0xfa
EndSplineSet
Validated: 1
LCarets2: 1 0
EndChar

StartChar: u0BAF
Encoding: 197 2991 197
Width: 1805
GlyphClass: 1
Flags: HW
HStem: 0 86<268.191 483.335 646 1305>
VStem: 3 215<148.552 1289> 546 100<85 86 146.75 1289> 1305 215<85 1289>
AnchorPoint: "V" 683.5 1306 basechar 0
AnchorPoint: "N" 683.5 0 basechar 0
LayerCount: 2
Fore
SplineSet
545 86 m 1
 527 52 442 0 292 0 c 0
 119 0 3 145 3 321 c 2
 3 1289 l 1
 218 1289 l 1
 218 315 l 2
 218 162 268 86 369 86 c 0
 487 86 546 167 546 329 c 2
 546 1289 l 1
 646 1289 l 1
 646 85 l 1
 1305 85 l 1
 1305 1289 l 1
 1520 1289 l 1
 1520 0 l 1
 545 0 l 1
 545 86 l 1
EndSplineSet
EndChar

StartChar: u0BAF_u0BBF
Encoding: 198 -1 198
Width: 2108
GlyphClass: 2
Flags: HW
HStem: 1 86<268.191 483.335 646 1305> 1143 102<1161.92 1305> 1834 199<1209.97 1587.12>
VStem: 3 215<149.552 1290> 546 100<86 87 147.75 1290> 948 115<1343.45 1685.49> 1305 215<86 1143 1245 1291> 1735 86<0 1677.39>
AnchorPoint: "V" 683.5 1306 basechar 0
AnchorPoint: "N" 683.5 0 basechar 0
LayerCount: 2
Fore
SplineSet
948 1552 m 0
 948 1851 1100 2033 1388 2033 c 0
 1714 2033 1821 1812 1821 1478 c 2
 1821 0 l 1
 1735 0 l 1
 1735 1447 l 2
 1735 1710 1635 1834 1385 1834 c 0
 1208 1834 1063 1721 1063 1517 c 0
 1063 1296 1201 1245 1305 1245 c 1
 1305 1291 l 1
 1520 1291 l 1
 1520 1 l 1
 545 1 l 1
 545 87 l 1
 527 53 442 1 292 1 c 0
 119 1 3 146 3 322 c 2
 3 1290 l 1
 218 1290 l 1
 218 316 l 2
 218 163 268 87 369 87 c 0
 487 87 546 168 546 330 c 2
 546 1290 l 1
 646 1290 l 1
 646 86 l 1
 1305 86 l 1
 1305 1143 l 1
 1152 1143 948 1230 948 1552 c 0
EndSplineSet
EndChar

StartChar: u0BAF_u0BC0
Encoding: 199 -1 199
Width: 2065
GlyphClass: 2
Flags: HW
HStem: -1 86<268.191 483.335 646 1305> 1135 70<1217.31 1304> 1378 87<1622.54 1855.57> 1908 171<1324.77 1582.28>
VStem: 3 215<147.552 1288> 546 100<84 85 145.75 1288> 1003 114<1337.17 1697.34> 1305 215<84 1135 1205 1289> 1462 96<1528.66 1779.81> 1923 167<1533.16 1784.14>
AnchorPoint: "V" 683.5 1306 basechar 0
AnchorPoint: "N" 683.5 0 basechar 0
LayerCount: 2
Fore
SplineSet
545 85 m 1xff40
 527 51 442 -1 292 -1 c 0
 119 -1 3 144 3 320 c 2
 3 1288 l 1
 218 1288 l 1
 218 314 l 2
 218 161 268 85 369 85 c 0
 487 85 546 166 546 328 c 2
 546 1288 l 1
 646 1288 l 1
 646 84 l 1
 1305 84 l 1xff40
 1304 1135 l 1
 1162 1135 1003 1286 1003 1555 c 0
 1003 1974 1358 2079 1555 2079 c 0
 1696 2079 1820 2050 1928 1991 c 0
 2036 1932 2090 1831 2090 1688 c 0
 2090 1506 1958 1378 1762 1378 c 0
 1547 1378 1462 1531 1462 1656 c 0xfec0
 1462 1747 1506 1858 1585 1900 c 1
 1549 1905 1514 1908 1480 1908 c 0
 1258 1908 1117 1697 1117 1521 c 0
 1117 1284 1232 1205 1305 1205 c 1
 1305 1289 l 1
 1520 1289 l 1
 1520 -1 l 1
 545 -1 l 1
 545 85 l 1xff40
1558 1651 m 0xfec0
 1558 1551 1633 1465 1735 1465 c 0
 1846 1465 1923 1551 1923 1654 c 0
 1923 1761 1853 1853 1724 1853 c 1
 1630 1835 1558 1753 1558 1651 c 0xfec0
EndSplineSet
EndChar

StartChar: u0BAF_u0BC1
Encoding: 200 -1 200
Width: 1805
GlyphClass: 2
Flags: HW
HStem: 0 86<268.191 483.335 646 1305>
VStem: 3 215<148.552 1289> 546 100<85 86 146.75 1289> 1305 215<-387 0 85 1289>
AnchorPoint: "V" 683.5 1306 basechar 0
AnchorPoint: "N" 683.5 0 basechar 0
LayerCount: 2
Fore
SplineSet
545 86 m 1
 527 52 442 0 292 0 c 0
 119 0 3 145 3 321 c 2
 3 1289 l 1
 218 1289 l 1
 218 315 l 2
 218 162 268 86 369 86 c 0
 487 86 546 167 546 329 c 2
 546 1289 l 1
 646 1289 l 1
 646 85 l 1
 1305 85 l 1
 1305 1289 l 1
 1520 1289 l 1
 1520 -387 l 1
 1305 -387 l 1
 1305 0 l 1
 545 0 l 1
 545 86 l 1
EndSplineSet
EndChar

StartChar: u0BAF_u0BC2
Encoding: 201 -1 201
Width: 2451
GlyphClass: 2
Flags: HW
HStem: -731 90<788.085 1281.3> -178 86<480.659 714.494> 2 85<265.191 480.335 643 1302> 235 142<1577.42 1777.77>
VStem: 0 215<150.552 1291> 321 89<-495.913 -244.998> 543 100<87 88 148.75 1291> 775 138<-493.106 -239.443> 1302 211<-314 2 87 200.48 266 1290> 1873 239<-195.024 138.784>
AnchorPoint: "V" 802 1306 basechar 0
AnchorPoint: "N" 800 -736 basechar 0
LayerCount: 2
Fore
SplineSet
775 -363 m 0
 775 -254 698 -178 598 -178 c 0
 493 -178 410 -262 410 -363 c 0
 410 -485 495 -566 609 -566 c 1
 689 -549 775 -485 775 -363 c 0
1671 235 m 0
 1622 235 1539 219 1513 138 c 1
 1517 -314 l 1
 1302 -314 l 1
 1302 2 l 1
 542 2 l 1
 542 88 l 1
 524 54 439 2 289 2 c 0
 116 2 0 147 0 323 c 2
 0 1291 l 1
 215 1291 l 1
 215 317 l 2
 215 164 265 88 366 88 c 0
 484 88 543 169 543 331 c 2
 543 1291 l 1
 643 1291 l 1
 643 87 l 1
 1302 87 l 1
 1302 1290 l 1
 1519 1290 l 1
 1514 266 l 1
 1558 342 1648 377 1737 377 c 0
 1870 377 2112 254 2112 1 c 0
 2112 -117 2069 -342 1786 -535 c 0
 1655 -625 1390 -731 958 -731 c 0
 409 -731 321 -515 321 -371 c 0
 321 -189 427 -92 616 -92 c 0
 852 -92 913 -249 913 -368 c 0
 913 -465 859 -556 780 -597 c 1
 828 -632 880 -641 965 -641 c 0
 1231 -641 1528 -536 1656 -428 c 0
 1780 -324 1873 -155 1873 14 c 0
 1873 128 1761 235 1671 235 c 0
EndSplineSet
LCarets2: 1 0
EndChar

StartChar: u0BAF_u0BCD
Encoding: 202 -1 202
Width: 1805
GlyphClass: 2
Flags: W
HStem: 0 86<268.191 483.335 646 1305> 1504 326<574.658 792.485>
VStem: 3 215<148.552 1289> 521 325<1557.81 1777.38> 546 100<85 86 146.75 1289> 1305 215<85 1289>
AnchorPoint: "N" 683.5 0 basechar 0
LayerCount: 2
Fore
SplineSet
545 86 m 1xec
 527 52 442 0 292 0 c 0
 119 0 3 145 3 321 c 2
 3 1289 l 1
 218 1289 l 1
 218 315 l 2
 218 162 268 86 369 86 c 0
 487 86 546 167 546 329 c 2
 546 1289 l 1
 646 1289 l 1
 646 85 l 1
 1305 85 l 1
 1305 1289 l 1
 1520 1289 l 1
 1520 0 l 1
 545 0 l 1
 545 86 l 1xec
521 1667 m 0xf4
 521 1761 597 1830 682 1830 c 0
 774 1830 845 1759 846 1667 c 1
 846 1577 771 1504 683 1504 c 0
 595 1504 521 1578 521 1667 c 0xf4
EndSplineSet
Validated: 1
EndChar

StartChar: u0BB0
Encoding: 203 2992 203
Width: 1219
GlyphClass: 1
Flags: HW
HStem: 0 21G<1 101> 1190 100<101 429 645 932>
VStem: 1 100<0 1190> 429 216<0 1190>
AnchorPoint: "V" 425 1306 basechar 0
AnchorPoint: "N" 425 -450 basechar 0
LayerCount: 2
Fore
SplineSet
932 1190 m 1
 645 1190 l 1
 645 0 l 1
 172 -401 l 1
 0 -401 l 1
 429 0 l 1
 429 1190 l 1
 101 1190 l 1
 101 0 l 1
 1 0 l 1
 1 1290 l 1
 933 1290 l 1
 932 1190 l 1
EndSplineSet
EndChar

StartChar: u0BB0_u0BBF
Encoding: 204 -1 204
Width: 1534
GlyphClass: 2
Flags: HW
HStem: 1 21G<4 104 432 647 1162 1247.01> 1191 100<104 432 647 934> 1834 200<696.548 1041.77>
VStem: 4 100<1 1191> 432 215<1 1191> 463 99<1340.57 1695.32> 1162 85<0 1695.1>
AnchorPoint: "V" 540 1870.24 basechar 0
AnchorPoint: "N" 540 -40 basechar 0
LayerCount: 2
Fore
SplineSet
562 1517 m 0xf6
 562 1411 604 1321 633 1291 c 1
 934 1291 l 1
 934 1191 l 1
 647 1191 l 1
 647 1 l 1
 432 1 l 1
 432 1191 l 1xfa
 104 1191 l 1
 104 1 l 1
 4 1 l 1
 4 1291 l 1
 531 1291 l 1
 486 1378 463 1463 463 1545 c 0
 463 1772 543 2034 861 2034 c 0
 1171 2034 1248 1815 1248 1480 c 2
 1247 0 l 1
 1162 0 l 1
 1162 1447 l 2
 1162 1751 1056 1834 857 1834 c 0
 707 1834 562 1737 562 1517 c 0xf6
EndSplineSet
LCarets2: 1 0
EndChar

StartChar: u0BB0_u0BC0
Encoding: 205 -1 205
Width: 1290
GlyphClass: 2
Flags: HW
HStem: 0 21G<1 101 429 644> 1190 100<101 429 644 931> 1445 92<857.535 1092.13> 1977 169<558.611 816.776>
VStem: 1 100<0 1190> 268 112<1443.53 1781.95> 429 215<0 1190> 697 96<1601.08 1853.26> 1160 165<1608.06 1853.02>
AnchorPoint: "V" 540 2093.01 basechar 0
AnchorPoint: "N" 540 -40 basechar 0
LayerCount: 2
Fore
SplineSet
714 1977 m 0
 522 1977 380 1798 380 1589 c 0
 380 1439 468 1331 516 1290 c 1
 931 1290 l 1
 931 1190 l 1
 644 1190 l 1
 644 0 l 1
 429 0 l 1
 429 1190 l 1
 101 1190 l 1
 101 0 l 1
 1 0 l 1
 1 1290 l 1
 432 1290 l 1
 364 1348 268 1469 268 1623 c 0
 268 2003 541 2146 790 2146 c 0
 931 2146 1055 2117 1163 2058 c 0
 1271 1999 1325 1898 1325 1755 c 0
 1325 1573 1193 1445 997 1445 c 0
 782 1445 697 1598 697 1723 c 0
 697 1807 740 1927 819 1969 c 1
 783 1974 748 1977 714 1977 c 0
793 1723 m 0
 793 1623 868 1537 970 1537 c 0
 1079 1537 1159 1625 1160 1725 c 1
 1160 1824 1090 1926 959 1926 c 1
 864 1907 793 1828 793 1723 c 0
EndSplineSet
EndChar

StartChar: u0BB0_u0BC1
Encoding: 206 -1 206
Width: 2122
GlyphClass: 2
Flags: HW
HStem: -543 105<626.011 1197.38> -1 21G<547 647 977 1191> 635 138<1244.59 1498.14> 1189 100<647 977 1192 1479>
VStem: 2 101<147.063 819.211> 547 100<-1 1189> 977 214<-1 598.327 674 1189> 1619 216<-13.2256 494.529>
AnchorPoint: "V" 900 1306 basechar 0
AnchorPoint: "N" 900 -570 basechar 0
LayerCount: 2
Fore
SplineSet
359 1233 m 1
 204 1078 103 801 103 482 c 0
 103 -8 353 -438 895 -438 c 0
 1376 -438 1618 -195 1619 292 c 0
 1619 451 1549 635 1363 635 c 0
 1279 635 1222 605 1191 546 c 1
 1191 -1 l 1
 977 -1 l 1
 977 1189 l 1
 647 1189 l 1
 647 -1 l 1
 547 -1 l 1
 547 1289 l 1
 1479 1289 l 1
 1479 1189 l 1
 1192 1189 l 1
 1192 674 l 1
 1230 741 1323 773 1409 773 c 0
 1693 773 1835 531 1835 299 c 0
 1835 44 1764 -160 1624 -313 c 0
 1484 -466 1240 -543 892 -543 c 0
 286 -543 2 -59 2 487 c 0
 2 817 137 1146 296 1290 c 1
 359 1233 l 1
EndSplineSet
LCarets2: 1 0
EndChar

StartChar: u0BB0_u0BC2
Encoding: 207 -1 207
Width: 2466
GlyphClass: 2
Flags: HW
HStem: -542 97<755.15 1414.71> 0 21G<887 987 1316 1531> 636 137<1586.68 1849.02> 692 110<278.044 542.69> 1195 95<285.16 534.567 987 1316 1532 1819>
VStem: 0 100<187.589 860.333> 602 100<859.449 1125.77> 887 100<0 1190> 1316 215<0 599.327 675 1190> 1960 215<53.8993 495.453>
AnchorPoint: "V" 1070 1306 basechar 0
AnchorPoint: "N" 1070 -570 basechar 0
LayerCount: 2
Fore
SplineSet
417 802 m 0xdfc0
 522 802 602 873 602 979 c 0
 602 1093 538 1195 415 1195 c 0
 265 1195 199 1064 199 963 c 1
 219 866 316 802 417 802 c 0xdfc0
2175 299 m 0
 2175 -335 1677 -542 1061 -542 c 0
 431 -542 0 -130 0 487 c 0
 0 754 40 954 118 1088 c 0
 196 1222 296 1290 419 1290 c 0
 602 1290 702 1182 702 992 c 0
 702 752 535 692 422 692 c 0xdfc0
 299 692 176 763 148 874 c 1
 116 776 100 644 100 478 c 0
 100 -76 529 -445 1067 -445 c 0
 1771 -445 1960 -5 1960 292 c 0
 1960 376 1941 454 1902 527 c 0
 1863 600 1796 636 1703 636 c 0
 1619 636 1562 606 1531 547 c 1
 1531 0 l 1
 1316 0 l 1
 1316 1190 l 1
 987 1190 l 1
 987 0 l 1
 887 0 l 1
 887 1290 l 1
 1819 1290 l 1
 1819 1190 l 1
 1532 1190 l 1
 1532 675 l 1
 1566 732 1651 773 1749 773 c 0xefc0
 2033 773 2175 531 2175 299 c 0
EndSplineSet
LCarets2: 1 0
EndChar

StartChar: u0BB0_u0BCD
Encoding: 208 -1 208
Width: 1219
GlyphClass: 2
Flags: W
HStem: 0 21G<1 101 429 646> 1190 100<101 429 646 933> 1505 326<402.658 620.485>
VStem: 1 100<0 1190> 349 325<1558.81 1778.38> 429 217<0 1190>
AnchorPoint: "N" 610 -40 basechar 0
LayerCount: 2
Fore
SplineSet
429 0 m 1xf4
 429 1190 l 1
 101 1190 l 1
 101 0 l 1
 1 0 l 1
 1 1290 l 1
 933 1290 l 1
 933 1190 l 1
 646 1190 l 1
 646 0 l 1
 429 0 l 1xf4
349 1668 m 0xf8
 349 1762 425 1831 510 1831 c 0
 602 1831 673 1760 674 1668 c 1
 674 1578 599 1505 511 1505 c 0
 423 1505 349 1579 349 1668 c 0xf8
EndSplineSet
Validated: 1
EndChar

StartChar: u0BB1
Encoding: 209 2993 209
Width: 1792
GlyphClass: 1
Flags: HW
HStem: -304 118<410.836 968.036> 1 21G<153 252> 1190 101<299.514 534.411 877.916 1144.44>
VStem: 8 229<-667.988 -439.118> 153 99<1 1139.72> 581 214<2 1106.61> 1296 209<197.747 953.41>
AnchorPoint: "V" 718.5 1306 basechar 0
AnchorPoint: "N" 718.5 -314.456 basechar 0
LayerCount: 2
Fore
SplineSet
751 1147 m 1xee
 774 1194 851 1291 1002 1291 c 0
 1412 1291 1505 987 1505 568 c 0
 1504 77 1345 -304 704 -304 c 0
 238 -304 237 -512 237 -599 c 0
 237 -678 212 -711 126 -711 c 0
 32 -711 8 -564 8 -494 c 0xf6
 8 -371 113 -186 585 -186 c 0
 1010 -186 1296 -132 1296 558 c 0
 1296 979 1204 1190 1021 1190 c 0
 891 1190 795 1107 795 962 c 2
 795 2 l 1
 581 2 l 1
 581 977 l 2
 581 1100 548 1190 418 1190 c 0
 307 1190 252 1123 252 990 c 2
 252 1 l 1
 153 1 l 1
 153 985 l 2
 153 1189 262 1291 479 1291 c 0
 612 1291 716 1234 751 1147 c 1xee
EndSplineSet
EndChar

StartChar: u0BB1_u0BBE.old
Encoding: 211 -1 211
Width: 2150
GlyphClass: 1
Flags: HW
HStem: -570 101<732.79 1290.92> -1 21G<918 1132> 1187 101<636.165 869.756 1225.56 1552.74>
VStem: 4 99<140.198 809.178> 489 100<-2 1136.72> 918 214<-1 1098.25> 1647 216<-172.828 217.456 667.534 1085.83>
AnchorPoint: "V" 718.5 1306 basechar 0
AnchorPoint: "N" 718.5 -314.456 basechar 0
LayerCount: 2
Fore
SplineSet
1086 1145 m 1
 1129 1245 1270 1288 1423 1288 c 0
 1667 1288 1860 1215 1863 905 c 1
 1863 682 1765 513 1620 434 c 1
 1687 395 1863 267 1863 16 c 0
 1863 -218 1721 -570 1014 -570 c 0
 464 -570 4 -176 4 432 c 0
 4 667 61 1074 296 1290 c 1
 359 1233 l 1
 146 1020 103 660 103 423 c 0
 103 -112 516 -469 1017 -469 c 0
 1392 -469 1647 -275 1647 16 c 0
 1647 199 1573 341 1426 440 c 1
 1573 501 1647 656 1647 905 c 0
 1647 1037 1598 1188 1404 1188 c 0
 1243 1188 1132 1111 1132 959 c 2
 1132 -1 l 1
 918 -1 l 1
 918 974 l 2
 918 1097 885 1187 755 1187 c 0
 644 1187 589 1120 589 987 c 2
 589 -2 l 1
 489 -2 l 1
 489 982 l 2
 489 1186 598 1288 816 1288 c 0
 1009 1288 1074 1176 1086 1145 c 1
EndSplineSet
EndChar

StartChar: u0BB1_u0BBF
Encoding: 212 -1 212
Width: 2108
GlyphClass: 2
Flags: HW
HStem: -299 108<405.469 928.623> -1 21G<1734 1820> 1195 101<298.514 533.411 1007.91 1145.05> 1886 193<1156.45 1550.82>
VStem: 8 228<-664.154 -428.788> 152 99<6 1144.72> 580 214<7 1111.61> 861 113<1333.01 1700.98> 1295 209<192.65 953.302> 1734 86<-1 1686.05>
AnchorPoint: "V" 718.5 1306 basechar 0
AnchorPoint: "N" 718.5 -314.456 basechar 0
LayerCount: 2
Fore
SplineSet
580 982 m 2xfbc0
 580 1105 547 1195 417 1195 c 0
 306 1195 251 1128 251 995 c 2
 251 6 l 1
 152 6 l 1
 152 990 l 2xf7c0
 152 1194 261 1296 478 1296 c 0
 611 1296 715 1239 750 1152 c 1
 781 1222 840 1266 929 1285 c 1
 884 1365 861 1466 861 1588 c 0
 861 1871 1019 2079 1358 2079 c 0
 1666 2079 1820 1883 1820 1492 c 2
 1820 -1 l 1
 1734 -1 l 1
 1734 1490 l 2
 1734 1651 1659 1886 1357 1886 c 0
 1094 1886 974 1728 974 1474 c 0
 974 1412 992 1351 1027 1292 c 1
 1144 1292 1240 1259 1316 1192 c 1
 1447 1082 1504 888 1504 567 c 0
 1504 -118 1172 -246 854 -290 c 0
 808 -296 758 -299 703 -299 c 0
 384 -299 285 -404 256 -465 c 0
 243 -494 236 -537 236 -594 c 0
 236 -673 211 -706 119 -706 c 0
 62 -706 8 -620 8 -507 c 0
 8 -420 34 -356 86 -315 c 0
 187 -234 301 -198 400 -191 c 1
 638 -179 l 1
 735 -179 826 -170 911 -152 c 1
 1169 -107 1295 114 1295 563 c 0
 1295 984 1203 1195 1020 1195 c 0
 890 1195 794 1112 794 967 c 2
 794 7 l 1
 580 7 l 1
 580 982 l 2xfbc0
EndSplineSet
EndChar

